<?xml version="1.0" encoding="utf-8"?>
<!-- Generator: Adobe Illustrator 16.0.4, SVG Export Plug-In . SVG Version: 6.00 Build 0)  -->
<!DOCTYPE svg PUBLIC "-//W3C//DTD SVG 1.1//EN" "http://www.w3.org/Graphics/SVG/1.1/DTD/svg11.dtd">
<svg version="1.1" id="Layer_1" xmlns="http://www.w3.org/2000/svg" xmlns:xlink="http://www.w3.org/1999/xlink" x="0px" y="0px"
	 width="543px" height="135.145px" viewBox="0 0 543 135.145" enable-background="new 0 0 543 135.145" xml:space="preserve">
<text transform="matrix(1 0 0 1 -7 132.209)" fill="#72AF3A" font-family="'MyriadPro-Bold'" font-size="120">Double</text>
<text transform="matrix(1 0 0 1 455.3027 132.209)" fill="#F0AD4E" font-family="'MyriadPro-Bold'" font-size="120">iz</text>
<g>
	<path fill="#F0AD4E" d="M424.394,131.114c-4.306,2.658-12.034-0.022-13.986-5.949c-1.655-5.034,3.08-15.031,4.688-19.472
		c5.453-15.087,13.202-28.761,20.453-42.62c2.622-5.007,7.434-18.216,12.339-19.096c8.593-1.54,8.031,8.653,6.535,14.37
		c-5.146,19.664-15.937,35.95-21.464,55.354C431.033,120.462,430.303,127.466,424.394,131.114z"/>
	<path fill="#F0AD4E" d="M426.492,125.589c-0.657,5.747-6.861,11.18-11.962,9.104c-4.335-1.765-8.38-12.732-10.457-17.138
		c-7.063-14.975-11.874-31.156-17.09-46.995c-1.884-5.724-8.048-18.868-5.851-24.006c3.848-9.002,10.397-1.792,13.4,3.354
		c10.328,17.688,15.164,38.414,25.098,56.289C423.088,112.423,427.396,117.698,426.492,125.589z"/>
	<path fill="#F0AD4E" d="M432.665,22.035c-6.123,18.801,6.731,48.265,28.59,47.356c18.364-0.763,37.163-13.158,31.537-32.932
		C486.147,13.097,443.083-9.954,432.665,22.035z"/>
	<path fill="#F0AD4E" d="M342.892,42.188c11.399,16.674,43.22,24.518,56.071,6.147c10.799-15.436,12.46-38.454-7.029-46.164
		C368.906-6.939,323.496,13.815,342.892,42.188z"/>
	<g>
		<path fill="#FFFFFF" d="M466.269,58.944c-28.025,7.138-36.377-45.623-6.747-43.645C481.933,16.798,490.396,52.798,466.269,58.944z
			"/>
		<path fill="#264D73" d="M467.511,32.398c2.338,2.521,4.352,5.373,4.995,8.832c0.845,4.558-0.335,7.729-3.93,10.623
			c-3.971,3.195-10.289,1.017-12.763-2.938c0.293,0.472-2.441-5.626-0.739-2.055c-0.186-0.355-0.398-0.694-0.633-1.018
			c0.855,1.011,0.904,1.13,0.144,0.36c-3.746-3.535-3.939-9.626-0.415-13.39C457.514,29.24,464.003,28.617,467.511,32.398
			L467.511,32.398z"/>
	</g>
	<g>
		<path fill="#FFFFFF" d="M380.072,49.717c-27.824,7.086-36.118-45.302-6.7-43.336C395.624,7.867,404.028,43.614,380.072,49.717z"/>
		<path fill="#264D73" d="M381.306,23.357c2.322,2.504,4.322,5.336,4.959,8.77c0.841,4.526-0.33,7.674-3.899,10.548
			c-3.943,3.173-10.217,1.01-12.675-2.916c0.294,0.468-2.421-5.586-0.732-2.041c-0.185-0.352-0.395-0.688-0.63-1.01
			c0.852,1.003,0.898,1.123,0.143,0.359c-3.719-3.511-3.909-9.559-0.412-13.295C371.381,20.224,377.823,19.604,381.306,23.357
			L381.306,23.357z"/>
	</g>
</g>
</svg>
