<?xml version="1.0" encoding="utf-8"?>
<!-- Generator: Adobe Illustrator 16.0.4, SVG Export Plug-In . SVG Version: 6.00 Build 0)  -->
<!DOCTYPE svg PUBLIC "-//W3C//DTD SVG 1.1//EN" "http://www.w3.org/Graphics/SVG/1.1/DTD/svg11.dtd">
<svg version="1.1" id="Layer_1" xmlns="http://www.w3.org/2000/svg" xmlns:xlink="http://www.w3.org/1999/xlink" x="0px" y="0px"
	 width="543px" height="135.145px" viewBox="0 0 543 135.145" enable-background="new 0 0 543 135.145" xml:space="preserve">
<g enable-background="new    ">
	<path fill="#72AF3A" d="M0.92,52.412c6.72-1.08,15.479-1.68,24.719-1.68c15.359,0,25.319,2.76,33.119,8.64
		c8.4,6.239,13.679,16.199,13.679,30.479c0,15.479-5.64,26.159-13.439,32.759c-8.52,7.08-21.479,10.439-37.318,10.439
		c-9.479,0-16.199-0.6-20.759-1.2V52.412z M19.279,118.409c1.56,0.36,4.08,0.36,6.36,0.36c16.56,0.12,27.359-9,27.359-28.318
		c0.12-16.8-9.72-25.68-25.439-25.68c-4.08,0-6.72,0.36-8.28,0.721V118.409z"/>
	<path fill="#72AF3A" d="M141.797,102.21c0,21.479-15.239,31.319-30.958,31.319c-17.16,0-30.359-11.28-30.359-30.239
		s12.479-31.079,31.319-31.079C129.798,72.211,141.797,84.572,141.797,102.21z M99.319,102.811c0,10.079,4.2,17.639,11.999,17.639
		c7.08,0,11.64-7.079,11.64-17.639c0-8.76-3.36-17.64-11.64-17.64C102.559,85.171,99.319,94.171,99.319,102.811z"/>
	<path fill="#72AF3A" d="M208.396,113.37c0,7.68,0.24,13.919,0.48,18.839h-15.84l-0.84-8.279h-0.36c-2.28,3.6-7.8,9.6-18.359,9.6
		c-11.879,0-20.639-7.44-20.639-25.56V73.531h18.359v31.559c0,8.52,2.76,13.68,9.12,13.68c5.04,0,7.919-3.479,9.12-6.359
		c0.48-1.08,0.6-2.521,0.6-3.96V73.531h18.359V113.37z"/>
	<path fill="#72AF3A" d="M222.559,132.209c0.24-3.84,0.48-10.92,0.48-17.52V47.013h18.239v33.479h0.24
		c3.48-5.04,9.6-8.28,17.759-8.28c14.04,0,24.359,11.64,24.239,29.64c0,21.119-13.439,31.679-26.878,31.679
		c-6.84,0-13.439-2.521-17.639-9.48h-0.24l-0.72,8.16H222.559z M241.278,107.25c0,1.2,0.12,2.28,0.36,3.24
		c1.2,4.92,5.4,8.64,10.68,8.64c7.8,0,12.6-6,12.6-16.56c0-9.12-4.08-16.319-12.6-16.319c-4.92,0-9.479,3.72-10.68,8.999
		c-0.24,1.08-0.36,2.16-0.36,3.36V107.25z"/>
	<path fill="#72AF3A" d="M294.797,47.013h18.239v85.196h-18.239V47.013z"/>
	<path fill="#72AF3A" d="M341.836,108.69c0.6,7.561,8.039,11.16,16.559,11.16c6.24,0,11.28-0.84,16.2-2.4l2.399,12.359
		c-6,2.4-13.319,3.601-21.239,3.601c-19.919,0-31.318-11.52-31.318-29.879c0-14.88,9.239-31.319,29.639-31.319
		c18.959,0,26.159,14.76,26.159,29.279c0,3.12-0.36,5.88-0.601,7.199H341.836z M363.314,96.211c0-4.44-1.92-11.88-10.319-11.88
		c-7.68,0-10.8,6.96-11.279,11.88H363.314z"/>
</g>
<g enable-background="new    ">
	<path fill="#F0AD4E" d="M481.462,57.212c0,5.04-3.84,9.12-9.84,9.12c-5.76,0-9.6-4.08-9.479-9.12c-0.12-5.279,3.72-9.239,9.6-9.239
		S481.342,51.933,481.462,57.212z M462.623,132.209V73.531h18.238v58.678H462.623z"/>
	<path fill="#F0AD4E" d="M490.821,121.77l18.479-23.159c3.359-3.96,5.999-6.84,9.359-10.439v-0.24h-25.799V73.531h47.998v10.92
		l-17.64,22.199c-3.239,3.84-6.239,7.56-9.6,10.799v0.24h28.198v14.52h-50.997V121.77z"/>
</g>
<g>
	<path fill="#F0AD4E" d="M424.394,131.115c-4.306,2.657-12.033-0.022-13.985-5.949c-1.655-5.034,3.08-15.031,4.688-19.473
		c5.453-15.087,13.202-28.761,20.453-42.619c2.622-5.008,7.435-18.217,12.339-19.097c8.594-1.54,8.031,8.653,6.535,14.37
		c-5.146,19.664-15.937,35.95-21.464,55.354C431.033,120.462,430.303,127.466,424.394,131.115z"/>
	<path fill="#F0AD4E" d="M426.492,125.589c-0.657,5.747-6.861,11.18-11.962,9.104c-4.335-1.765-8.38-12.731-10.457-17.138
		c-7.063-14.975-11.874-31.156-17.091-46.995c-1.883-5.724-8.047-18.868-5.851-24.006c3.849-9.002,10.397-1.792,13.4,3.354
		c10.328,17.688,15.164,38.413,25.098,56.288C423.088,112.423,427.396,117.698,426.492,125.589z"/>
	<path fill="#F0AD4E" d="M432.665,22.035c-6.123,18.801,6.731,48.265,28.59,47.355c18.364-0.763,37.163-13.158,31.537-32.932
		C486.147,13.097,443.083-9.954,432.665,22.035z"/>
	<path fill="#F0AD4E" d="M342.893,42.188c11.398,16.674,43.219,24.519,56.07,6.147c10.799-15.437,12.46-38.454-7.029-46.164
		C368.906-6.939,323.496,13.815,342.893,42.188z"/>
	<g>
		<path fill="#FFFFFF" d="M466.269,58.944c-28.024,7.139-36.377-45.623-6.746-43.645C481.933,16.798,490.396,52.798,466.269,58.944z
			"/>
		<path fill="#264D73" d="M467.511,32.398c2.338,2.521,4.353,5.373,4.995,8.832c0.845,4.559-0.335,7.729-3.93,10.623
			c-3.971,3.195-10.289,1.018-12.764-2.938c0.294,0.472-2.44-5.626-0.738-2.056c-0.187-0.354-0.398-0.693-0.633-1.018
			c0.854,1.011,0.903,1.13,0.144,0.36c-3.746-3.535-3.938-9.626-0.415-13.391C457.514,29.24,464.003,28.617,467.511,32.398
			L467.511,32.398z"/>
	</g>
	<g>
		<path fill="#FFFFFF" d="M380.072,49.717c-27.824,7.086-36.118-45.302-6.7-43.336C395.624,7.867,404.028,43.615,380.072,49.717z"/>
		<path fill="#264D73" d="M381.307,23.357c2.321,2.504,4.321,5.336,4.959,8.771c0.84,4.525-0.33,7.674-3.899,10.548
			c-3.943,3.173-10.218,1.01-12.675-2.916c0.293,0.468-2.422-5.586-0.732-2.041c-0.186-0.352-0.395-0.688-0.63-1.01
			c0.853,1.003,0.897,1.123,0.144,0.358c-3.72-3.511-3.91-9.559-0.412-13.295C371.381,20.224,377.823,19.604,381.307,23.357
			L381.307,23.357z"/>
	</g>
</g>
</svg>
