<?xml version="1.0" encoding="utf-8"?>
<!-- Generator: Adobe Illustrator 16.0.4, SVG Export Plug-In . SVG Version: 6.00 Build 0)  -->
<!DOCTYPE svg PUBLIC "-//W3C//DTD SVG 1.1//EN" "http://www.w3.org/Graphics/SVG/1.1/DTD/svg11.dtd">
<svg version="1.1" id="Layer_1" xmlns="http://www.w3.org/2000/svg" xmlns:xlink="http://www.w3.org/1999/xlink" x="0px" y="0px"
	 width="750.918px" height="362.532px" viewBox="0 0 750.918 362.532" enable-background="new 0 0 750.918 362.532"
	 xml:space="preserve">
<g>
	<g>
		
			<line fill="none" stroke="#B4B4B4" stroke-width="4" stroke-linecap="round" stroke-miterlimit="10" stroke-dasharray="3.9677,7.9355" x1="176.027" y1="40.821" x2="176.027" y2="274.917"/>
		
			<line fill="none" stroke="#B4B4B4" stroke-width="4" stroke-linecap="round" stroke-miterlimit="10" stroke-dasharray="3.9659,7.9318" x1="288.74" y1="107.149" x2="180.142" y2="276.567"/>
		
			<line fill="none" stroke="#B4B4B4" stroke-width="4" stroke-linecap="round" stroke-miterlimit="10" stroke-dasharray="3.9653,7.9307" x1="60.767" y1="107.149" x2="171.913" y2="276.565"/>
		
			<line fill="none" stroke="#B4B4B4" stroke-width="4" stroke-linecap="round" stroke-miterlimit="10" stroke-dasharray="3.9677,7.9355" x1="575.605" y1="39.997" x2="575.605" y2="274.093"/>
		
			<line fill="none" stroke="#B4B4B4" stroke-width="4" stroke-linecap="round" stroke-miterlimit="10" stroke-dasharray="3.9659,7.9318" x1="688.318" y1="106.325" x2="579.721" y2="275.743"/>
		
			<line fill="none" stroke="#B4B4B4" stroke-width="4" stroke-linecap="round" stroke-miterlimit="10" stroke-dasharray="3.9653,7.9307" x1="460.346" y1="106.325" x2="571.491" y2="275.741"/>
	</g>
	<polygon fill="#EFEEEE" points="489.793,185.106 489.793,331.553 489.793,362.532 632.129,362.532 632.129,331.553 
		632.129,185.106 	"/>
	<g>
		<rect x="503.164" y="174.771" fill="#FFFFFF" width="142.335" height="172.822"/>
		<rect x="503.164" y="174.771" fill="#FFCD62" width="142.335" height="64.399"/>
		<g>
			<rect x="517.17" y="250.603" fill="#D4D4D4" width="114.325" height="3.691"/>
			<rect x="517.17" y="262.663" fill="#D4D4D4" width="114.325" height="3.689"/>
			<rect x="517.17" y="274.723" fill="#D4D4D4" width="114.325" height="3.689"/>
			<rect x="517.17" y="286.781" fill="#D4D4D4" width="114.325" height="3.688"/>
			<rect x="517.17" y="298.838" fill="#D4D4D4" width="114.325" height="3.691"/>
		</g>
		<rect x="517.17" y="314.956" fill="#669FD5" width="114.325" height="21.301"/>
	</g>
</g>
<g>
	<polygon fill="#EFEEEE" points="91.648,182.748 91.648,329.195 91.648,360.173 233.984,360.173 233.984,329.195 233.984,182.748 	
		"/>
	<g>
		<rect x="102.835" y="173.864" fill="#FFFFFF" width="141.756" height="172.117"/>
		<rect x="102.835" y="173.864" fill="#669FD5" width="141.756" height="64.137"/>
		<g>
			<rect x="116.785" y="249.388" fill="#D4D4D4" width="113.851" height="3.675"/>
			<rect x="116.785" y="261.398" fill="#D4D4D4" width="113.851" height="3.675"/>
			<rect x="116.785" y="273.411" fill="#D4D4D4" width="113.851" height="3.674"/>
			<rect x="116.785" y="329.823" fill="#D4D4D4" width="113.851" height="3.673"/>
			<rect x="116.785" y="317.812" fill="#D4D4D4" width="113.851" height="3.677"/>
		</g>
		<rect x="116.785" y="286.616" fill="#71AE43" width="113.851" height="21.213"/>
	</g>
</g>
<g id="Layer_2">
	<g>
		<circle fill="#B7D7F1" cx="174.041" cy="60" r="60"/>
		<path fill="#52C4CA" d="M151.609,87.389c-5.912,3.838-8.36,12.085-11.828,21.853c9.718,6.779,21.535,10.759,34.283,10.759
			c12.729,0,24.526-3.967,34.236-10.726c-3.46-9.813-5.868-18.14-11.854-21.886c-10.234-6.411-16.396-7.947-22.438-8.029
			C167.83,79.276,161.774,80.789,151.609,87.389z"/>
		<g>
			<g>
				<rect x="189.077" y="88.57" fill="#EF817F" width="7.377" height="7.376"/>
			</g>
			<g>
				<rect x="151.625" y="88.57" fill="#EF817F" width="7.377" height="7.376"/>
			</g>
		</g>
		<path fill="#FFDDB8" d="M165.55,56.83h16.958v24.529c0,8.278-16.958,9.229-16.958,0V56.83z"/>
		<polygon fill="#E7C5A0" points="182.509,72.23 182.509,69.094 165.55,69.094 165.55,80.638 		"/>
		<path fill="#C48872" d="M173.657,31.336c12.042,0,18.404,7.064,19.043,14.535c0.646,7.471,1.729,6.146,4.329,0.586
			c2.604-5.559-3.771-29.532-22.396-29.532s-26.25,18.443-23.647,28.52c2.605,10.076,2.605,7.683,4.232,0.039
			C156.846,37.84,160.309,31.685,173.657,31.336z"/>
		<path fill="#FFDDB8" d="M195.014,38.848c3.984,14.037-7.051,34.23-20.984,34.23c-13.743,0-24.667-19.645-21.141-33.651
			C164.159,33.798,181.575,27.432,195.014,38.848z"/>
		<path fill="#C48872" d="M191.741,44.258c-0.072-3.934-3.376-8.143-5.771-9.339c-2.396-1.197-14.499,0.298-20.749,4.273
			c-6.759,4.3-8.004,7.564-8.454,11.42c-0.141,1.21-0.47,2.439-1.124,2.2c-2.069-0.754-2.478-6.541-4.236-7.596
			c-2.564-1.539-1.391-3.994-0.365-7.926c1.025-3.932,12.597-6.091,22.17-6.433c9.573-0.343,16.734,1.88,19.708,4.615
			c2.97,2.735,4.096,7.148,2.788,10.89c-0.938,2.683-1.884,5.958-3.809,5.398C191.024,51.507,191.785,46.534,191.741,44.258z"/>
		<g>
			
				<ellipse transform="matrix(0.9761 0.2173 -0.2173 0.9761 14.9916 -41.4385)" fill="#FFDDB8" cx="195.883" cy="47.436" rx="2.424" ry="5.614"/>
			
				<ellipse transform="matrix(0.9761 -0.2174 0.2174 0.9761 -6.676 34.2131)" fill="#F6D6B2" cx="152.178" cy="47.452" rx="2.425" ry="5.614"/>
		</g>
		<path fill="#B2DAAA" d="M158.311,82.846c-7.141,0-8.628,0.894-8.926,5.653c-0.298,4.761,0.892,16.066,5.355,22.314
			c4.463,6.248,2.082-0.893,2.678-5.95c0.595-5.059,1.487,7.141,3.57,1.487C163.071,100.698,160.394,96.83,158.311,82.846z"/>
		<path fill="#B2DAAA" d="M193.844,85.078c3.25,0,7.265,2.104,4.396,6.691c-2.863,4.589-4.396,15.104-4.588,19.502
			c-0.188,4.397-2.295,7.456-2.295,3.824c0-3.633-2.676-12.045-3.438-8.413c-0.77,3.633-3.637,7.266-3.25,0.383
			C185.048,100.183,186.577,81.255,193.844,85.078z"/>
		<path fill="#B2DAAA" d="M193.38,85.985c-6.188,6.702-25.066,15.702-37.44-0.28c-1.364-4.154-0.981-6.376,2.628-5.346
			c-0.258-3.866,3.228-5.308,6.58-3.503c4.897,5.155,15.801,2.503,17.863-0.849c3.188-0.867,5.177,0.417,5.177,4.8
			C194.632,77.713,195.958,82.633,193.38,85.985z"/>
		<g>
			<path fill="#289045" d="M190.931,93.878v-2.38c1.217-2.176,2.562-3.774,3.529-4.086
				C193.819,87.946,192.302,90.639,190.931,93.878L190.931,93.878z M190.931,89.455c1.329-0.934,2.516-2.359,2.954-4.127l0,0
				c-0.55,1.03-1.707,2.062-2.954,2.966V89.455z M190.931,88.294v1.161c-1.155,0.812-2.417,1.252-3.382,1.223v-0.233
				C188.452,89.918,189.731,89.164,190.931,88.294L190.931,88.294z M190.931,91.498v2.38c-1.402,3.311-2.65,7.191-2.65,9.915
				C187.275,100.24,188.926,95.084,190.931,91.498L190.931,91.498z M187.549,81.298v-0.083c0.119-0.091,0.229-0.182,0.346-0.271l0,0
				C187.782,81.061,187.667,81.179,187.549,81.298z M157.026,101.494c-0.254-0.447-0.495-0.963-0.724-1.529v0.79
				C156.533,101.023,156.773,101.271,157.026,101.494L157.026,101.494z M187.549,81.215v0.083
				c-5.214,5.214-17.146,10.466-27.583-0.013C170.61,89.921,182.482,85.118,187.549,81.215L187.549,81.215z M187.549,90.445
				l-0.351,0.2c0.11,0.02,0.229,0.029,0.351,0.033V90.445L187.549,90.445z M156.303,87.616v-1.408
				c0.933,1.229,2.269,2.483,3.095,3.146C158.29,89.285,157.06,88.655,156.303,87.616z M156.303,99.965
				c-1.901-4.723-2.863-12.979-2.222-14.134c-1.992,1.525-1.373,10.728,2.222,14.924V99.965L156.303,99.965z M156.303,86.207v1.408
				c-0.493-0.675-0.785-1.524-0.713-2.502C155.773,85.464,156.02,85.835,156.303,86.207z"/>
		</g>
		<path fill="#C48872" d="M156.769,46.777c-0.851,3.4-0.634,11.788,2.733,14.507c3.368,2.717,5.28,3.135,5.846,0.017
			c1.059-5.823,16.271-5.823,17.331,0c0.562,3.118,2.478,2.7,5.846-0.017c3.368-2.719,3.584-11.106,2.733-14.507
			c0.413-3.508,3.077-3.321,2.312-0.786c-0.438,1.457,0.371,3.422,0.67,4.646c1.104,4.502,0.28,9.273-2.838,14.658
			c-7.478,12.918-27.3,12.918-34.779,0c-3.119-5.385-3.938-10.156-2.837-14.658c0.299-1.225,1.107-3.189,0.669-4.646
			C153.691,43.455,156.355,43.269,156.769,46.777z"/>
		<path fill="#F6D6B2" d="M174.041,58.468c4.265,0,7.723,2.354,7.723,5.259c0,2.102,0,4.757-3.18,4.757
			c-3.129,0-2.217-2.658-4.467-2.626c-2.469,0.036-1.796,2.59-4.852,2.589c-2.884,0-2.948-2.662-2.948-4.72
			C166.317,60.772,169.774,58.468,174.041,58.468z"/>
		<path fill="#028170" d="M182.361,53.673c0.186-0.003,0.367-0.011,0.562-0.025c4.375-0.33,5.392-2.151,5.809-4.452
			c0.458-2.528,0.464-3.409,1.161-3.641c0.512-0.17,0.62-0.736,0.582-1.395c-0.038-0.659-0.064-0.729-0.93-1.007
			c-0.682-0.217-4.395-0.536-7.185-0.387v0.683c2.191-0.102,4.312,0.148,4.938,0.518c1.436,0.848,1.152,4.917,0.038,6.932
			c-0.787,1.418-2.991,2.127-4.978,2.133L182.361,53.673L182.361,53.673z M173.952,44.083c-0.968,0.021-4.96-1.046-7.784-1.277
			c-0.183-0.016-0.371-0.028-0.565-0.039v0.683c2.279,0.105,4.637,0.591,5.483,1.718c1.394,1.858-0.852,6.39-2.982,7.396
			c-0.666,0.315-1.558,0.471-2.501,0.468v0.642c3.86,0.056,5.194-2.505,5.637-3.355c0.829-1.588,0.575-3.777,2.743-3.777
			s1.952,2.15,2.781,3.739c0.444,0.851,1.742,3.446,5.599,3.394v-0.642c-0.938,0.003-1.834-0.152-2.5-0.468
			c-2.13-1.007-4.375-5.538-2.979-7.396c0.845-1.127,3.204-1.612,5.479-1.718v-0.683c-0.188,0.011-0.382,0.023-0.562,0.039
			C179.27,43.013,176.229,44.033,173.952,44.083z M165.603,42.767c-2.79-0.149-6.503,0.17-7.18,0.387
			c-0.866,0.278-0.891,0.349-0.929,1.007c-0.04,0.658,0.069,1.225,0.581,1.395c0.697,0.231,0.703,1.112,1.161,3.641
			c0.418,2.301,1.435,4.122,5.809,4.452c0.192,0.015,0.378,0.022,0.559,0.025v-0.642c-1.981-0.006-4.186-0.715-4.973-2.133
			c-1.119-2.015-1.397-6.084,0.039-6.932c0.625-0.369,2.743-0.619,4.934-0.518L165.603,42.767L165.603,42.767z"/>
	</g>
	<g>
		<circle fill="#B7D7F1" cx="60" cy="97.49" r="60"/>
		<path fill="#C48872" d="M38.309,69.414c-3.396,6.27-10.217,43.453-0.552,64.875s34.097,22.143,34.622,9.867
			C72.898,131.878,44.84,64.453,38.309,69.414z"/>
		<path fill="#C48872" d="M80.76,69.394c3.396,6.27,9.729,41.172,0.063,62.59c-9.665,21.422-33.767,24.447-34.29,12.172
			C46.012,131.878,74.229,64.43,80.76,69.394z"/>
		<path fill="#52C4CA" d="M37.568,124.88c-5.912,3.838-8.359,12.084-11.828,21.852c9.72,6.779,21.535,10.758,34.283,10.758
			c12.727,0,24.525-3.965,34.235-10.723c-3.46-9.814-5.867-18.141-11.851-21.887c-10.237-6.412-16.399-7.947-22.441-8.029
			C53.79,116.768,47.734,118.281,37.568,124.88z"/>
		<path fill="#FFDDB8" d="M51.51,94.32h16.957v24.529c0,8.279-16.957,9.232-16.957,0V94.32z"/>
		<polygon fill="#E7C5A0" points="68.467,109.721 68.467,106.585 51.51,106.585 51.51,118.128 		"/>
		<path fill="#F0CEAB" d="M59.988,63.13c35.914,0,21.355,47.439,0,47.439S24.075,63.13,59.988,63.13z"/>
		<path fill="#FFDDB8" d="M59.988,63.13c35.914,0,21.355,47.439,0,47.439V63.13z"/>
		<path fill="#C48872" d="M67.291,67.699c5.949,2.936,9.616,7.842,10.891,15.363c1.277,7.523,2.207,6.443,4.812,0.887
			c2.602-5.562-3.777-29.533-22.402-29.533c-18.626,0-26.25,18.443-23.648,28.52c2.605,10.076,4.637,6.781,6.266-0.863
			C44.837,74.428,52.816,66.917,67.291,67.699z"/>
		<path fill="#7E6055" d="M76.816,125.604c10.449-35.525-6.006-57.73-9.662-57.99C74.203,65.841,90.84,87.935,76.816,125.604z"/>
		<path fill="#FFDDB8" d="M68.545,118.031c-0.785,8.121-8.486,15.057-8.486,21.623c0-6.584-7.738-13.521-8.49-21.686L68.545,118.031
			z"/>
		<path fill="#E1E6F4" d="M60.059,136.649c3.707-5.543,7.571-8.729,12.232-10.182c2.302-0.717,6.34-1.484,8.503-0.428
			c-4.092-4.652-8.396-6.98-12.249-11.355C68.502,127.31,59.979,129.524,60.059,136.649z"/>
		<path fill="#FFFFFF" d="M60.059,136.649c2.773-5.9,7.068-10.881,11.729-12.334c2.303-0.719,4.473-0.553,6.637,0.502
			c-4.092-4.65-6.025-7.336-9.879-10.133C68.502,127.31,59.979,129.524,60.059,136.649z"/>
		<path fill="#E1E6F4" d="M60.059,136.649c-3.705-5.543-7.57-8.729-12.23-10.182c-2.303-0.717-6.344-1.484-8.504-0.428
			c4.092-4.652,8.396-6.98,12.248-11.355C51.617,127.31,60.138,129.524,60.059,136.649z"/>
		<path fill="#FFFFFF" d="M60.059,136.649c-2.772-5.9-7.066-10.881-11.729-12.334c-2.305-0.719-4.475-0.553-6.635,0.502
			c4.092-4.65,6.025-7.336,9.877-10.133C51.617,127.31,60.138,129.524,60.059,136.649z"/>
		<path fill="#7E6055" d="M44.295,132.529c-12.236-71.65,16.467-63.516,22.988-64.783C59.107,58.988,21.758,58.434,44.295,132.529z"
			/>
		<g>
			<path fill="#3E6735" d="M41.624,122.671c-3.034,1.859-4.354,6.248-4.778,9.672c6.012-1.305,12.706,2.277,13.838,3.906
				c-4.516,2.533-5.793,4.885-8.288,8.146c2.142,2.867,6.658,7.119,10.671,12.693c0.533,0.061,1.07,0.115,1.605,0.164
				c-3.6-5.9-7.97-10.17-10.191-13.143c2.495-3.262,4.268-5.041,8.784-7.572c-1.132-1.633-8.918-7.926-14.929-6.621
				C38.958,126.494,39.283,125.1,41.624,122.671z"/>
			<path fill="#3E6735" d="M78.594,122.671c3.037,1.859,4.356,6.248,4.781,9.672c-6.014-1.305-12.705,2.277-13.84,3.906
				c4.518,2.533,5.795,4.885,8.291,8.146c-2.139,2.861-6.658,7.107-10.678,12.67c-0.534,0.062-1.071,0.117-1.611,0.168
				c3.606-5.887,7.984-10.152,10.203-13.123c-2.494-3.262-4.27-5.041-8.787-7.572c1.133-1.633,8.922-7.926,14.932-6.621
				C81.264,126.494,80.936,125.1,78.594,122.671z"/>
			<path fill="#3E6735" d="M59.877,157.49c-0.068-6.766,0.035-15.156,0.441-19.93c-1.45,5.209-1.592,13.387-1.206,19.92
				C59.365,157.481,59.619,157.49,59.877,157.49z"/>
		</g>
	</g>
	<g>
		<circle fill="#FFCD63" cx="690.918" cy="93.571" r="60"/>
		<path fill="#FFFFFF" d="M668.49,131.717c-4.045,2.628-6.47,7.32-8.708,13.152c9.076,5.521,19.733,8.702,31.136,8.702
			c11.41,0,22.077-3.187,31.158-8.718c-2.229-5.862-4.646-10.573-8.744-13.137c-10.233-6.413-16.396-7.945-22.438-8.03
			C684.711,123.606,678.656,125.116,668.49,131.717z"/>
		<path fill="#FFDDB8" d="M682.434,99.116h16.958v24.53c0,8.278-16.958,9.231-16.958,0V99.116z"/>
		<polygon fill="#E7C5A0" points="699.392,116.556 699.392,113.422 682.434,113.422 682.434,124.967 		"/>
		<path fill="#FFDDB8" d="M690.912,69.967c35.914,0,21.355,47.439,0,47.439C669.558,117.406,654.996,69.967,690.912,69.967z"/>
		<path fill="#7E6055" d="M700.939,73.226c6.689,1.88,8.176,11.427,9.521,16.449c1.946,7.299,0.85,6.67,3.448,1.111
			c2.604-5.56-3.771-29.532-22.396-29.532s-26.252,18.443-23.647,28.52c2.605,10.075,2.605,7.683,4.234,0.037
			c1.62-7.61,4.448-14.746,8.342-16.253c3.068-1.192,7.256,0.958,10.713,0.81C694.64,74.215,697.77,72.334,700.939,73.226z"/>
		<g>
			<path fill="#FFDDB8" d="M713.988,86.292c1.309,0.289,1.821,2.979,1.146,6.004c-0.672,3.028-2.277,5.248-3.585,4.957
				c-1.312-0.293-1.822-2.98-1.147-6.008C711.076,88.216,712.683,86,713.988,86.292z"/>
			<path fill="#F6D6B2" d="M667.855,86.292c-1.307,0.289-1.822,2.979-1.146,6.004c0.68,3.028,2.279,5.248,3.593,4.957
				c1.309-0.293,1.813-2.98,1.146-6.008C670.768,88.216,669.162,86,667.855,86.292z"/>
		</g>
		<path fill="#E6625F" d="M689.055,138.606l-1.062,14.892c0.971,0.047,1.943,0.074,2.923,0.074c0.974,0,1.936-0.025,2.89-0.071
			l-1.062-14.895l5.992-14.35c-5.607-0.099-10.096-0.088-15.666,0L689.055,138.606z"/>
		<polygon fill="#BCC2D6" points="682.699,119.119 676.178,127.421 679.892,137.173 690.985,124.186 		"/>
		<polygon fill="#FFFFFF" points="682.699,119.119 676.178,127.421 680.233,134.996 690.985,124.186 		"/>
		<polygon fill="#E1E6F4" points="699.654,119.119 706.176,127.421 702.463,137.173 691.368,124.186 		"/>
		<polygon fill="#FFFFFF" points="699.654,119.119 706.176,127.421 702.12,134.996 691.368,124.186 		"/>
	</g>
	<g>
		<path fill="#B7D7F1" d="M288.739,154.319c-33.134,0-59.999-26.866-59.999-60c0-33.14,26.865-60,59.999-60
			c33.14,0,60.001,26.86,60.001,60C348.74,127.454,321.879,154.319,288.739,154.319z"/>
		<path fill="#FFDDB8" d="M280.249,101.874h16.957v26.313c0,8.281-16.957,9.232-16.957,0V101.874z"/>
		<path fill="#52C4CA" d="M266.308,132.429c-4.061,2.632-6.479,7.335-8.722,13.18c9.077,5.526,19.739,8.711,31.146,8.711
			c11.412,0,22.08-3.188,31.166-8.721c-2.235-5.879-4.652-10.601-8.759-13.17c-10.234-6.41-16.489-7.431-22.53-7.51
			C282.435,124.832,276.473,125.833,266.308,132.429z"/>
		<polygon fill="#E7C5A0" points="297.206,117.274 297.206,114.14 280.249,114.14 280.249,125.682 		"/>
		<path fill="#FFDDB8" d="M288.73,70.681c35.913,0,21.353,47.442,0,47.442C267.372,118.124,252.817,70.681,288.73,70.681z"/>
		<path fill="#FFFFFF" d="M286.895,139.354l-1.062,14.893c0.962,0.05,1.936,0.074,2.899,0.074c0.973,0,1.939-0.024,2.902-0.074
			l-1.062-14.893l5.985-14.35c-5.605-0.099-10.096-0.088-15.665,0L286.895,139.354z"/>
		<polygon fill="#346767" points="280.249,119.91 273.731,128.21 277.44,137.962 288.534,124.979 		"/>
		<polygon fill="#52C4CA" points="280.249,119.91 273.731,128.21 277.782,135.784 288.534,124.979 		"/>
		<polygon fill="#346767" points="297.206,119.91 303.729,128.21 300.015,137.962 288.92,124.979 		"/>
		<polygon fill="#52C4CA" points="297.206,119.91 303.729,128.21 299.673,135.784 288.92,124.979 		"/>
		<path fill="#AE4A48" d="M306.438,85.433c-0.073-3.931-3.373-8.139-5.771-9.336c-2.396-1.196-14.502,0.298-20.751,4.273
			c-6.757,4.302-8.002,7.562-8.451,11.42c-0.141,1.211-0.468,2.436-1.116,2.197c-2.072-0.752-2.481-4.335-4.237-5.391
			c-2.566-1.539-1.396-6.195-0.368-10.127c1.025-3.936,6.719-14.673,22.319-15.098c7.771-0.209,10.938,4.482,13.308,4.956
			c7.113,1.431,11.562,14.575,9.479,20.532c-0.938,2.686-2.315,4.64-4.238,4.076C305.723,92.686,306.482,87.713,306.438,85.433z"/>
		<path fill="#FFDDB8" d="M311.796,87.006c1.312,0.292,1.82,2.978,1.148,6.004c-0.676,3.028-2.28,5.245-3.589,4.957
			c-1.311-0.292-1.821-2.984-1.149-6.006C308.882,88.933,310.486,86.712,311.796,87.006z"/>
		<path fill="#F6D6B2" d="M265.665,87.006c-1.31,0.292-1.824,2.978-1.146,6.004c0.675,3.028,2.272,5.245,3.583,4.957
			c1.31-0.292,1.813-2.984,1.146-6.006C268.573,88.933,266.972,86.712,265.665,87.006z"/>
	</g>
	<g>
		<circle fill="#FFCD63" cx="462.775" cy="96.114" r="60"/>
		<path fill="#7E6055" d="M481.19,90.844c-5.737,3.396-1.749,10.2,0.72,6.291c2.402,3.678-4.02,14.921-15.634,6.046
			C454.666,94.306,471.605,76.724,481.19,90.844z"/>
		<path fill="#7E6055" d="M444.448,90.377c5.737,3.396,1.749,10.201-0.72,6.291c-2.402,3.677,4.02,14.92,15.634,6.045
			C470.976,93.838,454.033,76.256,444.448,90.377z"/>
		<path fill="#7E6055" d="M446.273,98.509c4.812,4.607-0.606,10.333-2.125,5.965c-3.172,3.039,0.536,15.444,13.854,9.429
			C471.325,107.888,458.806,86.925,446.273,98.509z"/>
		<path fill="#7E6055" d="M479.345,98.509c-4.818,4.607,0.604,10.333,2.125,5.965c3.172,3.039-0.539,15.444-13.858,9.429
			C454.29,107.888,466.813,86.925,479.345,98.509z"/>
		<path fill="#F16030" d="M440.345,123.502c-5.909,3.838-8.357,12.086-11.826,21.854c9.719,6.779,21.536,10.758,34.283,10.758
			c12.726,0,24.521-3.966,34.229-10.725c-3.461-9.813-5.868-18.141-11.851-21.887c-10.24-6.411-16.4-7.946-22.443-8.027
			C456.566,115.391,450.511,116.904,440.345,123.502z"/>
		<path fill="#FFDDB8" d="M454.287,92.945h16.957v24.529c0,8.278-16.957,9.23-16.957,0V92.945z"/>
		<polygon fill="#E7C5A0" points="471.244,108.344 471.244,105.209 454.287,105.209 454.287,116.752 		"/>
		<path fill="#FFDDB8" d="M462.764,61.752c35.917,0,21.354,47.44,0,47.44C441.411,109.194,426.85,61.752,462.764,61.752z"/>
		<path fill="#FFDDB8" d="M462.775,139.072c0-3.111-8.381-14.314-8.381-20.361h16.762
			C471.156,124.756,462.775,135.959,462.775,139.072z"/>
		<path fill="#FFFFFF" d="M462.758,139.792c-5.312-7.896-11.108-10.464-14.663-10.472c0.75-3.522,2.678-7.399,4.051-8.896
			c-5.712,0.05-7.498,1.218-9.955,3.013c0.745-4.53,7.452-9.887,12.104-11.793c0,3.338-0.347,9.733,2.934,14.024
			C460.498,129.958,462.758,133.115,462.758,139.792z"/>
		<path fill="#FFFFFF" d="M462.758,139.792c5.314-7.896,11.115-10.464,14.66-10.472c-0.749-3.522-2.67-7.399-4.04-8.896
			c5.711,0.05,7.494,1.218,9.952,3.013c-0.746-4.53-7.451-9.887-12.101-11.793c0,3.338,0.344,9.733-2.938,14.024
			C465.02,129.958,462.758,133.115,462.758,139.792z"/>
		<path fill="#7E6055" d="M462.157,67.453c12.046,0,17.876,7.911,18.261,14.01c0.395,6.097,2.52,6.67,5.116,1.11
			c2.605-5.559-3.775-29.532-22.4-29.532c-18.624,0-26.25,18.441-23.646,28.518c2.603,10.076,5.833,4.364,5.707,0.04
			C445.069,77.274,448.81,67.798,462.157,67.453z"/>
		<g>
			
				<ellipse transform="matrix(0.9761 0.2173 -0.2173 0.9761 29.7305 -103.3052)" fill="#FFDDB8" cx="484.699" cy="83.562" rx="2.425" ry="5.615"/>
			
				<ellipse transform="matrix(0.9761 -0.2173 0.2173 0.9761 -7.6003 97.8367)" fill="#F6D6B2" cx="440.962" cy="83.469" rx="2.425" ry="5.615"/>
		</g>
		<path fill="#7E6055" d="M447.55,63.094c-1.156,7.123,12.445,17.244,28.104,17.927C477.071,62.509,459.805,56.207,447.55,63.094z"
			/>
		<path fill="#FFFFFF" d="M462.58,156.096c-0.062-6.765,0.032-15.155,0.44-19.929c-1.449,5.209-1.592,13.387-1.207,19.918
			C462.067,156.089,462.323,156.094,462.58,156.096z"/>
	</g>
	<g>
		<circle fill="#FFD780" cx="576.604" cy="59.001" r="60.001"/>
		<path fill="#7E6055" d="M554.913,41.561c-3.396,4.312-10.217,29.886-0.551,44.618c1.986,3.028,4.598,5.453,7.495,7.324
			c4.719,0.82,9.658,1.258,14.747,1.258c4.185,0,8.269-0.295,12.212-0.856c0.089-0.3,0.145-0.614,0.166-0.94
			C589.504,84.52,561.445,38.147,554.913,41.561z"/>
		<path fill="#7E6055" d="M597.365,41.548c3.396,4.311,9.729,28.315,0.062,43.048c-2.775,4.229-6.74,7.417-10.997,9.612
			c-3.197,0.363-6.479,0.554-9.826,0.554c-4.588,0-9.062-0.355-13.354-1.027c-0.062-0.245-0.103-0.502-0.112-0.77
			C562.615,84.52,590.834,38.134,597.365,41.548z"/>
		<path fill="#F16030" d="M554.172,97.115c-4.051,2.63-6.476,7.333-8.718,13.176c9.081,5.527,19.743,8.711,31.15,8.711
			c11.413,0,22.082-3.188,31.164-8.72c-2.231-5.878-4.653-10.599-8.755-13.167c-10.238-6.412-16.4-7.948-22.442-8.029
			C570.393,89.001,564.338,90.514,554.172,97.115z"/>
		<path fill="#FFDDB8" d="M568.113,66.555h16.96v24.528c0,8.28-16.96,9.231-16.96,0V66.555z"/>
		<polygon fill="#E7C5A0" points="585.071,81.955 585.071,78.819 568.113,78.819 568.113,90.363 		"/>
		<path fill="#FFDDB8" d="M576.594,35.364c35.908,0,21.354,47.44,0,47.44C555.238,82.805,540.678,35.364,576.594,35.364z"/>
		<path fill="#7E6055" d="M583.896,39.932c5.95,2.936,10.756,9.906,12.032,17.429c1.271,7.522,1.062,4.381,3.67-1.179
			c2.604-5.559-3.774-29.532-22.4-29.532s-26.251,18.443-23.648,28.521c2.605,10.075,4.15,7.294,5.778-0.35
			C560.954,47.177,567.582,38.237,583.896,39.932z"/>
		<path fill="#C48872" d="M593.424,81.27c10.449-25.091-6.009-40.772-9.666-40.957C590.807,39.061,607.445,54.666,593.424,81.27z"/>
		<path fill="#FFFFFF" d="M585.15,90.264c-0.788,8.123-8.487,15.059-8.487,21.623c0-6.582-7.737-13.521-8.489-21.687L585.15,90.264z
			"/>
		<path fill="#653614" d="M576.663,108.887c3.707-5.543,7.571-8.73,12.231-10.183c2.303-0.717,6.342-1.483,8.504-0.43
			c-4.093-4.652-8.396-6.978-12.248-11.356C585.104,99.548,576.585,101.762,576.663,108.887z"/>
		<path fill="#F16030" d="M576.663,108.887c2.772-5.903,7.067-10.884,11.729-12.337c2.304-0.717,4.475-0.551,6.638,0.503
			c-4.092-4.652-6.027-7.335-9.879-10.135C585.104,99.548,576.585,101.762,576.663,108.887z"/>
		<path fill="#653614" d="M576.663,108.887c-3.705-5.543-7.563-8.73-12.229-10.183c-2.309-0.717-6.347-1.483-8.503-0.43
			c4.092-4.652,8.396-6.978,12.248-11.356C568.222,99.548,576.743,101.762,576.663,108.887z"/>
		<path fill="#F16030" d="M576.663,108.887c-2.771-5.903-7.062-10.884-11.728-12.337c-2.311-0.717-4.479-0.551-6.645,0.503
			c4.101-4.652,6.027-7.335,9.88-10.135C568.222,99.548,576.743,101.762,576.663,108.887z"/>
		<path fill="#C48872" d="M560.899,86.159c-11.755-51.104,17.503-45.938,22.987-45.753
			C575.713,34.222,538.362,33.831,560.899,86.159z"/>
	</g>
</g>
<g>
	<g>
		
			<path fill="none" stroke="#B4B4B4" stroke-width="4" stroke-linecap="round" stroke-miterlimit="10" stroke-dasharray="3.9677,7.9355" d="
			M273.874,228.734c17.409-1.146,47.842-1.841,74.867,4.17c91.668,20.391,129.766,80.008,129.766,80.008"/>
		<g>
			<polygon fill="#B4B4B4" points="277.633,238.484 259.579,230.012 275.941,218.61 			"/>
		</g>
	</g>
</g>
</svg>
