<?xml version="1.0" encoding="utf-8"?>
<!-- Generator: Adobe Illustrator 16.0.4, SVG Export Plug-In . SVG Version: 6.00 Build 0)  -->
<!DOCTYPE svg PUBLIC "-//W3C//DTD SVG 1.1//EN" "http://www.w3.org/Graphics/SVG/1.1/DTD/svg11.dtd">
<svg version="1.1" id="Layer_1" xmlns="http://www.w3.org/2000/svg" xmlns:xlink="http://www.w3.org/1999/xlink" x="0px" y="0px"
	 width="832.85px" height="821.604px" viewBox="0 0 832.85 821.604" enable-background="new 0 0 832.85 821.604"
	 xml:space="preserve">
<g>
	<g>
		<rect x="23.323" y="403.27" fill="#333332" width="311.523" height="38.316"/>
		<rect x="4.998" y="401.604" fill="#333332" width="14.993" height="39.982"/>
		<path fill="#369C91" d="M26.654,396.606H11.661v35.656v16.129v39.773c0-0.049-0.863-0.082-1.281-0.082
			c-5.71,0-10.38,4.631-10.38,10.338v15.712c0,5.709,4.284,10.337,9.996,10.337c5.708,0,9.995-4.628,9.995-10.337v-0.826v-14.886
			v-50.173h6.664L26.654,396.606L26.654,396.606z"/>
		<g>
			<rect x="339.845" y="401.604" fill="#333332" width="14.993" height="39.982"/>
			<g>
				<rect x="334.847" y="396.606" fill="#369C91" width="14.993" height="51.643"/>
			</g>
		</g>
		<rect x="33.318" y="389.942" fill="#369C91" width="294.865" height="6.665"/>
		<rect x="38.316" y="396.606" fill="#333332" width="284.87" height="66.636"/>
		<path fill="#333332" d="M65.383,459.038c-0.178,2.673-0.28,5.359-0.28,8.069c0,65.073,52.748,117.816,117.808,117.816
			c65.064,0,117.809-52.743,117.809-117.816c0-2.71-0.099-5.393-0.278-8.069H65.383L65.383,459.038z"/>
		<path fill="#669FD5" d="M26.265,595.186v90.889c0,32.799,26.578,59.379,59.368,59.379h194.565c32.79,0,59.369-26.58,59.369-59.379
			v-90.889H26.265L26.265,595.186z"/>
		<path fill="#333332" d="M42.149,603.279v80.077c0,25.098,20.421,45.518,45.521,45.518h190.484
			c25.099,0,45.518-20.42,45.518-45.518v-80.077H42.149L42.149,603.279z"/>
		<rect x="53.309" y="328.304" fill="#EFEEEE" width="254.883" height="144.935"/>
		<path fill="#54C4CA" d="M126.594,459.038c-0.374,2.636-0.577,5.327-0.577,8.069c0,31.42,25.473,56.895,56.894,56.895
			c31.426,0,56.899-25.475,56.899-56.895c0-2.741-0.203-5.435-0.59-8.069H126.594L126.594,459.038z"/>
		<circle fill="#FFFFFF" cx="68.113" cy="626.39" r="8.386"/>
		<circle fill="#FFFFFF" cx="88.911" cy="626.39" r="8.384"/>
		<circle fill="#FFFFFF" cx="109.707" cy="626.39" r="8.386"/>
		<circle fill="#FFFFFF" cx="130.505" cy="626.39" r="8.386"/>
		<circle fill="#FFFFFF" cx="151.303" cy="626.389" r="8.387"/>
		<circle fill="#FFFFFF" cx="172.1" cy="626.39" r="8.384"/>
		<circle fill="#FFFFFF" cx="192.898" cy="626.39" r="8.386"/>
		<circle fill="#FFFFFF" cx="213.695" cy="626.39" r="8.386"/>
		<circle fill="#FFFFFF" cx="234.492" cy="626.39" r="8.386"/>
		<circle fill="#FFFFFF" cx="255.289" cy="626.39" r="8.384"/>
		<circle fill="#FFFFFF" cx="276.088" cy="626.39" r="8.384"/>
		<circle fill="#FFFFFF" cx="296.884" cy="626.39" r="8.386"/>
		<circle fill="#FFFFFF" cx="68.113" cy="667.091" r="8.386"/>
		<circle fill="#FFFFFF" cx="88.911" cy="667.091" r="8.385"/>
		<circle fill="#FFFFFF" cx="109.707" cy="667.091" r="8.386"/>
		<circle fill="#FFFFFF" cx="130.505" cy="667.091" r="8.386"/>
		<circle fill="#FFFFFF" cx="151.303" cy="667.091" r="8.388"/>
		<circle fill="#FFFFFF" cx="172.1" cy="667.091" r="8.385"/>
		<circle fill="#FFFFFF" cx="192.898" cy="667.091" r="8.386"/>
		<circle fill="#FFFFFF" cx="213.695" cy="667.091" r="8.386"/>
		<circle fill="#FFFFFF" cx="234.492" cy="667.091" r="8.386"/>
		<circle fill="#FFFFFF" cx="255.289" cy="667.091" r="8.385"/>
		<circle fill="#FFFFFF" cx="276.088" cy="667.091" r="8.385"/>
		<circle fill="#FFFFFF" cx="296.884" cy="667.091" r="8.386"/>
		<path fill="#FFFFFF" d="M86.899,646.515c0,4.634-3.756,8.391-8.388,8.391c-4.629,0-8.387-3.757-8.387-8.391
			c0-4.616,3.757-8.373,8.387-8.373C83.143,638.13,86.899,641.886,86.899,646.515z"/>
		<path fill="#FFFFFF" d="M107.694,646.515c0,4.634-3.753,8.391-8.387,8.391c-4.631,0-8.384-3.757-8.384-8.391
			c0-4.616,3.753-8.373,8.384-8.373C103.941,638.13,107.694,641.886,107.694,646.515z"/>
		<path fill="#FFFFFF" d="M128.493,646.515c0,4.634-3.753,8.391-8.386,8.391c-4.631,0-8.386-3.757-8.386-8.391
			c0-4.616,3.755-8.373,8.386-8.373C124.74,638.13,128.493,641.886,128.493,646.515z"/>
		<path fill="#FFFFFF" d="M149.291,646.515c0,4.634-3.757,8.391-8.388,8.391c-4.633,0-8.386-3.757-8.386-8.391
			c0-4.616,3.753-8.373,8.386-8.373C145.533,638.13,149.291,641.886,149.291,646.515z"/>
		<path fill="#FFFFFF" d="M170.089,646.515c0,4.634-3.754,8.391-8.385,8.391s-8.389-3.757-8.389-8.391
			c0-4.616,3.758-8.373,8.389-8.373C166.334,638.13,170.089,641.886,170.089,646.515z"/>
		<path fill="#FFFFFF" d="M190.886,646.515c0,4.634-3.755,8.391-8.39,8.391c-4.627,0-8.384-3.757-8.384-8.391
			c0-4.616,3.756-8.373,8.384-8.373C187.131,638.13,190.886,641.886,190.886,646.515z"/>
		<path fill="#FFFFFF" d="M211.681,646.515c0,4.634-3.751,8.391-8.385,8.391c-4.632,0-8.385-3.757-8.385-8.391
			c0-4.616,3.753-8.373,8.385-8.373C207.929,638.13,211.681,641.886,211.681,646.515z"/>
		<path fill="#FFFFFF" d="M232.479,646.515c0,4.634-3.752,8.391-8.385,8.391c-4.625,0-8.378-3.757-8.378-8.391
			c0-4.616,3.753-8.373,8.378-8.373C228.727,638.132,232.479,641.886,232.479,646.515z"/>
		<path fill="#FFFFFF" d="M253.276,646.515c0,4.634-3.753,8.391-8.385,8.391c-4.631,0-8.385-3.757-8.385-8.391
			c0-4.616,3.753-8.373,8.385-8.373C249.523,638.138,253.276,641.886,253.276,646.515z"/>
		<path fill="#FFFFFF" d="M274.077,646.515c0,4.634-3.763,8.391-8.386,8.391c-4.63,0-8.385-3.757-8.385-8.391
			c0-4.616,3.755-8.373,8.385-8.373C270.321,638.13,274.077,641.886,274.077,646.515z"/>
		<path fill="#FFFFFF" d="M294.872,646.515c0,4.634-3.755,8.391-8.385,8.391c-4.625,0-8.376-3.757-8.376-8.391
			c0-4.616,3.751-8.373,8.376-8.373C291.117,638.13,294.872,641.886,294.872,646.515z"/>
		<circle fill="#FFFFFF" cx="88.911" cy="687.439" r="8.385"/>
		<circle fill="#FFFFFF" cx="109.707" cy="687.44" r="8.386"/>
		<circle fill="#FFFFFF" cx="130.505" cy="687.44" r="8.386"/>
		<circle fill="#FFFFFF" cx="151.303" cy="687.44" r="8.388"/>
		<circle fill="#FFFFFF" cx="172.1" cy="687.439" r="8.385"/>
		<circle fill="#FFFFFF" cx="192.898" cy="687.44" r="8.386"/>
		<circle fill="#FFFFFF" cx="213.695" cy="687.44" r="8.386"/>
		<circle fill="#FFFFFF" cx="234.492" cy="687.44" r="8.386"/>
		<circle fill="#FFFFFF" cx="255.289" cy="687.439" r="8.385"/>
		<circle fill="#FFFFFF" cx="276.088" cy="687.439" r="8.385"/>
		<path fill="#FFFFFF" d="M281.538,709.57c0,4.725-3.832,8.556-8.558,8.556H88.521c-4.727,0-8.558-3.831-8.558-8.556v-1.217
			c0-4.724,3.832-8.556,8.558-8.556h184.461c4.726,0,8.557,3.832,8.557,8.556L281.538,709.57L281.538,709.57z"/>
		<g>
			<circle fill="#FFFFFF" cx="64.759" cy="690.46" r="11.407"/>
			<circle fill="#FFFFFF" cx="300.239" cy="690.46" r="11.405"/>
		</g>
		<path fill="#669FD5" d="M324.812,436.588h-48.088c-11.126,0-21.834,11.717-21.834,22.831v5.232
			c0,11.113,10.718,20.248,21.834,20.248h22.564c-8.44,56.641-57.493,100.441-116.727,100.441
			c-59.261,0-108.314-43.802-116.736-100.441h21.793c11.115,0,19.006-9.135,19.006-20.248v-5.232
			c0-11.114-7.891-22.831-19.006-22.831H39.524c-10.698,0-21.192,10.962-21.192,21.66V588.57c0,10.697,10.492,19.606,21.192,19.606
			h285.292c10.702,0,20.025-8.909,20.025-19.606V458.248C344.842,447.55,335.511,436.588,324.812,436.588z"/>
		<rect x="118.279" y="448.249" fill="#54C4CA" width="129.94" height="24.988"/>
		
			<rect x="189.341" y="562.227" transform="matrix(0.9962 -0.0868 0.0868 0.9962 -48.6327 18.7662)" fill="#FFFFFF" width="4.162" height="12.481"/>
		<polygon fill="#FFFFFF" points="184.103,574.612 179.938,574.321 179.929,561.53 184.089,561.53 		"/>
		
			<rect x="198.29" y="561.065" transform="matrix(0.9847 -0.1743 0.1743 0.9847 -95.8369 43.6211)" fill="#FFFFFF" width="4.162" height="12.492"/>
		
			<rect x="207.232" y="559.015" transform="matrix(0.9659 -0.259 0.259 0.9659 -139.2398 73.4866)" fill="#FFFFFF" width="4.167" height="12.49"/>
		
			<rect x="215.862" y="556.375" transform="matrix(0.9397 -0.3421 0.3421 0.9397 -179.3227 108.5056)" fill="#FFFFFF" width="4.165" height="12.491"/>
		
			<rect x="224.381" y="552.801" transform="matrix(0.9062 -0.4227 0.4227 0.9062 -215.1032 148.1467)" fill="#FFFFFF" width="4.163" height="12.493"/>
		
			<rect x="232.419" y="548.467" transform="matrix(0.8658 -0.5004 0.5004 0.8658 -246.0965 191.7765)" fill="#FFFFFF" width="4.165" height="12.492"/>
		
			<rect x="240.137" y="543.557" transform="matrix(0.8192 -0.5735 0.5735 0.8192 -271.5354 238.3403)" fill="#FFFFFF" width="4.166" height="12.492"/>
		
			<rect x="247.343" y="538.062" transform="matrix(0.7662 -0.6426 0.6426 0.7662 -291.4702 287.5655)" fill="#FFFFFF" width="4.162" height="12.492"/>
		
			<rect x="254.077" y="531.805" transform="matrix(0.7067 -0.7075 0.7075 0.7067 -305.5464 339.0484)" fill="#FFFFFF" width="4.164" height="12.488"/>
		
			<rect x="260.232" y="525.007" transform="matrix(0.6424 -0.7664 0.7664 0.6424 -313.3368 391.0237)" fill="#FFFFFF" width="4.162" height="12.49"/>
		
			<rect x="265.788" y="517.732" transform="matrix(0.5725 -0.8199 0.8199 0.5725 -315.0994 443.6271)" fill="#FFFFFF" width="4.16" height="12.494"/>
		
			<rect x="270.65" y="510.087" transform="matrix(0.4989 -0.8667 0.8667 0.4989 -310.8209 495.1081)" fill="#FFFFFF" width="4.164" height="12.495"/>
		
			<rect x="274.936" y="501.98" transform="matrix(0.4216 -0.9068 0.9068 0.4216 -300.6215 545.1471)" fill="#FFFFFF" width="4.164" height="12.489"/>
		
			<rect x="278.444" y="493.512" transform="matrix(0.342 -0.9397 0.9397 0.342 -285.0327 592.4619)" fill="#FFFFFF" width="4.162" height="12.487"/>
		
			<rect x="171.028" y="562.299" transform="matrix(-0.9963 -0.0863 0.0863 -0.9963 296.4919 1149.9093)" fill="#FFFFFF" width="4.163" height="12.49"/>
		
			<rect x="161.959" y="561.052" transform="matrix(-0.9847 -0.1742 0.1742 -0.9847 226.7402 1154.4983)" fill="#FFFFFF" width="4.165" height="12.49"/>
		
			<rect x="153.035" y="559.039" transform="matrix(-0.9657 -0.2598 0.2598 -0.9657 158.0697 1151.4631)" fill="#FFFFFF" width="4.165" height="12.495"/>
		
			<rect x="144.259" y="556.271" transform="matrix(-0.9396 -0.3423 0.3423 -0.9396 91.3201 1141.1479)" fill="#FFFFFF" width="4.163" height="12.493"/>
		
			<rect x="135.83" y="552.72" transform="matrix(-0.9063 -0.4227 0.4227 -0.9063 26.6437 1123.843)" fill="#FFFFFF" width="4.166" height="12.496"/>
		
			<rect x="127.764" y="548.577" transform="matrix(-0.8658 -0.5004 0.5004 -0.8658 -35.3509 1100.165)" fill="#FFFFFF" width="4.165" height="12.492"/>
		
			<rect x="120.114" y="543.577" transform="matrix(-0.8187 -0.5742 0.5742 -0.8187 -93.4929 1070.1198)" fill="#FFFFFF" width="4.165" height="12.486"/>
		
			<rect x="112.77" y="537.991" transform="matrix(-0.766 -0.6428 0.6428 -0.766 -147.0235 1034.9543)" fill="#FFFFFF" width="4.158" height="12.489"/>
		
			<rect x="106.104" y="531.827" transform="matrix(-0.7066 -0.7076 0.7076 -0.7066 -196.0929 994.844)" fill="#FFFFFF" width="4.164" height="12.49"/>
		
			<rect x="99.948" y="525.024" transform="matrix(-0.6429 -0.766 0.766 -0.6429 -239.3083 950.9583)" fill="#FFFFFF" width="4.165" height="12.484"/>
		
			<rect x="94.287" y="517.73" transform="matrix(-0.5732 -0.8194 0.8194 -0.5732 -277.7425 903.2887)" fill="#FFFFFF" width="4.163" height="12.491"/>
		
			<rect x="89.476" y="510.137" transform="matrix(-0.4994 -0.8664 0.8664 -0.4994 -310.1097 853.5724)" fill="#FFFFFF" width="4.161" height="12.49"/>
		
			<rect x="85.328" y="501.977" transform="matrix(-0.4226 -0.9063 0.9063 -0.4226 -336.2628 802.2169)" fill="#FFFFFF" width="4.156" height="12.488"/>
		
			<rect x="81.826" y="493.472" transform="matrix(-0.3419 -0.9397 0.9397 -0.3419 -357.0038 749.4321)" fill="#FFFFFF" width="4.16" height="12.492"/>
		<polygon fill="#369C91" points="185.674,434.216 185.674,449.645 180.306,449.645 180.306,434.216 169.573,434.216 
			169.573,475.138 196.408,475.138 196.408,434.216 		"/>
		<rect x="33.318" y="416.597" fill="#369C91" width="294.865" height="8.33"/>
		<rect x="94.957" y="413.266" fill="#54C4CA" width="23.323" height="11.661"/>
		<rect x="246.554" y="413.266" fill="#54C4CA" width="19.991" height="11.661"/>
		<rect x="321.52" y="389.942" fill="#369C91" width="6.664" height="34.984"/>
		<rect x="33.318" y="389.942" fill="#369C91" width="8.329" height="34.984"/>
	</g>
	<g>
		<g>
			<path fill="#FEDBC0" d="M147.502,688.12l-0.475-0.205c-4.726-2.055-10.216,0.12-12.271,4.85l-9.909,22.854
				c-0.116,0.074-0.238,0.146-0.352,0.213c0.005-0.045,0.016-0.093,0.027-0.142l6.932-54.211c0.657-5.11-2.959-9.784-8.068-10.446
				l-0.502-0.056c-5.12-0.659-9.792,2.951-10.447,8.069l-2.882,28.983c-0.372-0.057-1.356-0.035-1.356-0.035l-1.859-39.54
				c-0.208-5.154-4.555-9.153-9.697-8.949l-0.518,0.035c-5.148,0.21-9.149,4.546-8.938,9.688l2.828,39.896l-2.091,0.104
				l-6.273-39.113c-0.833-5.099-5.625-8.541-10.709-7.712l-0.512,0.093c-5.081,0.817-8.536,5.612-7.705,10.71l7.261,39.391
				c0,0-1.905,0.269-2.38,0.656l-3.998-17.367c-0.885-3.859-4.75-6.281-8.617-5.383l-0.274,0.059
				c-3.87,0.894-6.286,4.75-5.395,8.625c0,0,8.355,36.856,9.792,49.182c1.44,12.319,14.596,26.115,29.104,24.42l27.37-3.198
				c25.432-2.979,36.835-48.642,36.835-48.642C154.463,696.225,152.229,690.173,147.502,688.12z"/>
			<polygon fill="#54C4CA" points="126.002,824.435 125.736,744.471 65.215,744.471 65.077,824.435 			"/>
		</g>
		<g>
			<path fill="#FEDBC0" d="M208.554,706.422l0.467-0.203c4.726-2.047,10.225,0.119,12.271,4.851l9.908,22.851
				c0.117,0.087,0.237,0.158,0.353,0.224c-0.005-0.046-0.016-0.103-0.028-0.141l-6.93-54.21c-0.661-5.111,2.949-9.784,8.069-10.447
				l0.502-0.066c5.12-0.65,9.791,2.961,10.448,8.067l2.879,28.993c0.379-0.062,1.357-0.034,1.357-0.034l1.85-39.541
				c0.211-5.151,4.555-9.148,9.696-8.944l0.521,0.033c5.147,0.208,9.141,4.545,8.927,9.689l-2.818,39.896l2.092,0.104l6.271-39.112
				c0.834-5.096,5.627-8.541,10.711-7.712l0.519,0.087c5.081,0.826,8.536,5.62,7.707,10.704l-7.262,39.399
				c0,0,1.91,0.266,2.387,0.643l3.991-17.357c0.886-3.855,4.755-6.281,8.617-5.383l0.273,0.049c3.872,0.895,6.286,4.755,5.396,8.637
				c0,0-8.354,36.858-9.794,49.178c-1.44,12.322-14.593,26.113-29.103,24.426l-27.376-3.195
				c-25.433-2.98-36.828-48.646-36.828-48.646C201.594,714.527,203.828,708.477,208.554,706.422z"/>
			<polygon fill="#54C4CA" points="288.319,824.435 288.226,762.773 227.708,762.773 227.529,824.435 			"/>
		</g>
	</g>
</g>
<polygon fill="#EFEEEE" points="53.647,118.875 53.647,362.842 53.647,414.449 290.766,414.449 290.766,362.842 290.766,118.875 "/>
<g>
	<g>
		<rect x="71.219" y="102.899" fill="#FFFFFF" width="237.118" height="287.903"/>
		<rect x="71.219" y="102.899" fill="#669FD5" width="237.118" height="107.283"/>
		<g>
			<rect x="94.551" y="229.229" fill="#D4D4D4" width="190.442" height="6.147"/>
			<rect x="94.551" y="249.319" fill="#D4D4D4" width="190.442" height="6.146"/>
			<rect x="94.551" y="269.411" fill="#D4D4D4" width="47.449" height="6.146"/>
		</g>
	</g>
</g>
<g>
	<path fill="#71AF43" d="M356.099,205.283c-28.013-22.745-31.283-60.765-25.542-87.48c8.118-37.742,32.219-58.688,88.499-74.171
		c63.979-17.6,125.892-29.191,193.331-38.79c50.62-7.201,106.63-8.16,152.649,9.71c24.312,9.442,39.675,24.199,47.734,41.821
		c4.403,9.619,15.908,53.403,18.339,65.562c7.98,39.938-10.834,64.79-70.596,77.917c-62.32,13.689-122.066,20.185-186.91,24.268
		c-50.681,3.19-113.432,9.722-165.104,1.123c-24.319,14.574-63.563,37.502-68.383,36.651c-7.046-1.24,15.344-56.683,15.344-56.683
		L356.099,205.283z"/>
	<g>
		<g>
			<g>
				<g>
					<g>
						<defs>
							<ellipse id="SVGID_1_" cx="447.966" cy="124.958" rx="57.965" ry="58.155"/>
						</defs>
						<clipPath id="SVGID_2_">
							<use xlink:href="#SVGID_1_"  overflow="visible"/>
						</clipPath>
						<ellipse clip-path="url(#SVGID_2_)" fill="#FFFFFF" cx="447.771" cy="124.958" rx="57.966" ry="58.155"/>
					</g>
				</g>
			</g>
		</g>
		<g>
			<g>
				<g>
					<g>
						<defs>
							<ellipse id="SVGID_3_" cx="447.966" cy="124.958" rx="57.965" ry="58.155"/>
						</defs>
						<clipPath id="SVGID_4_">
							<use xlink:href="#SVGID_3_"  overflow="visible"/>
						</clipPath>
						<g clip-path="url(#SVGID_4_)">
							<g>
								<path fill="#FFC933" d="M550.162,267.657c-8.602,6.75-26.135,0.47-36.104-1.017c-13.98-2.083-27.55-6.175-41.479-8.785
									c-6.703-1.254-13.674-3.367-20.823-2.757c-8.489,0.727-13.787-0.456-16.966-3.082c-0.793-0.657-1.453-1.403-1.998-2.233
									c-0.545-0.829-0.976-1.738-1.315-2.7c0.967-15.716,5.125-32.839-4.155-47.48c-0.494-1.255-0.966-2.471-1.445-3.672
									c-0.473-1.203-0.955-2.395-1.442-3.571c-0.391-1.198-0.734-2.352-1.059-3.5c-1.604-5.723-2.91-11.47-2.32-17.362
									c0.09-0.737,0.191-1.469,0.301-2.196c0.107-0.727,0.224-1.45,0.34-2.167c0.29-1.182,0.619-2.348,1-3.495
									c0.854-2.579,1.974-5.061,3.501-7.389c0.51-0.775,1.062-1.536,1.668-2.279c9.61-9.897,27.214-9.098,36.102,1.052
									c0.565,0.632,1.097,1.306,1.592,2.022c0.49,0.715,0.944,1.473,1.357,2.274c0.495,0.881,0.937,1.786,1.325,2.7
									s0.725,1.836,1.005,2.754c0.306,1.13,0.514,2.273,0.646,3.425c0.322,3.435-0.037,6.959-1.063,10.346
									c-0.206,1.188-0.434,2.371-0.654,3.556c-0.664,3.547-1.278,7.101-1.202,10.752c0.194,1.109,0.418,2.203,0.68,3.28
									c0.496,1.054,1.104,2.062,1.811,3.039c0.58,0.817,1.172,1.612,1.777,2.39c3.636,4.669,7.754,8.939,13.007,12.31
									c2.108,1.414,4.203,2.754,6.331,4.119c2.12,1.358,4.279,2.741,6.472,4.161c2.631,1.709,24.695,17.367,39.646,29.915
									C545.714,259.65,552.154,266.097,550.162,267.657z"/>
								<g>
									<path fill="#875A2E" d="M501.064,164.507c0.604,0.888,0.758,1.881,0.457,2.914c-0.673,2.325,2.939,3.504,3.56,1.178
										c0.636-2.394,0.137-5.023-2.363-6.031C501.661,162.139,500.382,163.505,501.064,164.507L501.064,164.507z"/>
									<path fill="#AC7438" d="M526.049,204.842c-1.431,6.721-5.317,12.79-13.311,12.095c-0.045-0.003-0.091-0.009-0.135-0.012
										l-0.005-0.001c-0.793-0.079-1.554-0.229-2.283-0.448c-3.466-1.023-6.232-3.51-8.404-6.572
										c-0.357-0.504-0.703-1.025-1.031-1.56c-1.974-3.229-3.37-6.889-4.279-10.092c-0.02-0.056-0.032-0.11-0.049-0.166
										c-0.16-0.571-0.313-1.125-0.461-1.664c-1.156-4.25-1.768-7.533,0.315-10.354l0.001-0.003
										c0.729-0.991,1.792-1.923,3.274-2.822c0.051-0.03,0.101-0.061,0.148-0.087c5.16-3.052,11.984-3.346,17.526-0.78
										c1.504,0.69,2.91,1.593,4.168,2.709c0.433,0.382,0.827,0.767,1.197,1.183c0,0,0.005,0.001,0.008,0.004
										c0.187,0.196,0.364,0.403,0.538,0.613c0.506,0.608,0.948,1.238,1.34,1.89c0.515,0.863,0.93,1.76,1.256,2.687
										c0.206,0.58,0.379,1.171,0.516,1.773c0.379,1.632,0.521,3.333,0.484,5.076c-0.015,0.863-0.074,1.733-0.17,2.615
										C526.551,202.222,526.327,203.531,526.049,204.842z"/>
									<path fill="#C58C53" d="M517.134,223.522c-5.526,9.198-13.638,8.925-21.056,4.6c-0.635-0.366-1.266-0.77-1.891-1.195
										c-2.344-1.607-4.592-3.586-6.623-5.751c-0.69-0.737-1.37-1.476-2.048-2.21c-0.418-0.457-0.833-0.908-1.247-1.364
										c-2.512-2.749-4.98-5.48-7.613-8.163c-0.437-0.443-0.879-0.884-1.321-1.325c-0.309-0.301-0.613-0.601-0.925-0.903
										c-1.716-1.657-4.209-3.664-6.385-5.85c-0.492-0.493-0.97-0.999-1.415-1.512c-1.507-1.726-2.69-3.538-3.068-5.362
										c-2.411-11.623,9.569-17.937,19.279-19.327c8.385-1.2,17.752,0.975,24.368,6.386c0.671,0.545,1.316,1.128,1.923,1.744
										c1.571,1.58,2.932,3.382,4.01,5.401c0.188,0.353,0.375,0.708,0.562,1.062c0.294,0.563,0.582,1.133,0.872,1.715
										c1.017,2.048,1.981,4.188,2.824,6.38c0.231,0.607,0.453,1.217,0.665,1.828c0.58,1.676,1.073,3.382,1.451,5.097
										c0.213,0.971,0.387,1.948,0.519,2.922C520.747,213.103,520.13,218.536,517.134,223.522z"/>
									<path opacity="0.2" fill="#FFFFFF" enable-background="new    " d="M500.707,180.535
										c-5.282-3.354-14.354-3.541-18.77-0.968c-5.162,3.009-10.033,8.284-7.379,14.688c1.398,3.373,4.311,4.845,7.659,5.142
										c6.691,0.591,19.688-1.747,22.079-9.314C505.684,185.702,503.878,182.548,500.707,180.535z"/>
								</g>
								<path fill="#F69E22" d="M439.905,168.427c0.384,2.597,2.162,3.522,4.587,4.128c2.284,0.568,4.896-0.161,6.006-2.357
									c0.993-1.964-1.072-1.559-2.216-1.354c-1.097,0.055-2.533,0.01-3.706-0.132c-1.029-0.125-2.575-0.679-3.481-1.178
									C440.516,167.216,439.816,167.823,439.905,168.427L439.905,168.427z"/>
							</g>
							<path fill="#FFC933" d="M455.707,154.751c-2.183,0.753-5.533-0.785-5.977-3.208c-0.377-2.06,2.564-5.632,3.644-7.25
								c3.662-5.5,8.271-10.304,12.666-15.211c1.589-1.773,4.812-6.585,7.134-6.61c4.069-0.043,3.032,3.873,1.906,5.995
								c-3.868,7.295-10.078,12.916-14.104,20.085C459.575,151.047,458.704,153.717,455.707,154.751z"/>
							<path fill="#FFC933" d="M439.925,149.963c-0.741,2.187-4.011,3.894-6.196,2.76c-1.859-0.963-2.881-5.478-3.5-7.322
								c-2.104-6.263-3.077-12.85-4.265-19.329c-0.43-2.341-2.26-7.836-0.855-9.688c2.459-3.244,4.919-0.024,5.906,2.165
								c3.396,7.526,4.035,15.877,7.236,23.451C439.366,144.637,440.943,146.961,439.925,149.963z"/>
							<path fill="#FFC933" d="M460.924,110.052c-3.523,10.783,3.875,27.681,16.458,27.16c10.569-0.437,21.392-7.546,18.152-18.886
								C491.709,104.926,466.921,91.706,460.924,110.052z"/>
							<path fill="#FFC933" d="M406.719,118.867c6.572,9.578,24.917,14.083,32.326,3.531c6.227-8.866,7.184-22.088-4.053-26.517
								C421.717,90.648,395.538,102.57,406.719,118.867z"/>
							<g>
								<path fill="#FFFFFF" d="M480.267,131.22c-16.131,4.094-20.938-26.166-3.884-25.03
									C489.283,107.049,494.154,127.696,480.267,131.22z"/>
								<path fill="#274E74" d="M480.98,115.996c1.347,1.446,2.506,3.083,2.877,5.065c0.484,2.614-0.193,4.433-2.264,6.092
									c-2.285,1.833-5.922,0.583-7.346-1.684c0.168,0.271-1.406-3.227-0.426-1.178c-0.106-0.204-0.229-0.398-0.365-0.583
									c0.493,0.58,0.521,0.648,0.083,0.207c-2.156-2.028-2.269-5.521-0.238-7.679C475.229,114.185,478.962,113.828,480.98,115.996
									L480.98,115.996z"/>
							</g>
							<g>
								<path fill="#FFFFFF" d="M428.154,123.192c-16.041,4.071-20.822-26.021-3.862-24.892
									C437.12,99.153,441.965,119.687,428.154,123.192z"/>
								<path fill="#274E74" d="M428.865,108.051c1.339,1.438,2.492,3.065,2.857,5.037c0.485,2.6-0.189,4.408-2.248,6.059
									c-2.271,1.823-5.89,0.58-7.307-1.675c0.169,0.269-1.396-3.208-0.422-1.172c-0.106-0.202-0.229-0.396-0.363-0.58
									c0.491,0.576,0.52,0.646,0.082,0.206c-2.145-2.017-2.254-5.49-0.236-7.637C423.145,106.251,426.857,105.895,428.865,108.051
									L428.865,108.051z"/>
							</g>
						</g>
					</g>
				</g>
			</g>
		</g>
	</g>
	<g>
		<rect x="552.051" y="93.322" fill="#E5F1D8" width="190.441" height="6.146"/>
		<rect x="552.051" y="113.412" fill="#E5F1D8" width="190.441" height="6.146"/>
		<rect x="552.051" y="134.36" fill="#E5F1D8" width="190.441" height="6.147"/>
		<rect x="552.051" y="154.449" fill="#E5F1D8" width="190.441" height="6.146"/>
	</g>
</g>
</svg>
