<?xml version="1.0" encoding="utf-8"?>
<!-- Generator: Adobe Illustrator 16.0.4, SVG Export Plug-In . SVG Version: 6.00 Build 0)  -->
<!DOCTYPE svg PUBLIC "-//W3C//DTD SVG 1.1//EN" "http://www.w3.org/Graphics/SVG/1.1/DTD/svg11.dtd">
<svg version="1.1" id="Layer_1" xmlns="http://www.w3.org/2000/svg" xmlns:xlink="http://www.w3.org/1999/xlink" x="0px" y="0px"
	 width="632.205px" height="431.599px" viewBox="195 168.401 632.205 431.599" enable-background="new 195 168.401 632.205 431.599"
	 xml:space="preserve">
<g id="Layer_3" display="none">
	<g>
		
			<circle display="inline" fill="none" stroke="#B3B3B3" stroke-width="4" stroke-linecap="round" stroke-miterlimit="10" stroke-dasharray="3.9895,7.979" cx="299.525" cy="299.525" r="249.525"/>
	</g>
	<g>
		
			<circle display="inline" fill="none" stroke="#B3B3B3" stroke-width="4" stroke-linecap="round" stroke-miterlimit="10" stroke-dasharray="3.9895,7.979" cx="899.525" cy="297.525" r="249.525"/>
	</g>
	<g display="inline">
		<g>
			
				<line fill="none" stroke="#B3B3B3" stroke-width="4" stroke-linecap="round" stroke-miterlimit="10" x1="299.5" y1="50" x2="299.5" y2="52"/>
			
				<line fill="none" stroke="#B3B3B3" stroke-width="4" stroke-linecap="round" stroke-miterlimit="10" stroke-dasharray="3.9677,7.9355" x1="299.5" y1="59.936" x2="299.5" y2="294.032"/>
			
				<line fill="none" stroke="#B3B3B3" stroke-width="4" stroke-linecap="round" stroke-miterlimit="10" x1="299.5" y1="298" x2="299.5" y2="300"/>
		</g>
	</g>
	<g display="inline">
		<g>
			
				<line fill="none" stroke="#B3B3B3" stroke-width="4" stroke-linecap="round" stroke-miterlimit="10" x1="471.859" y1="119.073" x2="470.48" y2="120.521"/>
			
				<line fill="none" stroke="#B3B3B3" stroke-width="4" stroke-linecap="round" stroke-miterlimit="10" stroke-dasharray="3.9659,7.9318" x1="465.009" y1="126.264" x2="303.615" y2="295.681"/>
			
				<line fill="none" stroke="#B3B3B3" stroke-width="4" stroke-linecap="round" stroke-miterlimit="10" x1="300.879" y1="298.552" x2="299.5" y2="300"/>
		</g>
	</g>
	<g display="inline">
		<g>
			
				<line fill="none" stroke="#B3B3B3" stroke-width="4" stroke-linecap="round" stroke-miterlimit="10" x1="127.19" y1="119.073" x2="128.569" y2="120.521"/>
			
				<line fill="none" stroke="#B3B3B3" stroke-width="4" stroke-linecap="round" stroke-miterlimit="10" stroke-dasharray="3.9653,7.9307" x1="134.039" y1="126.265" x2="295.386" y2="295.68"/>
			
				<line fill="none" stroke="#B3B3B3" stroke-width="4" stroke-linecap="round" stroke-miterlimit="10" x1="298.121" y1="298.552" x2="299.5" y2="300"/>
		</g>
	</g>
	<g display="inline">
		<g>
			
				<line fill="none" stroke="#B3B3B3" stroke-width="4" stroke-linecap="round" stroke-miterlimit="10" x1="898.5" y1="50" x2="898.5" y2="52"/>
			
				<line fill="none" stroke="#B3B3B3" stroke-width="4" stroke-linecap="round" stroke-miterlimit="10" stroke-dasharray="3.9677,7.9355" x1="898.5" y1="59.936" x2="898.5" y2="294.032"/>
			
				<line fill="none" stroke="#B3B3B3" stroke-width="4" stroke-linecap="round" stroke-miterlimit="10" x1="898.5" y1="298" x2="898.5" y2="300"/>
		</g>
	</g>
	<g display="inline">
		<g>
			
				<line fill="none" stroke="#B3B3B3" stroke-width="4" stroke-linecap="round" stroke-miterlimit="10" x1="1070.859" y1="119.073" x2="1069.479" y2="120.521"/>
			
				<line fill="none" stroke="#B3B3B3" stroke-width="4" stroke-linecap="round" stroke-miterlimit="10" stroke-dasharray="3.9659,7.9318" x1="1064.009" y1="126.264" x2="902.615" y2="295.681"/>
			
				<line fill="none" stroke="#B3B3B3" stroke-width="4" stroke-linecap="round" stroke-miterlimit="10" x1="899.88" y1="298.552" x2="898.5" y2="300"/>
		</g>
	</g>
	<g display="inline">
		<g>
			
				<line fill="none" stroke="#B3B3B3" stroke-width="4" stroke-linecap="round" stroke-miterlimit="10" x1="726.19" y1="119.073" x2="727.569" y2="120.521"/>
			
				<line fill="none" stroke="#B3B3B3" stroke-width="4" stroke-linecap="round" stroke-miterlimit="10" stroke-dasharray="3.9653,7.9306" x1="733.039" y1="126.265" x2="894.386" y2="295.68"/>
			
				<line fill="none" stroke="#B3B3B3" stroke-width="4" stroke-linecap="round" stroke-miterlimit="10" x1="897.121" y1="298.552" x2="898.5" y2="300"/>
		</g>
	</g>
	<g display="inline">
		<g>
			
				<line fill="none" stroke="#B3B3B3" stroke-width="4" stroke-linecap="round" stroke-miterlimit="10" x1="299" y1="438.5" x2="301" y2="438.5"/>
			
				<line fill="none" stroke="#B3B3B3" stroke-width="4" stroke-linecap="round" stroke-miterlimit="10" stroke-dasharray="4,8" x1="309" y1="438.5" x2="893" y2="438.5"/>
			
				<line fill="none" stroke="#B3B3B3" stroke-width="4" stroke-linecap="round" stroke-miterlimit="10" x1="897" y1="438.5" x2="899" y2="438.5"/>
		</g>
	</g>
</g>
<g id="Layer_1_1_">
	<g>
		<g>
			<rect x="209" y="348" fill="#323232" width="187" height="23"/>
			<rect x="198" y="347" fill="#323232" width="9" height="24"/>
			<path fill="#369C91" d="M211,344h-9v21.404v9.682v23.875c0-0.029-0.518-0.049-0.769-0.049c-3.428,0-6.231,2.779-6.231,6.205
				v9.432c0,3.427,2.572,6.205,6,6.205c3.427,0,6-2.778,6-6.205v-0.496v-8.936V375h4V344z"/>
			<g>
				<rect x="399" y="347" fill="#323232" width="9" height="24"/>
				<g>
					<rect x="396" y="344" fill="#369C91" width="9" height="31"/>
				</g>
			</g>
			<rect x="215" y="340" fill="#369C91" width="177" height="4"/>
			<rect x="218" y="344" fill="#323232" width="171" height="40"/>
			<path fill="#323232" d="M234.248,381.477c-0.107,1.604-0.168,3.217-0.168,4.844c0,39.062,31.663,70.723,70.717,70.723
				c39.057,0,70.718-31.66,70.718-70.723c0-1.627-0.06-3.236-0.167-4.844H234.248L234.248,381.477z"/>
			<path fill="#669FD5" d="M210.766,463.202v54.558c0,19.688,15.954,35.644,35.637,35.644h116.792
				c19.683,0,35.638-15.955,35.638-35.644v-54.558H210.766L210.766,463.202z"/>
			<path fill="#323232" d="M220.301,468.061v48.068c0,15.065,12.258,27.323,27.325,27.323h114.343
				c15.066,0,27.323-12.258,27.323-27.323v-48.068H220.301L220.301,468.061z"/>
			<rect x="227" y="303" fill="#EEEEEE" width="153" height="87"/>
			<path fill="#54C4CA" d="M270.991,381.477c-0.224,1.582-0.346,3.197-0.346,4.844c0,18.86,15.291,34.152,34.152,34.152
				c18.864,0,34.155-15.292,34.155-34.152c0-1.646-0.122-3.262-0.354-4.844H270.991L270.991,381.477z"/>
			<circle fill="#FFFFFF" cx="235.886" cy="481.933" r="5.034"/>
			<circle fill="#FFFFFF" cx="248.371" cy="481.933" r="5.033"/>
			<circle fill="#FFFFFF" cx="260.854" cy="481.933" r="5.034"/>
			<circle fill="#FFFFFF" cx="273.339" cy="481.933" r="5.034"/>
			<circle fill="#FFFFFF" cx="285.823" cy="481.933" r="5.035"/>
			<circle fill="#FFFFFF" cx="298.307" cy="481.933" r="5.033"/>
			<circle fill="#FFFFFF" cx="310.792" cy="481.933" r="5.034"/>
			<circle fill="#FFFFFF" cx="323.275" cy="481.933" r="5.034"/>
			<circle fill="#FFFFFF" cx="335.76" cy="481.933" r="5.034"/>
			<circle fill="#FFFFFF" cx="348.243" cy="481.933" r="5.033"/>
			<circle fill="#FFFFFF" cx="360.729" cy="481.933" r="5.033"/>
			<circle fill="#FFFFFF" cx="373.212" cy="481.933" r="5.034"/>
			<circle fill="#FFFFFF" cx="235.886" cy="506.365" r="5.034"/>
			<circle fill="#FFFFFF" cx="248.371" cy="506.365" r="5.033"/>
			<circle fill="#FFFFFF" cx="260.854" cy="506.365" r="5.034"/>
			<circle fill="#FFFFFF" cx="273.339" cy="506.365" r="5.034"/>
			<circle fill="#FFFFFF" cx="285.823" cy="506.365" r="5.035"/>
			<circle fill="#FFFFFF" cx="298.307" cy="506.365" r="5.033"/>
			<circle fill="#FFFFFF" cx="310.792" cy="506.365" r="5.034"/>
			<circle fill="#FFFFFF" cx="323.275" cy="506.365" r="5.034"/>
			<circle fill="#FFFFFF" cx="335.76" cy="506.365" r="5.034"/>
			<circle fill="#FFFFFF" cx="348.243" cy="506.365" r="5.033"/>
			<circle fill="#FFFFFF" cx="360.729" cy="506.365" r="5.033"/>
			<circle fill="#FFFFFF" cx="373.212" cy="506.365" r="5.034"/>
			<path fill="#FFFFFF" d="M247.163,494.014c0,2.781-2.255,5.036-5.035,5.036c-2.779,0-5.034-2.255-5.034-5.036
				c0-2.771,2.255-5.026,5.034-5.026C244.908,488.98,247.163,491.235,247.163,494.014z"/>
			<path fill="#FFFFFF" d="M259.646,494.014c0,2.781-2.253,5.036-5.034,5.036c-2.78,0-5.033-2.255-5.033-5.036
				c0-2.771,2.253-5.026,5.033-5.026C257.393,488.98,259.646,491.235,259.646,494.014z"/>
			<path fill="#FFFFFF" d="M272.131,494.014c0,2.781-2.253,5.036-5.034,5.036c-2.78,0-5.034-2.255-5.034-5.036
				c0-2.771,2.254-5.026,5.034-5.026C269.878,488.98,272.131,491.235,272.131,494.014z"/>
			<path fill="#FFFFFF" d="M284.615,494.014c0,2.781-2.255,5.036-5.035,5.036c-2.781,0-5.034-2.255-5.034-5.036
				c0-2.771,2.253-5.026,5.034-5.026C282.36,488.98,284.615,491.235,284.615,494.014z"/>
			<path fill="#FFFFFF" d="M297.1,494.014c0,2.781-2.254,5.036-5.033,5.036c-2.78,0-5.036-2.255-5.036-5.036
				c0-2.771,2.256-5.026,5.036-5.026C294.846,488.98,297.1,491.235,297.1,494.014z"/>
			<path fill="#FFFFFF" d="M309.584,494.014c0,2.781-2.254,5.036-5.036,5.036c-2.778,0-5.033-2.255-5.033-5.036
				c0-2.771,2.255-5.026,5.033-5.026C307.33,488.98,309.584,491.235,309.584,494.014z"/>
			<path fill="#FFFFFF" d="M322.066,494.014c0,2.781-2.252,5.036-5.033,5.036c-2.78,0-5.033-2.255-5.033-5.036
				c0-2.771,2.253-5.026,5.033-5.026C319.814,488.98,322.066,491.235,322.066,494.014z"/>
			<path fill="#FFFFFF" d="M334.551,494.014c0,2.781-2.252,5.036-5.033,5.036c-2.776,0-5.029-2.255-5.029-5.036
				c0-2.771,2.253-5.026,5.029-5.026C332.299,488.981,334.551,491.235,334.551,494.014z"/>
			<path fill="#FFFFFF" d="M347.035,494.014c0,2.781-2.253,5.036-5.033,5.036s-5.033-2.255-5.033-5.036
				c0-2.771,2.253-5.026,5.033-5.026C344.782,488.985,347.035,491.235,347.035,494.014z"/>
			<path fill="#FFFFFF" d="M359.521,494.014c0,2.781-2.259,5.036-5.034,5.036c-2.779,0-5.033-2.255-5.033-5.036
				c0-2.771,2.254-5.026,5.033-5.026C357.267,488.98,359.521,491.235,359.521,494.014z"/>
			<path fill="#FFFFFF" d="M372.004,494.014c0,2.781-2.254,5.036-5.033,5.036c-2.776,0-5.028-2.255-5.028-5.036
				c0-2.771,2.252-5.026,5.028-5.026C369.75,488.98,372.004,491.235,372.004,494.014z"/>
			<circle fill="#FFFFFF" cx="248.371" cy="518.58" r="5.033"/>
			<circle fill="#FFFFFF" cx="260.854" cy="518.58" r="5.034"/>
			<circle fill="#FFFFFF" cx="273.339" cy="518.58" r="5.034"/>
			<circle fill="#FFFFFF" cx="285.823" cy="518.58" r="5.035"/>
			<circle fill="#FFFFFF" cx="298.307" cy="518.58" r="5.033"/>
			<circle fill="#FFFFFF" cx="310.792" cy="518.58" r="5.034"/>
			<circle fill="#FFFFFF" cx="323.275" cy="518.58" r="5.034"/>
			<circle fill="#FFFFFF" cx="335.76" cy="518.58" r="5.034"/>
			<circle fill="#FFFFFF" cx="348.243" cy="518.58" r="5.033"/>
			<circle fill="#FFFFFF" cx="360.729" cy="518.58" r="5.033"/>
			<path fill="#FFFFFF" d="M364,531.864c0,2.836-2.3,5.136-5.137,5.136H248.137c-2.837,0-5.137-2.3-5.137-5.136v-0.729
				c0-2.836,2.3-5.136,5.137-5.136h110.727c2.837,0,5.137,2.3,5.137,5.136L364,531.864L364,531.864z"/>
			<g>
				<circle fill="#FFFFFF" cx="233.873" cy="520.393" r="6.847"/>
				<circle fill="#FFFFFF" cx="375.226" cy="520.393" r="6.846"/>
			</g>
			<path fill="#669FD5" d="M389.977,368H361.11c-6.679,0-13.106,7.033-13.106,13.705v3.141c0,6.672,6.434,12.154,13.106,12.154
				h13.545c-5.066,34-34.512,60.293-70.068,60.293c-35.573,0-65.018-26.293-70.074-60.293h13.082
				c6.672,0,11.409-5.482,11.409-12.154v-3.141c0-6.672-4.737-13.705-11.409-13.705h-28.87c-6.422,0-12.721,6.58-12.721,13.002
				v78.229c0,6.422,6.298,11.77,12.721,11.77h171.253c6.425,0,12.021-5.348,12.021-11.77v-78.229
				C402,374.58,396.398,368,389.977,368z"/>
			<rect x="266" y="375" fill="#54C4CA" width="78" height="15"/>
			
				<rect x="308.64" y="443.422" transform="matrix(-0.9962 0.0872 -0.0872 -0.9962 657.5719 865.6268)" fill="#FFFFFF" width="2.499" height="7.492"/>
			<polygon fill="#FFFFFF" points="305.512,450.853 303.012,450.678 303.007,443 305.504,443 			"/>
			
				<rect x="314.017" y="442.731" transform="matrix(-0.9847 0.1743 -0.1743 -0.9847 703.5435 831.1578)" fill="#FFFFFF" width="2.498" height="7.499"/>
			
				<rect x="319.411" y="441.489" transform="matrix(-0.9659 0.2589 -0.2589 -0.9659 745.6451 792.2952)" fill="#FFFFFF" width="2.501" height="7.497"/>
			
				<rect x="324.592" y="439.909" transform="matrix(-0.9397 0.3421 -0.3421 -0.9397 783.8049 749.0659)" fill="#FFFFFF" width="2.5" height="7.497"/>
			
				<rect x="329.668" y="437.75" transform="matrix(-0.9062 0.4228 -0.4228 -0.9062 817.4746 701.6732)" fill="#FFFFFF" width="2.499" height="7.5"/>
			
				<rect x="334.522" y="435.175" transform="matrix(-0.8659 0.5002 -0.5002 -0.8659 846.0634 651.0548)" fill="#FFFFFF" width="2.499" height="7.498"/>
			
				<rect x="339.138" y="432.224" transform="matrix(-0.8192 0.5736 -0.5736 -0.8192 869.2799 597.8688)" fill="#FFFFFF" width="2.501" height="7.499"/>
			
				<rect x="343.466" y="428.928" transform="matrix(-0.7662 0.6426 -0.6426 -0.7662 886.8804 542.652)" fill="#FFFFFF" width="2.498" height="7.498"/>
			
				<rect x="347.51" y="425.16" transform="matrix(-0.7067 0.7075 -0.7075 -0.7067 898.6861 485.2776)" fill="#FFFFFF" width="2.5" height="7.496"/>
			
				<rect x="351.218" y="421.083" transform="matrix(-0.6424 0.7664 -0.7664 -0.6424 904.469 427.6317)" fill="#FFFFFF" width="2.498" height="7.497"/>
			
				<rect x="354.544" y="416.709" transform="matrix(-0.5724 0.8199 -0.8199 -0.5724 904.2173 369.415)" fill="#FFFFFF" width="2.498" height="7.5"/>
			
				<rect x="357.463" y="412.124" transform="matrix(-0.4994 0.8664 -0.8664 -0.4994 898.1577 312.794)" fill="#FFFFFF" width="2.499" height="7.5"/>
			
				<rect x="360.027" y="407.26" transform="matrix(-0.4217 0.9067 -0.9067 -0.4217 886.3031 256.7538)" fill="#FFFFFF" width="2.499" height="7.497"/>
			
				<rect x="362.144" y="402.178" transform="matrix(-0.342 0.9397 -0.9397 -0.342 869.1281 203.2852)" fill="#FFFFFF" width="2.498" height="7.496"/>
			
				<rect x="297.651" y="443.453" transform="matrix(0.9963 0.0864 -0.0864 0.9963 39.7369 -24.1423)" fill="#FFFFFF" width="2.499" height="7.497"/>
			
				<rect x="292.214" y="442.717" transform="matrix(0.9847 0.1742 -0.1742 0.9847 82.2657 -44.2969)" fill="#FFFFFF" width="2.5" height="7.497"/>
			
				<rect x="286.863" y="441.492" transform="matrix(0.9657 0.2597 -0.2597 0.9657 125.5296 -59.5511)" fill="#FFFFFF" width="2.5" height="7.5"/>
			
				<rect x="281.592" y="439.852" transform="matrix(0.9396 0.3423 -0.3423 0.9396 168.9351 -70.0199)" fill="#FFFFFF" width="2.499" height="7.499"/>
			
				<rect x="276.545" y="437.703" transform="matrix(0.9063 0.4226 -0.4226 0.9063 212.5813 -76.039)" fill="#FFFFFF" width="2.5" height="7.501"/>
			
				<rect x="271.702" y="435.225" transform="matrix(0.8658 0.5004 -0.5004 0.8658 256.2835 -77.6722)" fill="#FFFFFF" width="2.5" height="7.498"/>
			
				<rect x="267.087" y="432.221" transform="matrix(0.8187 0.5742 -0.5742 0.8187 298.9763 -75.0445)" fill="#FFFFFF" width="2.5" height="7.496"/>
			
				<rect x="262.701" y="428.855" transform="matrix(0.766 0.6428 -0.6428 0.766 339.8306 -68.4521)" fill="#FFFFFF" width="2.496" height="7.497"/>
			
				<rect x="258.685" y="425.17" transform="matrix(0.7067 0.7075 -0.7075 0.7067 379.6935 -58.1086)" fill="#FFFFFF" width="2.5" height="7.497"/>
			
				<rect x="254.989" y="421.091" transform="matrix(0.6428 0.766 -0.766 0.6428 416.9728 -44.5344)" fill="#FFFFFF" width="2.5" height="7.494"/>
			
				<rect x="251.612" y="416.702" transform="matrix(0.5734 0.8193 -0.8193 0.5734 452.3591 -27.7889)" fill="#FFFFFF" width="2.499" height="7.498"/>
			
				<rect x="248.712" y="412.14" transform="matrix(0.4994 0.8663 -0.8663 0.4994 485.425 -8.3766)" fill="#FFFFFF" width="2.498" height="7.497"/>
			
				<rect x="246.217" y="407.255" transform="matrix(0.4226 0.9063 -0.9063 0.4226 515.3766 13.0274)" fill="#FFFFFF" width="2.494" height="7.496"/>
			
				<rect x="244.111" y="402.154" transform="matrix(0.342 0.9397 -0.9397 0.342 542.8828 36.5271)" fill="#FFFFFF" width="2.497" height="7.499"/>
			<polygon fill="#369C91" points="306.455,366.576 306.455,375.838 303.233,375.838 303.233,366.576 296.79,366.576 
				296.79,391.141 312.898,391.141 312.898,366.576 			"/>
			<rect x="215" y="356" fill="#369C91" width="177" height="5"/>
			<rect x="252" y="354" fill="#54C4CA" width="14" height="7"/>
			<rect x="343" y="354" fill="#54C4CA" width="12" height="7"/>
			<rect x="388" y="340" fill="#369C91" width="4" height="21"/>
			<rect x="215" y="340" fill="#369C91" width="5" height="21"/>
		</g>
		<g>
			<g>
				<path fill="#FFDCC0" d="M283.542,518.988l-0.285-0.123c-2.837-1.233-6.133,0.072-7.366,2.911l-5.948,13.718
					c-0.07,0.045-0.143,0.088-0.211,0.128c0.003-0.027,0.009-0.056,0.016-0.085l4.161-32.541c0.394-3.068-1.776-5.874-4.843-6.271
					l-0.302-0.032c-3.073-0.396-5.878,1.771-6.271,4.844l-1.73,17.397c-0.223-0.033-0.814-0.021-0.814-0.021l-1.116-23.735
					c-0.125-3.094-2.734-5.494-5.821-5.372l-0.311,0.021c-3.09,0.126-5.492,2.729-5.365,5.815l1.697,23.949l-1.255,0.062
					l-3.766-23.479c-0.5-3.06-3.376-5.127-6.428-4.629l-0.307,0.056c-3.05,0.491-5.124,3.369-4.625,6.429l4.359,23.646
					c0,0-1.144,0.16-1.429,0.394l-2.4-10.425c-0.531-2.317-2.851-3.771-5.172-3.231l-0.165,0.035
					c-2.323,0.536-3.773,2.852-3.238,5.178c0,0,5.015,22.124,5.878,29.521c0.864,7.396,8.761,15.677,17.47,14.659l16.43-1.92
					c15.266-1.788,22.111-29.198,22.111-29.198C287.72,523.854,286.379,520.221,283.542,518.988z"/>
				<polygon fill="#54C4CA" points="270.636,600.814 270.476,552.814 234.147,552.814 234.064,600.814 				"/>
			</g>
			<g>
				<path fill="#FFDCC0" d="M320.189,529.975l0.28-0.122c2.837-1.229,6.138,0.071,7.366,2.911l5.947,13.717
					c0.07,0.052,0.143,0.095,0.212,0.134c-0.003-0.027-0.01-0.062-0.017-0.084l-4.16-32.541c-0.396-3.068,1.771-5.873,4.844-6.271
					l0.302-0.04c3.073-0.391,5.877,1.777,6.271,4.843l1.729,17.404c0.228-0.037,0.814-0.021,0.814-0.021l1.11-23.735
					c0.127-3.093,2.734-5.492,5.82-5.37l0.312,0.021c3.09,0.125,5.487,2.729,5.358,5.816l-1.692,23.949l1.257,0.062l3.765-23.479
					c0.501-3.059,3.378-5.127,6.43-4.629l0.312,0.052c3.05,0.496,5.124,3.374,4.626,6.426l-4.359,23.65c0,0,1.146,0.159,1.433,0.386
					l2.396-10.42c0.532-2.314,2.854-3.771,5.173-3.23l0.164,0.028c2.324,0.537,3.773,2.854,3.239,5.185
					c0,0-5.015,22.126-5.879,29.521c-0.864,7.396-8.76,15.675-17.47,14.662l-16.434-1.919
					c-15.267-1.789-22.106-29.201-22.106-29.201C316.012,534.84,317.353,531.208,320.189,529.975z"/>
				<polygon fill="#54C4CA" points="368.07,600.814 368.015,563.801 331.688,563.801 331.58,600.814 				"/>
			</g>
		</g>
	</g>
	<g>
		<g>
			<path fill="#323232" d="M596.635,383.732l216.34-0.705c2.781-0.007,5.056,2.256,5.062,5.028l0.46,140.315
				c0.009,2.776-2.252,5.058-5.031,5.062l-216.338,0.711c-2.771,0.007-5.057-2.259-5.062-5.031L591.614,388.8
				C591.592,386.021,593.86,383.744,596.635,383.732z"/>
			<path fill="#FFFFFF" d="M794.825,403.687l6.989,0.018c0.789,0,1.438,0.654,1.438,1.444l-0.016,5.195
				c-0.006,0.798-0.651,1.438-1.448,1.438l-6.986-0.021c-0.796,0.001-1.438-0.652-1.438-1.438l0.017-5.199
				C793.382,404.333,794.035,403.679,794.825,403.687z"/>
			<path fill="#FFFFFF" d="M795.119,413.589l6.35,0.021c0.965,0,1.767,0.797,1.754,1.768l-0.017,7.035
				c-0.006,0.975-0.8,1.755-1.765,1.755l-6.355-0.019c-0.963,0.004-1.754-0.796-1.758-1.771l0.021-7.024
				C793.355,414.38,794.151,413.589,795.119,413.589z"/>
			<path fill="#FFFFFF" d="M795.086,425.982l6.344,0.013c0.979,0.003,1.767,0.8,1.767,1.771l-0.021,7.021
				c-0.004,0.979-0.803,1.771-1.768,1.766l-6.354-0.021c-0.974,0.001-1.763-0.795-1.757-1.766l0.021-7.038
				C793.314,426.767,794.112,425.979,795.086,425.982z"/>
			<path fill="#FFFFFF" d="M795.051,438.362l6.351,0.021c0.972,0,1.762,0.795,1.762,1.768l-0.021,7.035
				c-0.008,0.973-0.803,1.76-1.771,1.756l-6.342-0.014c-0.973-0.015-1.768-0.808-1.768-1.772l0.021-7.029
				C793.283,439.15,794.076,438.362,795.051,438.362z"/>
			<path fill="#FFFFFF" d="M795.021,450.749l6.34,0.021c0.971,0,1.765,0.796,1.76,1.769l-0.021,7.03
				c0,0.976-0.801,1.762-1.765,1.762l-6.346-0.016c-0.979-0.006-1.771-0.797-1.761-1.771l0.021-7.031
				C793.251,451.542,794.047,450.751,795.021,450.749z"/>
			<path fill="#FFFFFF" d="M794.981,463.143l6.345,0.014c0.971,0,1.765,0.8,1.765,1.771l-0.021,7.025
				c-0.01,0.975-0.799,1.765-1.773,1.765l-6.342-0.021c-0.975,0-1.766-0.801-1.763-1.768l0.02-7.036
				C793.212,463.926,794.014,463.14,794.981,463.143z"/>
			<path fill="#FFFFFF" d="M782.484,403.65l6.98,0.021c0.791,0.01,1.444,0.655,1.438,1.442l-0.017,5.195
				c-0.007,0.795-0.65,1.438-1.447,1.438l-6.988-0.02c-0.789,0-1.438-0.651-1.438-1.44l0.019-5.188
				C781.035,404.3,781.688,403.648,782.484,403.65z"/>
			<path fill="#FFFFFF" d="M771.498,413.527l17.505,0.047c1.044,0.003,1.88,0.854,1.88,1.896l-0.021,6.781
				c0.002,1.041-0.854,1.895-1.883,1.892l-17.513-0.048c-1.028-0.013-1.886-0.858-1.883-1.896l0.023-6.788
				C769.611,414.369,770.462,413.527,771.498,413.527z"/>
			<path fill="#FFFFFF" d="M779.501,425.934l9.465,0.033c1.04-0.011,1.88,0.851,1.884,1.885l-0.018,6.789
				c-0.006,1.034-0.854,1.884-1.896,1.877l-9.471-0.021c-1.027-0.006-1.886-0.854-1.879-1.89l0.021-6.792
				C777.613,426.781,778.469,425.936,779.501,425.934z"/>
			<path fill="#FFFFFF" d="M770.043,438.298l18.889,0.052c1.036-0.001,1.89,0.854,1.89,1.895l-0.022,6.782
				c0,1.036-0.854,1.883-1.892,1.883l-18.896-0.049c-1.038-0.007-1.88-0.861-1.874-1.896l0.021-6.777
				C768.151,439.142,769.001,438.292,770.043,438.298z"/>
			<path fill="#FFFFFF" d="M782.674,450.718l6.354,0.015c0.961,0.003,1.758,0.808,1.756,1.772l-0.021,7.03
				c-0.005,0.973-0.799,1.749-1.771,1.754l-6.342-0.021c-0.979,0.003-1.771-0.798-1.765-1.768l0.021-7.033
				C780.903,451.51,781.705,450.714,782.674,450.718z"/>
			<path fill="#FFFFFF" d="M782.643,463.105l6.343,0.017c0.977,0.001,1.771,0.797,1.766,1.771l-0.018,7.037
				c-0.011,0.966-0.806,1.757-1.771,1.754l-6.343-0.021c-0.979,0-1.77-0.797-1.768-1.77l0.021-7.031
				C780.875,463.892,781.671,463.104,782.643,463.105z"/>
			<path fill="#FFFFFF" d="M771.082,403.617l6.047,0.021c0.793,0.004,1.443,0.646,1.443,1.439l-0.021,5.193
				c-0.008,0.797-0.648,1.438-1.447,1.44l-6.038-0.021c-0.794,0-1.449-0.657-1.438-1.449l0.006-5.188
				C769.635,404.264,770.293,403.617,771.082,403.617z"/>
			<path fill="#FFFFFF" d="M759.497,403.589l6.042,0.021c0.797,0.007,1.448,0.658,1.445,1.454l-0.021,5.183
				c-0.003,0.795-0.646,1.448-1.447,1.445l-6.045-0.021c-0.791,0.007-1.438-0.646-1.438-1.438l0.012-5.199
				C758.051,404.229,758.701,403.585,759.497,403.589z"/>
			<path fill="#FFFFFF" d="M747.918,403.556l6.041,0.016c0.789,0.006,1.438,0.652,1.438,1.447l-0.021,5.189
				c0,0.787-0.646,1.438-1.449,1.438l-6.043-0.017c-0.796,0-1.438-0.651-1.436-1.451l0.013-5.19
				C746.465,404.2,747.111,403.552,747.918,403.556z"/>
			<path fill="#FFFFFF" d="M736.322,403.522l6.049,0.013c0.791,0.008,1.438,0.658,1.438,1.452l-0.018,5.189
				c0.003,0.799-0.652,1.439-1.443,1.438l-6.046-0.02c-0.796-0.003-1.438-0.656-1.438-1.449l0.012-5.188
				C734.879,404.165,735.533,403.52,736.322,403.522z"/>
			<path fill="#FFFFFF" d="M724.744,403.488l6.038,0.014c0.795,0.015,1.442,0.659,1.442,1.45l-0.021,5.194
				c-0.006,0.798-0.653,1.445-1.449,1.444l-6.045-0.021c-0.793-0.009-1.438-0.659-1.438-1.454l0.019-5.19
				C723.297,404.139,723.944,403.489,724.744,403.488z"/>
			<path fill="#FFFFFF" d="M713.155,403.461l6.04,0.02c0.795,0.002,1.438,0.649,1.438,1.438l-0.01,5.199
				c-0.006,0.794-0.657,1.438-1.449,1.438l-6.044-0.021c-0.79-0.002-1.439-0.659-1.438-1.442l0.014-5.193
				C711.707,404.104,712.359,403.456,713.155,403.461z"/>
			<path fill="#FFFFFF" d="M701.562,403.431l6.049,0.01c0.79,0.007,1.438,0.653,1.438,1.448l-0.014,5.188
				c0,0.796-0.654,1.438-1.449,1.44l-6.045-0.021c-0.791,0-1.438-0.646-1.438-1.439l0.009-5.19
				C700.117,404.072,700.77,403.421,701.562,403.431z"/>
			<path fill="#FFFFFF" d="M689.979,403.4l6.044,0.007c0.8,0.01,1.439,0.655,1.438,1.452l-0.018,5.195
				c0.003,0.79-0.652,1.438-1.442,1.433l-6.046-0.016c-0.796-0.002-1.443-0.653-1.438-1.447l0.021-5.195
				C688.535,404.036,689.184,403.392,689.979,403.4z"/>
			<path fill="#FFFFFF" d="M678.389,403.366l6.059,0.013c0.788,0.009,1.438,0.654,1.437,1.45l-0.014,5.189
				c-0.004,0.795-0.649,1.438-1.445,1.438l-6.045-0.021c-0.801,0.002-1.438-0.649-1.438-1.442l0.012-5.188
				C676.95,404.007,677.602,403.365,678.389,403.366z"/>
			<path fill="#FFFFFF" d="M666.807,403.335l6.041,0.019c0.804,0.007,1.445,0.646,1.438,1.438l-0.008,5.197
				c-0.007,0.789-0.653,1.438-1.449,1.44l-6.047-0.021c-0.791-0.005-1.438-0.657-1.438-1.452l0.02-5.185
				C665.363,403.979,666.012,403.326,666.807,403.335z"/>
			<path fill="#FFFFFF" d="M655.223,403.303l6.041,0.013c0.803,0.003,1.445,0.654,1.441,1.45l-0.014,5.188
				c-0.003,0.793-0.653,1.441-1.448,1.438l-6.048-0.021c-0.79-0.004-1.441-0.646-1.438-1.438l0.019-5.199
				C653.77,403.947,654.425,403.294,655.223,403.303z"/>
			<path fill="#FFFFFF" d="M643.632,403.265l6.047,0.018c0.792,0.006,1.444,0.654,1.438,1.447l-0.007,5.188
				c-0.003,0.806-0.655,1.445-1.445,1.444l-6.048-0.016c-0.796-0.012-1.439-0.655-1.438-1.45l0.017-5.198
				C642.189,403.911,642.841,403.265,643.632,403.265z"/>
			<path fill="#FFFFFF" d="M632.051,403.232l6.043,0.021c0.793,0.011,1.447,0.657,1.44,1.445l-0.013,5.198
				c-0.004,0.793-0.656,1.433-1.456,1.432l-6.039-0.012c-0.796-0.001-1.438-0.657-1.444-1.448l0.021-5.189
				C630.604,403.884,631.256,403.236,632.051,403.232z"/>
			<path fill="#FFFFFF" d="M620.464,403.2l6.042,0.021c0.796,0.005,1.439,0.646,1.438,1.441l-0.021,5.192
				c0.003,0.793-0.646,1.442-1.438,1.442l-6.044-0.021c-0.794-0.005-1.443-0.653-1.439-1.448l0.016-5.188
				C619.014,403.846,619.668,403.2,620.464,403.2z"/>
			<path fill="#FFFFFF" d="M607.45,403.168l6.979,0.021c0.802,0.006,1.442,0.655,1.442,1.448l-0.019,5.188
				c-0.003,0.8-0.65,1.445-1.443,1.438l-6.987-0.021c-0.796,0-1.438-0.646-1.438-1.446l0.017-5.188
				C606.004,403.815,606.65,403.166,607.45,403.168z"/>
			<path fill="#FFFFFF" d="M759.001,413.485l6.229,0.021c0.945,0.005,1.728,0.778,1.727,1.733l-0.021,7.104
				c-0.002,0.941-0.78,1.727-1.735,1.727l-6.229-0.019c-0.948-0.014-1.728-0.787-1.729-1.734l0.021-7.105
				C757.262,414.265,758.046,413.485,759.001,413.485z"/>
			<path fill="#FFFFFF" d="M746.428,413.454l6.234,0.021c0.945,0.001,1.727,0.785,1.723,1.739l-0.021,7.096
				c-0.003,0.953-0.78,1.729-1.732,1.729l-6.229-0.02c-0.948,0.002-1.729-0.787-1.729-1.734l0.022-7.102
				C744.689,414.231,745.479,413.448,746.428,413.454z"/>
			<path fill="#FFFFFF" d="M733.857,413.424l6.229,0.012c0.95,0.01,1.732,0.788,1.729,1.737l-0.021,7.099
				c-0.004,0.955-0.786,1.729-1.737,1.729l-6.228-0.02c-0.955-0.003-1.728-0.786-1.728-1.734l0.021-7.102
				C732.127,414.193,732.906,413.418,733.857,413.424z"/>
			<path fill="#FFFFFF" d="M721.283,413.388l6.234,0.018c0.94,0.002,1.729,0.782,1.727,1.736l-0.025,7.104
				c0,0.948-0.773,1.718-1.729,1.727l-6.233-0.021c-0.941,0-1.724-0.787-1.726-1.739l0.021-7.095
				C719.557,414.163,720.341,413.386,721.283,413.388z"/>
			<path fill="#FFFFFF" d="M708.715,413.354l6.232,0.016c0.951,0,1.725,0.784,1.725,1.731l-0.02,7.098
				c-0.006,0.962-0.787,1.731-1.737,1.736l-6.229-0.021c-0.942-0.004-1.726-0.774-1.726-1.729l0.022-7.104
				C706.982,414.128,707.761,413.348,708.715,413.354z"/>
			<path fill="#FFFFFF" d="M696.236,413.604l6.229,0.016c0.951,0,1.729,0.784,1.729,1.731l-0.021,7.099
				c-0.003,0.961-0.784,1.73-1.729,1.736l-6.231-0.022c-0.941-0.003-1.724-0.773-1.724-1.729l0.021-7.104
				C694.506,414.378,695.285,413.598,696.236,413.604z"/>
			<path fill="#FFFFFF" d="M683.574,413.283l6.228,0.021c0.957,0.01,1.735,0.785,1.729,1.734l-0.021,7.104
				c-0.006,0.938-0.778,1.726-1.731,1.726l-6.229-0.014c-0.955-0.009-1.729-0.786-1.729-1.741l0.02-7.098
				C681.844,414.053,682.623,413.279,683.574,413.283z"/>
			<path fill="#FFFFFF" d="M671.006,413.249l6.229,0.021c0.941,0.004,1.726,0.788,1.729,1.729l-0.021,7.104
				c-0.004,0.948-0.784,1.725-1.732,1.723l-6.229-0.012c-0.949-0.007-1.729-0.787-1.729-1.737l0.021-7.102
				C669.27,414.02,670.051,413.246,671.006,413.249z"/>
			<path fill="#FFFFFF" d="M658.436,413.211l6.225,0.021c0.953,0,1.729,0.783,1.729,1.729l-0.021,7.104
				c-0.002,0.952-0.777,1.729-1.733,1.726l-6.228-0.013c-0.954-0.01-1.729-0.791-1.729-1.742l0.021-7.098
				C656.7,413.992,657.479,413.208,658.436,413.211z"/>
			<path fill="#FFFFFF" d="M645.861,413.18l6.229,0.02c0.952,0.001,1.729,0.781,1.729,1.73l-0.021,7.104
				c-0.007,0.954-0.78,1.73-1.73,1.729l-6.233-0.021c-0.947-0.005-1.722-0.786-1.725-1.738l0.016-7.091
				C644.13,413.953,644.906,413.18,645.861,413.18z"/>
			<path fill="#FFFFFF" d="M633.293,413.147l6.229,0.015c0.952,0.004,1.728,0.781,1.721,1.732l-0.017,7.102
				c-0.01,0.953-0.78,1.729-1.731,1.729l-6.229-0.021c-0.957-0.001-1.729-0.785-1.726-1.729l0.019-7.104
				C631.557,413.917,632.339,413.137,633.293,413.147z"/>
			<path fill="#FFFFFF" d="M620.715,413.106l6.236,0.021c0.951,0.003,1.732,0.788,1.724,1.738l-0.017,7.091
				c-0.005,0.958-0.783,1.735-1.731,1.731l-6.229-0.021c-0.952,0-1.729-0.774-1.729-1.729l0.022-7.104
				C618.99,413.884,619.768,413.108,620.715,413.106z"/>
			<path fill="#FFFFFF" d="M607.741,413.073l6.344,0.021c0.966,0.002,1.764,0.803,1.758,1.767l-0.018,7.037
				c-0.002,0.966-0.802,1.761-1.771,1.757l-6.344-0.013c-0.971-0.007-1.76-0.807-1.758-1.771l0.021-7.032
				C605.973,413.864,606.77,413.073,607.741,413.073z"/>
			<path fill="#FFFFFF" d="M607.83,425.461l11.557,0.04c1.037,0,1.896,0.863,1.892,1.896l-0.021,6.79
				c-0.011,1.034-0.854,1.883-1.896,1.881l-11.562-0.042c-1.036-0.002-1.884-0.854-1.884-1.896l0.021-6.78
				C605.938,426.307,606.793,425.462,607.83,425.461z"/>
			<path fill="#FFFFFF" d="M607.793,437.848l15.524,0.042c1.036,0.008,1.884,0.854,1.881,1.895l-0.013,6.788
				c-0.013,1.041-0.861,1.879-1.898,1.879l-15.523-0.038c-1.026-0.007-1.881-0.851-1.881-1.889l0.021-6.793
				C605.902,438.692,606.754,437.848,607.793,437.848z"/>
			<path fill="#FFFFFF" d="M607.764,450.239l20.763,0.066c1.038-0.005,1.885,0.852,1.882,1.883l-0.021,6.792
				c-0.006,1.033-0.854,1.886-1.893,1.881l-20.757-0.062c-1.038,0-1.88-0.859-1.888-1.896l0.021-6.779
				C605.873,451.08,606.723,450.233,607.764,450.239z"/>
			<path fill="#FFFFFF" d="M607.727,462.625l9.236,0.023c1.034,0.003,1.889,0.853,1.88,1.886l-0.02,6.793
				c-0.001,1.036-0.854,1.883-1.894,1.883l-9.241-0.023c-1.034,0.004-1.884-0.854-1.878-1.893l0.018-6.79
				C605.836,463.469,606.692,462.618,607.727,462.625z"/>
			<path fill="#FFFFFF" d="M626.195,425.513l6.668,0.021c1.021-0.003,1.854,0.837,1.854,1.854l-0.021,6.854
				c-0.006,1.021-0.838,1.856-1.863,1.847l-6.666-0.015c-1.018-0.006-1.852-0.843-1.849-1.854l0.021-6.854
				C624.34,426.342,625.176,425.512,626.195,425.513z"/>
			<path fill="#FFFFFF" d="M639.004,425.548l6.667,0.018c1.021,0.002,1.854,0.842,1.854,1.857l-0.021,6.854
				c-0.003,1.023-0.841,1.853-1.854,1.855l-6.663-0.025c-1.024,0-1.855-0.838-1.854-1.857l0.018-6.851
				C637.145,426.378,637.984,425.545,639.004,425.548z"/>
			<path fill="#FFFFFF" d="M651.811,425.584l6.671,0.021c1.021-0.001,1.851,0.839,1.843,1.854l-0.023,6.854
				c0.004,1.019-0.826,1.854-1.85,1.854l-6.67-0.021c-1.021-0.002-1.854-0.843-1.848-1.856l0.021-6.854
				C649.954,426.412,650.795,425.581,651.811,425.584z"/>
			<path fill="#FFFFFF" d="M664.618,425.616l6.666,0.021c1.021,0.003,1.858,0.839,1.851,1.854l-0.013,6.856
				c-0.011,1.021-0.847,1.853-1.865,1.849l-6.669-0.019c-1.017-0.001-1.853-0.851-1.853-1.858l0.019-6.854
				C662.76,426.446,663.598,425.615,664.618,425.616z"/>
			<path fill="#FFFFFF" d="M677.421,425.653l6.671,0.021c1.021,0.005,1.854,0.845,1.854,1.854l-0.021,6.855
				c-0.002,1.021-0.839,1.849-1.854,1.849l-6.677-0.018c-1.021,0-1.854-0.844-1.847-1.86l0.021-6.857
				C675.574,426.481,676.4,425.653,677.421,425.653z"/>
			<path fill="#FFFFFF" d="M690.229,425.69l6.67,0.017c1.02,0.003,1.85,0.848,1.85,1.86l-0.016,6.853
				c-0.006,1.021-0.851,1.854-1.867,1.854l-6.667-0.021c-1.021,0.001-1.854-0.838-1.854-1.854l0.027-6.854
				C688.371,426.522,689.208,425.685,690.229,425.69z"/>
			<path fill="#FFFFFF" d="M703.039,425.724l6.666,0.018c1.023,0.007,1.854,0.842,1.848,1.863l-0.017,6.853
				c-0.004,1.021-0.843,1.854-1.856,1.85l-6.676-0.021c-1.016-0.004-1.844-0.84-1.848-1.854l0.02-6.854
				C701.18,426.55,702.016,425.726,703.039,425.724z"/>
			<path fill="#FFFFFF" d="M715.84,425.759l6.676,0.021c1.021,0.003,1.853,0.839,1.854,1.855l-0.022,6.854
				c-0.002,1.017-0.837,1.854-1.854,1.854l-6.669-0.021c-1.025-0.003-1.854-0.843-1.858-1.859l0.028-6.853
				C713.986,426.591,714.824,425.757,715.84,425.759z"/>
			<path fill="#FFFFFF" d="M728.645,425.795l6.675,0.021c1.017,0,1.853,0.837,1.843,1.857l-0.014,6.854
				c-0.004,1.021-0.836,1.852-1.855,1.847l-6.671-0.009c-1.021-0.012-1.85-0.847-1.85-1.861l0.02-6.854
				C726.792,426.625,727.629,425.792,728.645,425.795z"/>
			<path fill="#FFFFFF" d="M741.456,425.831l6.671,0.021c1.021,0.002,1.854,0.843,1.85,1.855l-0.018,6.854
				c-0.006,1.021-0.844,1.852-1.861,1.849l-6.668-0.017c-1.021,0-1.854-0.835-1.854-1.858l0.02-6.85
				C739.596,426.66,740.439,425.825,741.456,425.831z"/>
			<path fill="#FFFFFF" d="M754.268,425.865l6.656,0.021c1.021-0.003,1.854,0.837,1.855,1.854l-0.025,6.852
				c-0.003,1.021-0.839,1.851-1.854,1.854l-6.672-0.017c-1.021-0.013-1.854-0.847-1.854-1.859l0.021-6.855
				C752.412,426.693,753.24,425.863,754.268,425.865z"/>
			<path fill="#FFFFFF" d="M767.069,425.9l6.667,0.02c1.021-0.004,1.85,0.847,1.853,1.857l-0.021,6.857
				c-0.002,1.013-0.84,1.849-1.861,1.844l-6.666-0.021c-1.019-0.002-1.854-0.842-1.848-1.854l0.016-6.854
				C765.213,426.733,766.049,425.9,767.069,425.9z"/>
			<path fill="#FFFFFF" d="M629.721,437.909l6.685,0.021c1.02,0.004,1.85,0.839,1.846,1.854l-0.019,6.857
				c-0.012,1.016-0.844,1.852-1.856,1.846l-6.674-0.021c-1.021,0-1.854-0.835-1.854-1.856l0.021-6.853
				C627.866,438.74,628.702,437.909,629.721,437.909z"/>
			<path fill="#FFFFFF" d="M642.535,437.946l6.665,0.021c1.021,0.004,1.853,0.836,1.85,1.854l-0.015,6.854
				c-0.004,1.018-0.848,1.851-1.863,1.849l-6.668-0.021c-1.021-0.005-1.854-0.841-1.852-1.854l0.02-6.858
				C640.677,438.772,641.516,437.939,642.535,437.946z"/>
			<path fill="#FFFFFF" d="M655.34,437.979l6.668,0.018c1.023,0.001,1.854,0.854,1.854,1.863l-0.021,6.848
				c-0.002,1.027-0.835,1.855-1.852,1.854l-6.677-0.021c-1.021-0.005-1.854-0.84-1.852-1.854l0.021-6.854
				C653.479,438.816,654.316,437.977,655.34,437.979z"/>
			<path fill="#FFFFFF" d="M668.152,438.013l6.661,0.019c1.021,0.004,1.854,0.843,1.851,1.862l-0.017,6.851
				c-0.005,1.026-0.85,1.856-1.862,1.854l-6.664-0.021c-1.021-0.006-1.855-0.842-1.855-1.856l0.021-6.851
				C666.289,438.845,667.129,438.017,668.152,438.013z"/>
			<path fill="#FFFFFF" d="M680.954,438.05l6.667,0.017c1.018,0.006,1.854,0.847,1.85,1.862l-0.02,6.853
				c-0.002,1.021-0.84,1.854-1.86,1.854l-6.669-0.021c-1.016,0-1.852-0.843-1.849-1.854l0.017-6.858
				C679.1,438.882,679.934,438.049,680.954,438.05z"/>
			<path fill="#FFFFFF" d="M693.758,438.082l6.67,0.021c1.021,0.006,1.854,0.843,1.854,1.855l-0.021,6.854
				c-0.004,1.021-0.84,1.853-1.854,1.852l-6.671-0.019c-1.021,0-1.854-0.835-1.851-1.859l0.021-6.852
				C691.902,438.921,692.738,438.085,693.758,438.082z"/>
			<path fill="#FFFFFF" d="M706.564,438.118l6.67,0.021c1.021,0.001,1.854,0.84,1.851,1.854l-0.02,6.856
				c-0.014,1.015-0.851,1.847-1.864,1.85l-6.666-0.021c-1.021-0.004-1.854-0.838-1.848-1.862l0.018-6.848
				C704.709,438.952,705.544,438.12,706.564,438.118z"/>
			<path fill="#FFFFFF" d="M719.373,438.155l6.665,0.021c1.021,0.006,1.854,0.843,1.854,1.854l-0.021,6.855
				c-0.003,1.019-0.84,1.849-1.86,1.849l-6.666-0.021c-1.021,0.005-1.854-0.843-1.853-1.857l0.017-6.85
				C717.516,438.991,718.348,438.152,719.373,438.155z"/>
			<path fill="#FFFFFF" d="M732.178,438.194l6.672,0.016c1.021,0.003,1.854,0.844,1.853,1.856l-0.021,6.854
				c0.002,1.021-0.841,1.854-1.854,1.854l-6.668-0.02c-1.021-0.002-1.854-0.84-1.854-1.854l0.021-6.854
				C730.321,439.026,731.158,438.19,732.178,438.194z"/>
			<path fill="#FFFFFF" d="M744.984,438.229l6.672,0.018c1.017,0.007,1.848,0.837,1.846,1.857l-0.02,6.85
				c-0.001,1.023-0.836,1.856-1.86,1.858l-6.667-0.025c-1.021-0.002-1.854-0.837-1.85-1.855l0.018-6.854
				C743.13,439.06,743.967,438.222,744.984,438.229z"/>
			<path fill="#FFFFFF" d="M757.793,438.263l6.666,0.017c1.021,0.003,1.857,0.846,1.854,1.859l-0.021,6.853
				c-0.002,1.021-0.838,1.856-1.854,1.846l-6.673-0.013c-1.021-0.001-1.854-0.838-1.852-1.854l0.021-6.856
				C755.934,439.093,756.768,438.258,757.793,438.263z"/>
			<path fill="#FFFFFF" d="M636.393,450.318l6.685,0.011c1.012,0.007,1.844,0.843,1.842,1.865l-0.012,6.849
				c-0.017,1.021-0.853,1.854-1.865,1.854l-6.668-0.021c-1.024-0.003-1.854-0.84-1.854-1.855l0.022-6.854
				C634.541,451.143,635.376,450.312,636.393,450.318z"/>
			<path fill="#FFFFFF" d="M649.2,450.349l6.667,0.021c1.021,0,1.859,0.838,1.852,1.854l-0.018,6.854
				c-0.002,1.021-0.844,1.854-1.862,1.854l-6.669-0.021c-1.014-0.006-1.854-0.842-1.843-1.854l0.017-6.854
				C647.344,451.178,648.186,450.346,649.2,450.349z"/>
			<path fill="#FFFFFF" d="M662.011,450.38l6.669,0.022c1.021,0.002,1.855,0.841,1.854,1.854l-0.022,6.854
				c-0.007,1.021-0.839,1.854-1.854,1.854l-6.67-0.021c-1.021-0.006-1.854-0.844-1.854-1.861l0.021-6.851
				C660.152,451.214,660.986,450.385,662.011,450.38z"/>
			<path fill="#FFFFFF" d="M674.812,450.416l6.67,0.024c1.019,0,1.852,0.838,1.854,1.854l-0.021,6.856
				c0,1.016-0.846,1.849-1.861,1.846l-6.665-0.015c-1.021-0.004-1.857-0.845-1.854-1.862l0.021-6.854
				C672.957,451.252,673.796,450.42,674.812,450.416z"/>
			<path fill="#FFFFFF" d="M687.621,450.454l6.674,0.021c1.021,0.006,1.854,0.84,1.844,1.856l-0.021,6.854
				c0.008,1.021-0.836,1.85-1.854,1.847l-6.672-0.02c-1.02,0.004-1.853-0.837-1.85-1.86l0.02-6.853
				C685.768,451.279,686.604,450.451,687.621,450.454z"/>
			<path fill="#FFFFFF" d="M700.428,450.49l6.67,0.021c1.021,0.003,1.854,0.838,1.854,1.854l-0.021,6.854
				c0,1.02-0.843,1.852-1.854,1.851l-6.668-0.018c-1.021-0.012-1.859-0.848-1.854-1.856l0.019-6.854
				C698.568,451.322,699.406,450.49,700.428,450.49z"/>
			<path fill="#FFFFFF" d="M713.24,450.529l6.664,0.01c1.018,0.016,1.852,0.85,1.852,1.867l-0.021,6.849
				c-0.003,1.024-0.839,1.854-1.86,1.854l-6.666-0.021c-1.021,0.003-1.854-0.845-1.848-1.856l0.014-6.851
				C711.377,451.359,712.216,450.529,713.24,450.529z"/>
			<path fill="#FFFFFF" d="M726.038,450.56l6.671,0.02c1.023,0.006,1.856,0.836,1.854,1.859l-0.021,6.854
				c-0.006,1.021-0.843,1.854-1.862,1.854l-6.671-0.027c-1.018,0-1.854-0.832-1.844-1.854l0.021-6.854
				C724.184,451.393,725.021,450.56,726.038,450.56z"/>
			<path fill="#FFFFFF" d="M738.854,450.595l6.669,0.021c1.015,0.003,1.85,0.84,1.847,1.859l-0.023,6.85
				c-0.004,1.023-0.836,1.856-1.85,1.854l-6.679-0.021c-1.021-0.01-1.854-0.84-1.853-1.855l0.021-6.854
				C736.992,451.425,737.832,450.592,738.854,450.595z"/>
			<path fill="#FFFFFF" d="M751.65,450.636l6.672,0.015c1.021,0,1.847,0.838,1.851,1.857l-0.021,6.854
				c-0.002,1.021-0.836,1.854-1.858,1.854l-6.661-0.023c-1.021,0.003-1.854-0.843-1.854-1.857l0.016-6.847
				C749.795,451.464,750.631,450.633,751.65,450.636z"/>
			<path fill="#FFFFFF" d="M764.494,450.67l12.06,0.031c1.038,0.005,1.896,0.854,1.891,1.896l-0.021,6.786
				c-0.004,1.029-0.854,1.889-1.893,1.883l-12.062-0.036c-1.045,0.003-1.889-0.854-1.885-1.887l0.021-6.787
				C762.604,451.516,763.453,450.664,764.494,450.67z"/>
			<path fill="#FFFFFF" d="M623.346,462.665l6.67,0.021c1.024,0,1.854,0.84,1.854,1.854l-0.023,6.854
				c0,1.021-0.839,1.854-1.854,1.848l-6.666-0.017c-1.021,0.004-1.854-0.836-1.854-1.861l0.021-6.85
				C621.492,463.493,622.325,462.665,623.346,462.665z"/>
			<path fill="#FFFFFF" d="M636.156,462.7l6.667,0.021c1.021,0.003,1.854,0.838,1.847,1.854l-0.021,6.854
				c0.004,1.017-0.834,1.85-1.854,1.847l-6.668-0.021c-1.021,0.007-1.852-0.841-1.851-1.854l0.019-6.852
				C634.295,463.531,635.133,462.699,636.156,462.7z"/>
			<path fill="#FFFFFF" d="M648.96,462.733l6.674,0.021c1.021,0.01,1.854,0.849,1.852,1.862l-0.021,6.854
				c-0.004,1.018-0.84,1.851-1.86,1.851l-6.661-0.018c-1.021-0.017-1.854-0.853-1.854-1.859l0.014-6.854
				C647.109,463.566,647.941,462.732,648.96,462.733z"/>
			<path fill="#FFFFFF" d="M661.768,462.775l6.668,0.018c1.02,0,1.854,0.848,1.85,1.856l-0.021,6.852
				c-0.002,1.021-0.845,1.854-1.854,1.854l-6.67-0.021c-1.021-0.003-1.854-0.839-1.854-1.854l0.021-6.856
				C659.909,463.6,660.742,462.77,661.768,462.775z"/>
			<path fill="#FFFFFF" d="M674.572,462.808l6.668,0.017c1.021,0.004,1.854,0.84,1.853,1.86l-0.021,6.854
				c-0.003,1.021-0.84,1.854-1.857,1.854l-6.67-0.021c-1.021-0.003-1.851-0.839-1.849-1.854l0.02-6.854
				C672.713,463.636,673.55,462.802,674.572,462.808z"/>
			<path fill="#FFFFFF" d="M687.381,462.843l6.667,0.013c1.021,0.009,1.854,0.844,1.856,1.862l-0.023,6.854
				c-0.004,1.021-0.843,1.854-1.856,1.854l-6.673-0.021c-1.021-0.007-1.854-0.844-1.852-1.859l0.021-6.852
				C685.523,463.673,686.361,462.843,687.381,462.843z"/>
			<path fill="#FFFFFF" d="M700.186,462.878l6.672,0.021c1.018,0,1.854,0.844,1.842,1.854l-0.021,6.854
				c0.01,1.021-0.843,1.854-1.856,1.852l-6.663-0.021c-1.021,0-1.854-0.84-1.854-1.859l0.021-6.849
				C698.331,463.711,699.168,462.876,700.186,462.878z"/>
			<path fill="#FFFFFF" d="M712.989,462.912l6.675,0.021c1.021,0.007,1.849,0.842,1.846,1.856l-0.018,6.854
				c0,1.021-0.832,1.854-1.854,1.854l-6.675-0.021c-1.016,0-1.854-0.836-1.85-1.857l0.021-6.852
				C711.137,463.744,711.973,462.912,712.989,462.912z"/>
			<path fill="#FFFFFF" d="M725.797,462.948l6.672,0.021c1.021,0.006,1.854,0.846,1.854,1.854l-0.021,6.854
				c-0.006,1.018-0.841,1.851-1.859,1.851l-6.675-0.021c-1.021,0.003-1.854-0.833-1.85-1.854l0.021-6.854
				C723.943,463.774,724.78,462.946,725.797,462.948z"/>
			<path fill="#FFFFFF" d="M738.604,462.986l6.676,0.011c1.016,0.017,1.848,0.854,1.842,1.861l-0.016,6.851
				c0,1.027-0.848,1.854-1.854,1.856l-6.678-0.023c-1.021,0-1.847-0.839-1.847-1.854l0.021-6.855
				C736.752,463.819,737.586,462.983,738.604,462.986z"/>
			<path fill="#FFFFFF" d="M751.441,463.021l12.062,0.031c1.038,0.005,1.895,0.854,1.881,1.891l-0.017,6.792
				c-0.006,1.035-0.854,1.88-1.896,1.88l-12.06-0.035c-1.038-0.003-1.883-0.854-1.88-1.894l0.016-6.782
				C749.555,463.859,750.406,463.018,751.441,463.021z"/>
			<path fill="#FFFFFF" d="M770.299,463.07l6.354,0.021c0.969-0.001,1.762,0.797,1.76,1.768l-0.021,7.031
				c-0.002,0.975-0.798,1.765-1.769,1.758l-6.345-0.013c-0.979-0.018-1.771-0.812-1.771-1.771l0.021-7.032
				C768.531,463.859,769.328,463.07,770.299,463.07z"/>
			<path fill="#FFFFFF" d="M734.205,518.87c0,3.331-2.699,6.031-6.03,6.031h-49.939c-3.331,0-6.03-2.7-6.03-6.031v-29.938
				c0-3.331,2.699-6.031,6.03-6.031h49.938c3.331,0,6.03,2.7,6.03,6.031L734.205,518.87L734.205,518.87z"/>
			<g>
				<path fill="#FFCD61" d="M735.678,495.844v-7.539c0-3.329-2.692-6.031-6.022-6.031h-50.79c-3.33,0-6.03,2.702-6.03,6.031v7.539
					H735.678z"/>
				<path fill="#FFCD61" d="M704.02,482.273h-25.154c-3.33,0-6.03,2.702-6.03,6.031v7.539h31.185V482.273L704.02,482.273z"/>
			</g>
			<rect x="581.205" y="372.901" fill="#FFCD61" width="246" height="17"/>
		</g>
		<g>
			<g>
				<path fill="#FFDCC0" d="M682.049,516.796l-0.307-0.131c-3.047-1.316-6.586,0.079-7.911,3.127l-6.388,14.733
					c-0.074,0.046-0.152,0.093-0.229,0.134c0.003-0.029,0.011-0.059,0.021-0.088l4.47-34.951c0.423-3.296-1.908-6.307-5.201-6.729
					l-0.325-0.042c-3.302-0.418-6.312,1.91-6.729,5.202l-1.859,18.688c-0.237-0.043-0.874-0.021-0.874-0.021l-1.197-25.49
					c-0.136-3.322-2.938-5.901-6.253-5.771l-0.335,0.021c-3.312,0.136-5.896,2.937-5.761,6.252l1.822,25.723l-1.354,0.065
					l-4.045-25.213c-0.537-3.284-3.627-5.504-6.897-4.978l-0.329,0.062c-3.275,0.528-5.503,3.624-4.975,6.896l4.688,25.398
					c0,0-1.229,0.171-1.535,0.414l-2.577-11.189c-0.568-2.489-3.062-4.053-5.556-3.477l-0.178,0.039
					c-2.493,0.577-4.058,3.062-3.479,5.561c0,0,5.387,23.765,6.312,31.708c0.931,7.944,9.404,16.834,18.765,15.747l17.644-2.062
					c16.396-1.919,23.747-31.361,23.747-31.361C686.536,522.021,685.096,518.12,682.049,516.796z"/>
				<polygon fill="#F55F2D" points="669.004,625.747 668.858,553.97 629.842,553.97 629.766,625.747 				"/>
			</g>
			<g>
				<path fill="#FFDCC0" d="M711.293,521.854l0.307-0.132c3.055-1.324,6.594,0.079,7.912,3.128l6.394,14.729
					c0.069,0.045,0.146,0.099,0.227,0.14c-0.004-0.028-0.01-0.062-0.016-0.095l-4.478-34.943c-0.422-3.296,1.908-6.312,5.202-6.729
					l0.325-0.043c3.301-0.417,6.312,1.91,6.735,5.202l1.854,18.692c0.24-0.049,0.874-0.026,0.874-0.026l1.199-25.49
					c0.135-3.321,2.938-5.896,6.251-5.769l0.336,0.016c3.318,0.136,5.896,2.938,5.76,6.252l-1.815,25.726l1.349,0.062l4.044-25.211
					c0.537-3.287,3.627-5.506,6.904-4.972l0.329,0.056c3.271,0.533,5.503,3.625,4.968,6.901l-4.682,25.396
					c0,0,1.229,0.172,1.528,0.416l2.578-11.188c0.571-2.492,3.062-4.06,5.562-3.479l0.177,0.039
					c2.494,0.576,4.051,3.062,3.479,5.562c0,0-5.388,23.761-6.312,31.709c-0.93,7.938-9.409,16.832-18.764,15.74l-17.646-2.062
					c-16.396-1.92-23.747-31.36-23.747-31.36C706.807,527.078,708.247,523.177,711.293,521.854z"/>
				<polygon fill="#F55F2D" points="763.554,625.747 763.502,559.025 724.484,559.025 724.382,625.747 				"/>
			</g>
		</g>
	</g>
	<g>
		<g>
			<g>
				<g>
					<g>
						<g>
							<g>
								<g>
									<g>
										<g>
											<path display="none" fill="#86592D" d="M688.123,466.809c1.003,1.479,1.256,3.122,0.76,4.835
												c-1.116,3.859,4.878,5.814,5.905,1.954c1.057-3.971,0.227-8.335-3.921-10.008
												C689.113,462.88,686.989,465.146,688.123,466.809L688.123,466.809z"/>
										</g>
									</g>
								</g>
							</g>
						</g>
					</g>
				</g>
			</g>
		</g>
	</g>
	<g>
		<polygon fill="#EEEEEE" points="625.348,179.644 625.348,326.091 625.348,357.069 767.684,357.069 767.684,326.091 
			767.684,179.644 		"/>
		<g>
			<rect x="638.719" y="169.308" fill="#FFFFFF" width="142.335" height="172.822"/>
			<rect x="638.719" y="169.308" fill="#FFCD61" width="142.335" height="64.399"/>
			<g>
				<rect x="652.725" y="245.14" fill="#D4D4D4" width="114.325" height="3.691"/>
				<rect x="652.725" y="257.2" fill="#D4D4D4" width="114.325" height="3.689"/>
				<rect x="652.725" y="269.26" fill="#D4D4D4" width="114.325" height="3.69"/>
				<rect x="652.725" y="281.318" fill="#D4D4D4" width="114.325" height="3.689"/>
				<rect x="652.725" y="293.376" fill="#D4D4D4" width="114.325" height="3.691"/>
			</g>
			<rect x="652.725" y="309.493" fill="#669FD5" width="114.325" height="21.301"/>
		</g>
	</g>
</g>
<g id="Layer_4">
	<g display="none">
		<g display="inline" opacity="0.7">
			<g>
				<path fill="#61B138" d="M388.255,262.88c12.14,27.041,29.762,51.554,50.534,71.937c9.302,9.127,19.498,17.219,30.662,23.666
					c11.438,6.608,22.889,14.31,36.455,13.261c4.466-0.349,3.585-24.277,0-24c-12.396,0.958-22.698-5.361-33.217-11.405
					c-11.853-6.81-22.505-15.058-32.44-24.661c-20.176-19.498-37.521-43.447-49.223-69.516c-2.062-4.592-3.529,2.626-3.753,4.305
					C386.612,251.38,386.165,258.226,388.255,262.88L388.255,262.88z"/>
			</g>
		</g>
		<g display="inline" opacity="0.7">
			<g>
				<path fill="#61B138" d="M391.126,286.737c-0.22-4.612-0.268-9.242-0.074-13.857c0.134-3.127,0.445-6.229,0.517-9.361
					c-0.157,6.802,0.613-0.242,1.004-2.065c-1.294,0-2.589,0-3.88,0c0.207,0.774,0.411,1.548,0.616,2.322
					c1.071,4.013,2.896,4.308,3.882,0c1.191-5.224,1.391-11.763,0-16.971c-0.207-0.774-0.413-1.548-0.618-2.322
					c-1.059-3.956-2.952-4.366-3.88,0c-3.423,16.045-3.659,31.978-2.854,48.635c0.03,0.608,1.171,11.034,3.375,8.381
					C391.997,298.144,391.319,290.738,391.126,286.737L391.126,286.737z"/>
			</g>
		</g>
		<g display="inline" opacity="0.7">
			<g>
				<path fill="#61B138" d="M438.605,253.851c-6.609,1.802-14.684-2.784-20.632-5.518c-8.753-4.021-17.807-7.031-27.346-7.367
					c-4.104-0.145-3.472,21.148-0.731,23.571c0.534,0.47,1.063,0.94,1.599,1.412c2.576,2.283,3.312-7.431,3.375-8.381
					c0.21-3.354,0.997-12.183-1.919-14.761c-0.531-0.471-1.064-0.941-1.596-1.412c-0.242,7.857-0.485,15.714-0.729,23.571
					c9.069,0.319,17.382,3.121,25.797,6.685c6.497,2.752,14.992,8.157,22.18,6.2C443.858,276.421,440.938,253.216,438.605,253.851
					L438.605,253.851z"/>
			</g>
		</g>
	</g>
	<g display="none">
		<g display="inline" opacity="0.7">
			<g>
				<path fill="#0FBAD1" d="M353.15,249.675c-36.947-2.192-74.68-9.596-108.368-26.171c-13.179-6.485-25.893-14.92-35.625-26.417
					c-6.294-7.436-11.749-16.145-16.395-24.795c-4.73-8.808-7.173-18.812-12.246-27.366c-1.718-2.898-3.353,8.03-3.375,8.381
					c-0.29,4.606-0.51,10.671,1.917,14.761c2.19,3.692,3.666,8.289,5.167,12.33c1.824,4.908,4.147,9.604,6.61,14.187
					c4.832,8.996,10.442,17.805,16.863,25.644c9.586,11.706,22.752,19.943,35.821,26.641
					c33.732,17.287,72.417,24.599,109.627,26.806C356.846,273.894,357.521,249.933,353.15,249.675L353.15,249.675z"/>
			</g>
		</g>
		<g display="inline" opacity="0.7">
			<g>
				<path fill="#0FBAD1" d="M266.583,296.364c4.956-3.553,11.334-5.006,17.07-6.516c6.584-1.731,13.241-3.314,19.881-4.789
					c16.895-3.752,33.488-8.375,49.405-15.381c4.179-1.84,3.773-24.221,0-24c-1.228,0.071-2.452,0.144-3.678,0.214
					c-4.365,0.254-3.704,24.215,0,24c1.227-0.07,2.451-0.143,3.678-0.213c0-8,0-16,0-24c-15.937,7.015-32.512,11.554-49.405,15.381
					c-6.641,1.504-13.279,3.102-19.881,4.789c-6.364,1.627-13.053,3.447-18.529,7.373c-2.942,2.11-2.104,11.787-1.917,14.762
					C263.285,289.21,263.815,298.349,266.583,296.364L266.583,296.364z"/>
			</g>
		</g>
		<g display="inline" opacity="0.7">
			<g>
				<path fill="#0FBAD1" d="M308.131,215.005c0.31,6.042,1.65,11.107,5.543,15.601c3.51,4.051,8.048,7.046,12.032,10.537
					c9.458,8.286,19.781,15.392,25.846,26.894c0.461-7.454,0.923-14.907,1.386-22.362c-0.943-0.386-1.887-0.771-2.831-1.157
					c-1.486-0.606-5.546,21.733,0,24c0.942,0.386,1.885,0.771,2.831,1.156c3.056,1.248,2.625-20.008,1.386-22.361
					c-2.438-4.621-4.536-8.212-7.986-12.087c-4.017-4.51-8.552-8.528-13.142-12.37c-3.764-3.147-7.599-6.206-11.396-9.304
					c-2.013-1.641-3.964-3.348-5.813-5.187c-0.853-0.845-1.606-1.773-2.351-2.721c-1.727-2.202-0.535-3.317-0.211,2.979
					c-0.032-0.606-1.171-11.035-3.375-8.381C307.265,203.592,307.927,211.01,308.131,215.005L308.131,215.005z"/>
			</g>
		</g>
	</g>
	<g display="none">
		<g display="inline" opacity="0.8">
			<g>
				<path fill="#F9BD05" d="M465.895,317.302c5.829,15.966,23.486,19.069,37.618,19.455c20.478,0.554,41.132-2.846,61.249-6.438
					c57.917-10.354,115.065-26.522,171.367-43.938c94.896-29.351,188.037-64.507,282.489-95.326c5.39-1.759,1.99-24.649,0-24
					c-117.584,38.365-233.242,83.57-352.615,115.691c-41.618,11.198-83.698,21.86-126.376,27.53
					c-13.979,1.854-28.25,3.244-42.344,2.166c-4.564-0.353-9.149-1.063-13.51-2.562c-5.927-2.024-12.87-7.17-15.107-13.307
					c-1.781-4.877-3.57,2.936-3.753,4.305C464.213,306.093,464.07,312.307,465.895,317.302L465.895,317.302z"/>
			</g>
		</g>
		<g display="inline" opacity="0.8">
			<g>
				<path fill="#F9BD05" d="M957.717,179.104c10.276,2.904,19.909,6.794,29.749,10.929c7.577,3.184,16.041,2.391,24.007,1.942
					c4.354-0.246,3.711-24.209,0-24c-8.029,0.452-16.355,1.163-24.007-1.942c-9.888-4.015-19.462-8.021-29.749-10.929
					C955.45,154.463,952.438,177.611,957.717,179.104L957.717,179.104z"/>
			</g>
		</g>
		<g display="inline" opacity="0.8">
			<g>
				<path fill="#F9BD05" d="M1021.456,167.023c-7.243,10.562-14.062,21.525-18.919,33.541c-3.729,9.215-6.212,18.947-9.497,28.339
					c-1.767,5.058-1.688,11.157-0.983,16.418c0.184,1.314,2.035,9.232,3.754,4.305c3.177-9.081,5.677-18.419,9.121-27.392
					c4.448-11.573,11.067-21.984,17.983-32.068c2.589-3.775,2.188-10.419,1.916-14.761
					C1024.805,174.974,1023.393,164.198,1021.456,167.023L1021.456,167.023z"/>
			</g>
		</g>
	</g>
	<g display="none">
		<g display="inline" opacity="0.7">
			<path fill="#10BBD2" d="M297.479,127.964c0,0-0.972,37.478-1.465,56.557c-0.07,2.726,15.509,3.171,15.578,0.445
				c0.497-19.08,0.975-37.478,1.465-56.558C313.127,125.683,297.549,125.238,297.479,127.964
				C297.479,127.964,297.549,125.238,297.479,127.964z"/>
		</g>
		<g display="inline" opacity="0.7">
			<path fill="#10BBD2" d="M317.29,156.174c-1.837,6.03-6.573,9.383-9.738,14.45c-1.654,2.651-3.579,5.122-5.383,7.659
				c-1.506,2.117-2.624,4.698-4.82,6.122c-1.9,1.232,5.135,2.545,5.377,2.57c2.926,0.286,6.987,0.608,9.617-1.098
				c2.195-1.421,3.335-3.998,4.822-6.122c1.995-2.854,4.104-5.608,5.955-8.572c1.459-2.337,3.758-4.313,5.446-6.493
				c1.864-2.409,3.399-5.11,4.307-8.072C333.327,155.109,318.444,152.384,317.29,156.174L317.29,156.174z"/>
		</g>
		<g display="inline" opacity="0.7">
			<path fill="#10BBD2" d="M289.781,155.388c1.522,6.126,6.077,9.745,8.974,14.985c1.515,2.741,3.309,5.318,4.979,7.954
				c1.394,2.199,2.377,4.841,4.498,6.388c1.834,1.339-5.259,2.249-5.503,2.259c-2.936,0.119-7.007,0.209-9.546-1.645
				c-2.116-1.544-3.124-4.183-4.497-6.388c-1.844-2.963-3.807-5.835-5.501-8.899c-1.335-2.417-3.528-4.521-5.101-6.794
				c-1.739-2.512-3.132-5.296-3.879-8.304C273.821,153.411,288.823,151.539,289.781,155.388L289.781,155.388z"/>
		</g>
	</g>
	<g display="none">
		<g display="inline" opacity="0.7">
			<path fill="#10BBD2" d="M413.605,171.146c0,0-24.728,27.057-37.311,40.832c-1.801,1.968,9.448,13.293,11.246,11.325
				c12.585-13.774,24.722-27.057,37.308-40.832C426.649,180.503,415.402,169.177,413.605,171.146
				C413.605,171.146,415.402,169.177,413.605,171.146z"/>
		</g>
		<g display="inline" opacity="0.7">
			<path fill="#10BBD2" d="M410.201,206.011c-5.227,3.166-10.875,2.307-16.462,3.823c-2.925,0.795-5.932,1.266-8.893,1.871
				c-2.47,0.503-4.95,1.625-7.487,1.129c-2.197-0.429,2.171,5.508,2.335,5.698c1.98,2.276,4.781,5.381,7.82,5.975
				c2.534,0.496,5.03-0.605,7.489-1.13c3.304-0.704,6.63-1.254,9.898-2.143c2.574-0.701,5.544-0.541,8.188-0.962
				c2.923-0.467,5.791-1.382,8.354-2.938C422.755,216.542,413.484,204.021,410.201,206.011L410.201,206.011z"/>
		</g>
		<g display="inline" opacity="0.7">
			<path fill="#10BBD2" d="M390.341,186.013c-2.796,5.609-1.74,11.503-2.955,17.427c-0.633,3.098-0.956,6.271-1.407,9.401
				c-0.378,2.612-1.342,5.261-0.767,7.902c0.5,2.286-5.333-2.047-5.521-2.211c-2.248-1.984-5.321-4.792-6.014-7.956
				c-0.578-2.636,0.366-5.301,0.765-7.902c0.531-3.495,0.919-7.007,1.628-10.472c0.558-2.731,0.283-5.837,0.574-8.628
				c0.323-3.088,1.076-6.132,2.446-8.886C379.794,173.285,392.098,182.488,390.341,186.013L390.341,186.013z"/>
		</g>
	</g>
	<g display="none">
		<g display="inline" opacity="0.7">
			<path fill="#10BBD2" d="M179.962,176.317c0,0,22.888,28.781,34.539,43.432c1.665,2.094,13.63-8.39,11.964-10.483
				c-11.651-14.652-22.887-28.781-34.539-43.433C190.261,163.739,178.297,174.223,179.962,176.317
				C179.962,176.317,178.297,174.223,179.962,176.317z"/>
		</g>
		<g display="inline" opacity="0.7">
			<path fill="#10BBD2" d="M212.596,183.717c2.422,5.798,0.983,11.602,1.803,17.599c0.43,3.137,0.543,6.326,0.789,9.481
				c0.204,2.633,0.993,5.346,0.243,7.938c-0.648,2.244,5.455-1.657,5.652-1.807c2.373-1.817,5.622-4.396,6.521-7.502
				c0.749-2.589-0.018-5.314-0.244-7.938c-0.302-3.525-0.456-7.056-0.935-10.563c-0.379-2.767,0.1-5.845-0.007-8.65
				c-0.119-3.104-0.669-6.194-1.858-9.043C223.953,171.781,211.074,180.072,212.596,183.717L212.596,183.717z"/>
		</g>
		<g display="inline" opacity="0.7">
			<path fill="#10BBD2" d="M191.471,202.229c5.001,3.537,10.698,3.089,16.173,5.007c2.863,1.003,5.832,1.69,8.746,2.507
				c2.431,0.682,4.833,1.981,7.397,1.67c2.219-0.27-2.527,5.338-2.704,5.516c-2.127,2.128-5.124,5.023-8.196,5.395
				c-2.56,0.312-4.979-0.968-7.398-1.668c-3.249-0.941-6.533-1.732-9.734-2.854c-2.524-0.885-5.496-0.941-8.105-1.553
				c-2.888-0.676-5.687-1.797-8.143-3.533C178.255,211.829,188.327,200.008,191.471,202.229L191.471,202.229z"/>
		</g>
	</g>
	<g display="none">
		<g display="inline" opacity="0.7">
			<path fill="#F9BD05" d="M882.398,192.171c0,0,0.517-37.487,0.771-56.571c0.037-2.727-15.542-2.963-15.58-0.237
				c-0.262,19.085-0.515,37.488-0.771,56.573C866.78,194.662,882.362,194.898,882.398,192.171
				C882.398,192.171,882.362,194.898,882.398,192.171z"/>
		</g>
		<g display="inline" opacity="0.7">
			<path fill="#F9BD05" d="M862.248,164.229c1.765-6.054,6.458-9.47,9.561-14.58c1.623-2.673,3.517-5.169,5.29-7.73
				c1.479-2.137,2.565-4.733,4.744-6.187c1.886-1.258-5.167-2.476-5.411-2.498c-2.926-0.247-6.992-0.514-9.603,1.227
				c-2.174,1.45-3.284,4.042-4.742,6.186c-1.963,2.88-4.036,5.663-5.853,8.651c-1.435,2.357-3.707,4.364-5.366,6.565
				c-1.837,2.434-3.339,5.155-4.206,8.129C846.225,165.509,861.139,168.034,862.248,164.229L862.248,164.229z"/>
		</g>
		<g display="inline" opacity="0.7">
			<path fill="#F9BD05" d="M889.764,164.646c-1.597-6.105-6.191-9.663-9.148-14.863c-1.555-2.72-3.373-5.273-5.075-7.887
				c-1.421-2.181-2.438-4.809-4.577-6.328c-1.847-1.314,5.232-2.319,5.475-2.333c2.938-0.158,7.01-0.303,9.566,1.517
				c2.134,1.516,3.174,4.141,4.576,6.328c1.88,2.938,3.875,5.783,5.605,8.825c1.364,2.396,3.583,4.474,5.184,6.725
				c1.771,2.489,3.193,5.253,3.981,8.251C905.747,166.408,890.768,168.482,889.764,164.646L889.764,164.646z"/>
		</g>
	</g>
	<g display="none">
		<g display="inline" opacity="0.7">
			<path fill="#F9BD05" d="M949.947,234.175c0,0,24.547-27.237,37.038-41.103c1.786-1.981-9.538-13.224-11.323-11.243
				c-12.491,13.866-24.542,27.237-37.036,41.103C936.842,224.913,948.163,236.156,949.947,234.175
				C949.947,234.175,948.163,236.156,949.947,234.175z"/>
		</g>
		<g display="inline" opacity="0.7">
			<path fill="#F9BD05" d="M953.121,199.285c5.2-3.204,10.859-2.386,16.438-3.943c2.917-0.816,5.922-1.309,8.874-1.935
				c2.472-0.521,4.942-1.662,7.482-1.184c2.199,0.413-2.207-5.492-2.373-5.681c-1.997-2.261-4.817-5.346-7.861-5.917
				c-2.536-0.478-5.021,0.642-7.479,1.184c-3.298,0.728-6.622,1.303-9.883,2.215c-2.569,0.72-5.537,0.581-8.188,1.021
				c-2.919,0.488-5.774,1.425-8.336,2.999C940.496,188.846,949.852,201.3,953.121,199.285L953.121,199.285z"/>
		</g>
		<g display="inline" opacity="0.7">
			<path fill="#F9BD05" d="M973.111,219.137c2.76-5.629,1.666-11.515,2.84-17.448c0.611-3.103,0.914-6.278,1.342-9.412
				c0.363-2.614,1.309-5.271,0.712-7.908c-0.515-2.282,5.347,2.008,5.537,2.171c2.264,1.967,5.353,4.752,6.063,7.912
				c0.596,2.632-0.332,5.303-0.709,7.907c-0.514,3.498-0.873,7.014-1.562,10.483c-0.538,2.735-0.247,5.839-0.52,8.633
				c-0.302,3.09-1.032,6.139-2.391,8.904C983.743,231.789,971.379,222.676,973.111,219.137L973.111,219.137z"/>
		</g>
	</g>
	<g display="none">
		<g display="inline" opacity="0.7">
			<path fill="#F9BD05" d="M805.075,215.704c0,0-24.222-27.553-36.549-41.578c-1.769-2.004-13.22,9.089-11.453,11.094
				c12.331,14.027,24.22,27.553,36.55,41.579C795.385,228.802,806.84,217.708,805.075,215.704
				C805.075,215.704,806.84,217.708,805.075,215.704z"/>
		</g>
		<g display="inline" opacity="0.7">
			<path fill="#F9BD05" d="M772.133,210.014c-2.688-5.665-1.53-11.536-2.635-17.483c-0.575-3.11-0.842-6.29-1.236-9.429
				c-0.329-2.619-1.245-5.287-0.618-7.916c0.542-2.275-5.364,1.938-5.56,2.099c-2.282,1.939-5.409,4.684-6.158,7.833
				c-0.623,2.625,0.271,5.307,0.618,7.916c0.47,3.505,0.79,7.023,1.434,10.501c0.514,2.744,0.182,5.843,0.417,8.64
				c0.269,3.093,0.967,6.152,2.282,8.935C761.355,222.527,773.826,213.575,772.133,210.014L772.133,210.014z"/>
		</g>
		<g display="inline" opacity="0.7">
			<path fill="#F9BD05" d="M792.357,190.423c-5.163-3.272-10.831-2.527-16.394-4.158c-2.907-0.853-5.905-1.384-8.854-2.048
				c-2.459-0.554-4.92-1.727-7.47-1.282c-2.203,0.385,2.271-5.463,2.438-5.65c2.022-2.236,4.88-5.284,7.93-5.815
				c2.543-0.444,5.021,0.707,7.47,1.28c3.291,0.771,6.607,1.39,9.858,2.344c2.562,0.752,5.533,0.654,8.167,1.128
				c2.917,0.524,5.77,1.499,8.305,3.104C805.104,180.147,795.602,192.479,792.357,190.423L792.357,190.423z"/>
		</g>
	</g>
	<g display="none">
		<g display="inline" opacity="0.8">
			<g>
				<path fill="#61B138" d="M808.627,42.239c-1.602-11.417-13.369-16.305-23.104-18.84c-14.111-3.669-28.953-4.776-43.451-5.667
					c-41.738-2.56-83.834-1.18-125.531,1.153c-70.279,3.933-140.233,11.957-210.43,16.925c-4.01,0.282-5.147,15.851-3.668,15.746
					c87.389-6.183,174.484-17.164,262.163-18.96c30.563-0.626,61.372-0.827,91.828,2.347c9.979,1.039,20.082,2.434,29.688,5.418
					c3.111,0.965,6.18,2.175,8.976,3.858c3.798,2.287,7.827,6.783,8.44,11.171c0.49,3.487,2.924-1.351,3.262-2.219
					C808.08,49.864,809.129,45.811,808.627,42.239L808.627,42.239z"/>
			</g>
		</g>
		<g display="inline" opacity="0.8">
			<g>
				<path fill="#61B138" d="M446.506,53.483c-6.681-3.564-12.765-7.672-18.956-11.976c-4.768-3.312-10.757-4.157-16.349-5.149
					c-3.059-0.543-6.273,15.283-3.668,15.746c5.639,1,11.521,1.879,16.349,5.15c6.242,4.23,12.271,8.405,18.957,11.977
					C444.312,70.016,449.939,55.315,446.506,53.483L446.506,53.483z"/>
			</g>
		</g>
		<g display="inline" opacity="0.8">
			<g>
				<path fill="#61B138" d="M400.467,51.116c6.637-5.76,13.039-11.852,18.243-18.952c3.992-5.444,7.203-11.427,10.916-17.06
					c1.997-3.033,2.875-7.047,3.191-10.612c0.077-0.892,0-6.387-1.946-3.432c-3.586,5.446-6.748,11.169-10.51,16.5
					c-4.854,6.875-11.033,12.636-17.37,18.136c-2.371,2.059-3.109,6.481-3.584,9.375C399.361,45.358,398.692,52.657,400.467,51.116
					L400.467,51.116z"/>
			</g>
		</g>
	</g>
</g>
<g>
	<polygon fill="#EEEEEE" points="227.203,177.285 227.203,323.732 227.203,354.711 369.539,354.711 369.539,323.732 
		369.539,177.285 	"/>
	<g>
		<rect x="238.39" y="168.401" fill="#FFFFFF" width="141.756" height="172.117"/>
		<rect x="238.39" y="168.401" fill="#669FD5" width="141.756" height="64.137"/>
		<g>
			<rect x="252.34" y="243.926" fill="#D4D4D4" width="113.851" height="3.675"/>
			<rect x="252.34" y="255.936" fill="#D4D4D4" width="113.851" height="3.675"/>
			<rect x="252.34" y="267.948" fill="#D4D4D4" width="113.851" height="3.674"/>
			<rect x="252.34" y="324.36" fill="#D4D4D4" width="113.851" height="3.673"/>
			<rect x="252.34" y="312.35" fill="#D4D4D4" width="113.851" height="3.677"/>
		</g>
		<rect x="252.34" y="281.153" fill="#71AF43" width="113.851" height="21.213"/>
	</g>
</g>
<g>
	<g>
		<circle fill="#E8AF2E" cx="596.999" cy="308.43" r="45.72"/>
		<circle fill="#F9CA35" cx="596.999" cy="308.429" r="35.076"/>
	</g>
	<g>
		<g>
			<path fill="#FFFFFF" d="M611.554,321.309c0-7.551,3.34-19.031,5.833-21.521c2.432-2.438,13.961-5.823,21.504-5.825
				c-7.538,0.002-18.638-2.954-21.504-5.818c-3.016-3.007-5.833-13.97-5.833-21.517c0,7.737-2.909,18.598-6.189,21.881
				c-3.398,3.39-13.783,5.454-21.137,5.454c7.547,0,18.678,2.992,21.508,5.825C608.606,302.657,611.554,313.76,611.554,321.309z"/>
		</g>
	</g>
</g>
</svg>
