<?xml version="1.0" encoding="utf-8"?>
<!-- Generator: Adobe Illustrator 16.0.4, SVG Export Plug-In . SVG Version: 6.00 Build 0)  -->
<!DOCTYPE svg PUBLIC "-//W3C//DTD SVG 1.1//EN" "http://www.w3.org/Graphics/SVG/1.1/DTD/svg11.dtd">
<svg version="1.1" id="Layer_1" xmlns="http://www.w3.org/2000/svg" xmlns:xlink="http://www.w3.org/1999/xlink" x="0px" y="0px"
	 width="474.525px" height="718.705px" viewBox="110 281.295 474.525 718.705" enable-background="new 110 281.295 474.525 718.705"
	 xml:space="preserve">
<g>
	<g>
		<rect x="133.323" y="581.666" fill="#333332" width="311.523" height="38.316"/>
		<rect x="114.998" y="580" fill="#333332" width="14.993" height="39.982"/>
		<path fill="#369C91" d="M136.654,575.003h-14.993v35.657v16.129v39.773c0-0.05-0.863-0.082-1.281-0.082
			c-5.71,0-10.38,4.631-10.38,10.338v15.712c0,5.709,4.284,10.337,9.996,10.337c5.708,0,9.995-4.628,9.995-10.337v-0.826v-14.886
			v-50.173h6.664v-51.643H136.654z"/>
		<g>
			<rect x="449.845" y="580" fill="#333332" width="14.993" height="39.982"/>
			<g>
				<rect x="444.847" y="575.003" fill="#369C91" width="14.993" height="51.644"/>
			</g>
		</g>
		<rect x="143.318" y="568.339" fill="#369C91" width="294.865" height="6.664"/>
		<rect x="148.316" y="575.003" fill="#333332" width="284.87" height="66.636"/>
		<path fill="#333332" d="M175.383,637.435c-0.178,2.674-0.28,5.359-0.28,8.069c0,65.074,52.748,117.817,117.808,117.817
			c65.063,0,117.809-52.743,117.809-117.817c0-2.71-0.099-5.392-0.277-8.068L175.383,637.435L175.383,637.435z"/>
		<path fill="#669FD5" d="M136.265,773.582v90.888c0,32.799,26.578,59.379,59.368,59.379h194.565
			c32.79,0,59.369-26.58,59.369-59.379v-90.888H136.265L136.265,773.582z"/>
		<path fill="#333332" d="M152.149,781.676v80.077c0,25.099,20.421,45.519,45.521,45.519h190.484
			c25.099,0,45.518-20.42,45.518-45.519v-80.077H152.149L152.149,781.676z"/>
		<rect x="163.309" y="506.7" fill="#EFEEEE" width="254.883" height="144.934"/>
		<path fill="#54C4CA" d="M236.594,637.435c-0.374,2.637-0.577,5.327-0.577,8.069c0,31.42,25.473,56.896,56.894,56.896
			c31.426,0,56.898-25.476,56.898-56.896c0-2.741-0.202-5.434-0.59-8.068L236.594,637.435L236.594,637.435z"/>
		<circle fill="#FFFFFF" cx="178.113" cy="804.786" r="8.386"/>
		<circle fill="#FFFFFF" cx="198.911" cy="804.786" r="8.384"/>
		<circle fill="#FFFFFF" cx="219.707" cy="804.786" r="8.386"/>
		<circle fill="#FFFFFF" cx="240.505" cy="804.786" r="8.386"/>
		<circle fill="#FFFFFF" cx="261.303" cy="804.786" r="8.387"/>
		<circle fill="#FFFFFF" cx="282.1" cy="804.786" r="8.384"/>
		<circle fill="#FFFFFF" cx="302.898" cy="804.786" r="8.386"/>
		<circle fill="#FFFFFF" cx="323.695" cy="804.786" r="8.386"/>
		<circle fill="#FFFFFF" cx="344.492" cy="804.786" r="8.386"/>
		<circle fill="#FFFFFF" cx="365.289" cy="804.786" r="8.384"/>
		<circle fill="#FFFFFF" cx="386.088" cy="804.786" r="8.384"/>
		<circle fill="#FFFFFF" cx="406.884" cy="804.786" r="8.386"/>
		<circle fill="#FFFFFF" cx="178.113" cy="845.488" r="8.386"/>
		<circle fill="#FFFFFF" cx="198.911" cy="845.487" r="8.385"/>
		<circle fill="#FFFFFF" cx="219.707" cy="845.488" r="8.386"/>
		<circle fill="#FFFFFF" cx="240.505" cy="845.488" r="8.386"/>
		<circle fill="#FFFFFF" cx="261.303" cy="845.488" r="8.388"/>
		<circle fill="#FFFFFF" cx="282.1" cy="845.487" r="8.385"/>
		<circle fill="#FFFFFF" cx="302.898" cy="845.488" r="8.386"/>
		<circle fill="#FFFFFF" cx="323.695" cy="845.488" r="8.386"/>
		<circle fill="#FFFFFF" cx="344.492" cy="845.488" r="8.386"/>
		<circle fill="#FFFFFF" cx="365.289" cy="845.487" r="8.385"/>
		<circle fill="#FFFFFF" cx="386.088" cy="845.487" r="8.385"/>
		<circle fill="#FFFFFF" cx="406.884" cy="845.488" r="8.386"/>
		<path fill="#FFFFFF" d="M196.899,824.911c0,4.633-3.756,8.39-8.388,8.39c-4.629,0-8.387-3.757-8.387-8.39
			c0-4.617,3.757-8.373,8.387-8.373C193.143,816.526,196.899,820.282,196.899,824.911z"/>
		<path fill="#FFFFFF" d="M217.694,824.911c0,4.633-3.753,8.39-8.387,8.39c-4.631,0-8.384-3.757-8.384-8.39
			c0-4.617,3.753-8.373,8.384-8.373C213.941,816.526,217.694,820.282,217.694,824.911z"/>
		<path fill="#FFFFFF" d="M238.493,824.911c0,4.633-3.753,8.39-8.386,8.39c-4.631,0-8.386-3.757-8.386-8.39
			c0-4.617,3.755-8.373,8.386-8.373C234.74,816.526,238.493,820.282,238.493,824.911z"/>
		<path fill="#FFFFFF" d="M259.291,824.911c0,4.633-3.757,8.39-8.388,8.39c-4.633,0-8.386-3.757-8.386-8.39
			c0-4.617,3.753-8.373,8.386-8.373C255.533,816.526,259.291,820.282,259.291,824.911z"/>
		<path fill="#FFFFFF" d="M280.089,824.911c0,4.633-3.754,8.39-8.385,8.39c-4.631,0-8.389-3.757-8.389-8.39
			c0-4.617,3.758-8.373,8.389-8.373C276.334,816.526,280.089,820.282,280.089,824.911z"/>
		<path fill="#FFFFFF" d="M300.886,824.911c0,4.633-3.755,8.39-8.39,8.39c-4.627,0-8.384-3.757-8.384-8.39
			c0-4.617,3.756-8.373,8.384-8.373C297.131,816.526,300.886,820.282,300.886,824.911z"/>
		<path fill="#FFFFFF" d="M321.681,824.911c0,4.633-3.751,8.39-8.385,8.39c-4.632,0-8.385-3.757-8.385-8.39
			c0-4.617,3.753-8.373,8.385-8.373C317.929,816.526,321.681,820.282,321.681,824.911z"/>
		<path fill="#FFFFFF" d="M342.479,824.911c0,4.633-3.752,8.39-8.385,8.39c-4.625,0-8.378-3.757-8.378-8.39
			c0-4.617,3.753-8.373,8.378-8.373C338.727,816.528,342.479,820.282,342.479,824.911z"/>
		<path fill="#FFFFFF" d="M363.276,824.911c0,4.633-3.753,8.39-8.386,8.39c-4.631,0-8.385-3.757-8.385-8.39
			c0-4.617,3.753-8.373,8.385-8.373C359.523,816.534,363.276,820.282,363.276,824.911z"/>
		<path fill="#FFFFFF" d="M384.077,824.911c0,4.633-3.763,8.39-8.386,8.39c-4.631,0-8.386-3.757-8.386-8.39
			c0-4.617,3.755-8.373,8.386-8.373C380.321,816.526,384.077,820.282,384.077,824.911z"/>
		<path fill="#FFFFFF" d="M404.872,824.911c0,4.633-3.755,8.39-8.385,8.39c-4.625,0-8.376-3.757-8.376-8.39
			c0-4.617,3.751-8.373,8.376-8.373C401.117,816.526,404.872,820.282,404.872,824.911z"/>
		<circle fill="#FFFFFF" cx="198.911" cy="865.836" r="8.385"/>
		<circle fill="#FFFFFF" cx="219.707" cy="865.836" r="8.386"/>
		<circle fill="#FFFFFF" cx="240.505" cy="865.836" r="8.386"/>
		<circle fill="#FFFFFF" cx="261.303" cy="865.836" r="8.388"/>
		<circle fill="#FFFFFF" cx="282.1" cy="865.836" r="8.385"/>
		<circle fill="#FFFFFF" cx="302.898" cy="865.836" r="8.386"/>
		<circle fill="#FFFFFF" cx="323.695" cy="865.836" r="8.386"/>
		<circle fill="#FFFFFF" cx="344.492" cy="865.836" r="8.386"/>
		<circle fill="#FFFFFF" cx="365.289" cy="865.836" r="8.385"/>
		<circle fill="#FFFFFF" cx="386.088" cy="865.836" r="8.385"/>
		<path fill="#FFFFFF" d="M391.538,887.967c0,4.726-3.832,8.557-8.558,8.557H198.521c-4.727,0-8.558-3.831-8.558-8.557v-1.216
			c0-4.724,3.832-8.556,8.558-8.556h184.461c4.726,0,8.557,3.832,8.557,8.556L391.538,887.967L391.538,887.967z"/>
		<g>
			<circle fill="#FFFFFF" cx="174.759" cy="868.857" r="11.407"/>
			<circle fill="#FFFFFF" cx="410.239" cy="868.856" r="11.405"/>
		</g>
		<path fill="#669FD5" d="M434.812,614.984h-48.089c-11.126,0-21.834,11.717-21.834,22.831v5.231
			c0,11.114,10.719,20.248,21.834,20.248h22.564c-8.44,56.641-57.493,100.442-116.727,100.442
			c-59.261,0-108.314-43.803-116.736-100.442h21.793c11.115,0,19.006-9.134,19.006-20.248v-5.231
			c0-11.114-7.891-22.831-19.006-22.831h-48.095c-10.698,0-21.192,10.962-21.192,21.659v130.322
			c0,10.698,10.492,19.607,21.192,19.607h285.292c10.702,0,20.025-8.909,20.025-19.607V636.645
			C454.842,625.946,445.511,614.984,434.812,614.984z"/>
		<rect x="228.279" y="626.646" fill="#54C4CA" width="129.94" height="24.987"/>
		
			<rect x="299.349" y="740.62" transform="matrix(0.9962 -0.0868 0.0868 0.9962 -63.6983 28.9874)" fill="#FFFFFF" width="4.162" height="12.481"/>
		<polygon fill="#FFFFFF" points="294.103,753.009 289.938,752.718 289.929,739.927 294.089,739.927 		"/>
		
			<rect x="308.296" y="739.455" transform="matrix(0.9847 -0.1744 0.1744 0.9847 -125.2667 65.5404)" fill="#FFFFFF" width="4.161" height="12.492"/>
		
			<rect x="317.223" y="737.413" transform="matrix(0.9659 -0.259 0.259 0.9659 -181.7051 108.0708)" fill="#FFFFFF" width="4.167" height="12.489"/>
		
			<rect x="325.853" y="734.772" transform="matrix(0.9397 -0.3421 0.3421 0.9397 -233.6925 156.875)" fill="#FFFFFF" width="4.165" height="12.49"/>
		
			<rect x="334.394" y="731.202" transform="matrix(0.9062 -0.4227 0.4227 0.9062 -280.2073 211.3794)" fill="#FFFFFF" width="4.163" height="12.493"/>
		
			<rect x="342.415" y="726.855" transform="matrix(0.8659 -0.5003 0.5003 0.8659 -320.5304 270.6573)" fill="#FFFFFF" width="4.164" height="12.492"/>
		
			<rect x="350.142" y="721.945" transform="matrix(0.8191 -0.5737 0.5737 0.8191 -354.0098 333.7839)" fill="#FFFFFF" width="4.166" height="12.492"/>
		
			<rect x="357.346" y="716.448" transform="matrix(0.7661 -0.6427 0.6427 0.7661 -380.4106 400.0259)" fill="#FFFFFF" width="4.162" height="12.492"/>
		
			<rect x="364.079" y="710.198" transform="matrix(0.7066 -0.7076 0.7076 0.7066 -399.5194 469.2636)" fill="#FFFFFF" width="4.164" height="12.488"/>
		
			<rect x="370.228" y="703.399" transform="matrix(0.6424 -0.7663 0.7663 0.6424 -410.7028 539.0505)" fill="#FFFFFF" width="4.162" height="12.49"/>
		
			<rect x="375.788" y="696.129" transform="matrix(0.5725 -0.8199 0.8199 0.5725 -414.342 610.0809)" fill="#FFFFFF" width="4.16" height="12.494"/>
		
			<rect x="380.65" y="688.481" transform="matrix(0.499 -0.8666 0.8666 0.499 -410.3053 679.7432)" fill="#FFFFFF" width="4.163" height="12.496"/>
		
			<rect x="384.943" y="680.372" transform="matrix(0.4218 -0.9067 0.9067 0.4218 -398.7697 747.9174)" fill="#FFFFFF" width="4.163" height="12.488"/>
		
			<rect x="388.443" y="671.904" transform="matrix(0.3419 -0.9397 0.9397 0.3419 -380.2723 813.2989)" fill="#FFFFFF" width="4.162" height="12.487"/>
		
			<rect x="281.035" y="740.699" transform="matrix(-0.9963 -0.0863 0.0863 -0.9963 500.7042 1515.5374)" fill="#FFFFFF" width="4.163" height="12.489"/>
		
			<rect x="271.962" y="739.446" transform="matrix(-0.9847 -0.1742 0.1742 -0.9847 413.9994 1527.719)" fill="#FFFFFF" width="4.165" height="12.49"/>
		
			<rect x="263.038" y="737.443" transform="matrix(-0.9657 -0.2598 0.2598 -0.9657 327.9329 1530.7212)" fill="#FFFFFF" width="4.165" height="12.494"/>
		
			<rect x="254.259" y="734.662" transform="matrix(-0.9396 -0.3423 0.3423 -0.9396 243.5908 1524.8049)" fill="#FFFFFF" width="4.163" height="12.492"/>
		
			<rect x="245.826" y="731.122" transform="matrix(-0.9063 -0.4227 0.4227 -0.9063 160.9223 1510.4204)" fill="#FFFFFF" width="4.166" height="12.496"/>
		
			<rect x="237.759" y="726.973" transform="matrix(-0.8658 -0.5003 0.5003 -0.8658 80.6573 1488.0677)" fill="#FFFFFF" width="4.165" height="12.493"/>
		
			<rect x="230.122" y="721.97" transform="matrix(-0.8187 -0.5742 0.5742 -0.8187 4.1374 1457.7341)" fill="#FFFFFF" width="4.165" height="12.487"/>
		
			<rect x="222.769" y="716.397" transform="matrix(-0.7661 -0.6428 0.6428 -0.7661 -67.3957 1420.7542)" fill="#FFFFFF" width="4.158" height="12.489"/>
		
			<rect x="216.107" y="710.223" transform="matrix(-0.7068 -0.7074 0.7074 -0.7068 -134.4221 1377.2244)" fill="#FFFFFF" width="4.164" height="12.49"/>
		
			<rect x="209.953" y="703.416" transform="matrix(-0.6428 -0.766 0.766 -0.6428 -195.2826 1328.2571)" fill="#FFFFFF" width="4.165" height="12.484"/>
		
			<rect x="204.28" y="696.133" transform="matrix(-0.5732 -0.8194 0.8194 -0.5732 -250.8853 1274.084)" fill="#FFFFFF" width="4.163" height="12.491"/>
		
			<rect x="199.478" y="688.54" transform="matrix(-0.4995 -0.8663 0.8663 -0.4995 -299.6819 1216.427)" fill="#FFFFFF" width="4.161" height="12.49"/>
		
			<rect x="195.329" y="680.371" transform="matrix(-0.4225 -0.9064 0.9064 -0.4225 -341.5046 1155.639)" fill="#FFFFFF" width="4.156" height="12.487"/>
		
			<rect x="191.829" y="671.862" transform="matrix(-0.3419 -0.9397 0.9397 -0.3419 -377.0258 1092.1892)" fill="#FFFFFF" width="4.16" height="12.491"/>
		<polygon fill="#369C91" points="295.674,612.612 295.674,628.041 290.306,628.041 290.306,612.612 279.573,612.612 
			279.573,653.534 306.408,653.534 306.408,612.612 		"/>
		<rect x="143.318" y="594.993" fill="#369C91" width="294.865" height="8.33"/>
		<rect x="204.957" y="591.662" fill="#54C4CA" width="23.323" height="11.661"/>
		<rect x="356.554" y="591.662" fill="#54C4CA" width="19.991" height="11.661"/>
		<rect x="431.52" y="568.339" fill="#369C91" width="6.664" height="34.984"/>
		<rect x="143.318" y="568.339" fill="#369C91" width="8.329" height="34.984"/>
	</g>
	<g>
		<g>
			<path fill="#FEDBC0" d="M257.502,866.517l-0.475-0.204c-4.726-2.056-10.216,0.119-12.271,4.85l-9.909,22.853
				c-0.116,0.074-0.238,0.146-0.352,0.214c0.005-0.046,0.016-0.094,0.027-0.143l6.932-54.21c0.657-5.111-2.959-9.785-8.068-10.447
				l-0.502-0.055c-5.12-0.66-9.792,2.951-10.447,8.069l-2.882,28.982c-0.372-0.056-1.356-0.035-1.356-0.035l-1.859-39.54
				c-0.208-5.153-4.555-9.152-9.697-8.948l-0.518,0.035c-5.148,0.21-9.149,4.546-8.938,9.688l2.828,39.896l-2.091,0.104
				l-6.273-39.114c-0.833-5.098-5.625-8.541-10.709-7.712l-0.512,0.093c-5.081,0.818-8.536,5.613-7.705,10.71l7.261,39.392
				c0,0-1.905,0.268-2.38,0.656l-3.998-17.367c-0.885-3.86-4.75-6.281-8.617-5.383l-0.274,0.059c-3.87,0.894-6.286,4.75-5.395,8.625
				c0,0,8.355,36.856,9.792,49.181c1.44,12.32,14.596,26.115,29.104,24.42l27.37-3.197c25.432-2.979,36.835-48.643,36.835-48.643
				C264.463,874.621,262.229,868.569,257.502,866.517z"/>
			<polygon fill="#54C4CA" points="236.002,1002.831 235.736,922.867 175.215,922.867 175.077,1002.831 			"/>
		</g>
		<g>
			<path fill="#FEDBC0" d="M318.554,884.818l0.468-0.203c4.726-2.047,10.225,0.119,12.271,4.85l9.908,22.852
				c0.117,0.087,0.237,0.157,0.353,0.224c-0.005-0.046-0.016-0.104-0.027-0.141l-6.931-54.21c-0.661-5.111,2.949-9.784,8.069-10.447
				l0.502-0.067c5.12-0.649,9.791,2.961,10.448,8.068l2.879,28.993c0.379-0.062,1.356-0.034,1.356-0.034l1.851-39.541
				c0.211-5.152,4.555-9.149,9.696-8.945l0.521,0.034c5.147,0.208,9.141,4.545,8.927,9.688l-2.817,39.896l2.092,0.103l6.271-39.111
				c0.834-5.097,5.627-8.541,10.711-7.712l0.52,0.087c5.081,0.826,8.536,5.62,7.707,10.704l-7.262,39.398
				c0,0,1.909,0.267,2.387,0.644l3.991-17.358c0.886-3.854,4.755-6.281,8.616-5.382l0.273,0.048
				c3.872,0.896,6.286,4.755,5.396,8.637c0,0-8.354,36.859-9.795,49.179c-1.439,12.321-14.593,26.112-29.103,24.426l-27.376-3.196
				c-25.434-2.979-36.828-48.646-36.828-48.646C311.594,892.924,313.828,886.873,318.554,884.818z"/>
			<polygon fill="#54C4CA" points="398.319,1002.831 398.226,941.17 337.708,941.17 337.529,1002.831 			"/>
		</g>
	</g>
</g>
<polygon fill="#EFEEEE" points="163.647,297.271 163.647,541.238 163.647,592.846 400.766,592.846 400.766,541.238 400.766,297.271 
	"/>
<g>
	<g>
		<rect x="181.219" y="281.295" fill="#FFFFFF" width="237.118" height="287.903"/>
		<rect x="181.219" y="281.295" fill="#669FD5" width="237.118" height="107.283"/>
		<g>
			<rect x="204.551" y="407.626" fill="#D4D4D4" width="190.442" height="6.147"/>
			<rect x="204.551" y="427.715" fill="#D4D4D4" width="190.442" height="6.146"/>
			<rect x="204.551" y="447.808" fill="#D4D4D4" width="190.442" height="6.146"/>
			<rect x="204.551" y="542.171" fill="#D4D4D4" width="190.442" height="6.144"/>
			<rect x="204.551" y="522.08" fill="#D4D4D4" width="190.442" height="6.148"/>
		</g>
		<rect x="204.551" y="469.896" fill="#71AF43" width="190.442" height="35.485"/>
	</g>
</g>
<g>
	<g>
		<circle fill="#E8AF2E" cx="508.049" cy="456.854" r="76.478"/>
		<circle fill="#F9CA35" cx="508.047" cy="456.852" r="58.672"/>
	</g>
	<g>
		<g>
			<path fill="#FFFFFF" d="M532.395,478.394c0-12.629,5.586-31.832,9.756-35.998c4.068-4.078,23.354-9.74,35.973-9.743
				c-12.611,0.003-31.178-4.942-35.973-9.732c-5.043-5.03-9.756-23.368-9.756-35.991c0,12.94-4.869,31.107-10.354,36.601
				c-5.686,5.669-23.056,9.122-35.355,9.122c12.622,0,31.244,5.004,35.976,9.743C527.463,447.197,532.395,465.767,532.395,478.394z"
				/>
		</g>
	</g>
</g>
</svg>
