<?xml version="1.0" encoding="utf-8"?>
<!-- Generator: Adobe Illustrator 16.0.4, SVG Export Plug-In . SVG Version: 6.00 Build 0)  -->
<!DOCTYPE svg PUBLIC "-//W3C//DTD SVG 1.1//EN" "http://www.w3.org/Graphics/SVG/1.1/DTD/svg11.dtd">
<svg version="1.1" id="Layer_1" xmlns="http://www.w3.org/2000/svg" xmlns:xlink="http://www.w3.org/1999/xlink" x="0px" y="0px"
	 width="600px" height="600px" viewBox="0 0 600 600" enable-background="new 0 0 600 600" xml:space="preserve">
<g>
	<g>
		<defs>
			<ellipse id="SVGID_1_" cx="302.826" cy="300.137" rx="297.953" ry="298.927"/>
		</defs>
		<clipPath id="SVGID_2_">
			<use xlink:href="#SVGID_1_"  overflow="visible"/>
		</clipPath>
		<ellipse clip-path="url(#SVGID_2_)" fill="#72AF3A" cx="301.826" cy="300.137" rx="297.953" ry="298.926"/>
	</g>
	<g>
		<defs>
			<ellipse id="SVGID_3_" cx="302.826" cy="300.137" rx="297.953" ry="298.927"/>
		</defs>
		<clipPath id="SVGID_4_">
			<use xlink:href="#SVGID_3_"  overflow="visible"/>
		</clipPath>
		<g clip-path="url(#SVGID_4_)">
			<g>
				<path fill="#FFD155" d="M828.14,1033.636c-44.213,34.694-134.338,2.416-185.584-5.228
					c-71.87-10.706-141.616-31.74-213.217-45.158c-34.455-6.444-70.282-17.307-107.034-14.171
					c-43.635,3.737-70.87-2.342-87.208-15.84c-4.074-3.375-7.468-7.211-10.269-11.479c-2.802-4.261-5.016-8.933-6.76-13.88
					c4.962-80.782,26.339-168.798-21.367-244.057c-2.541-6.451-4.966-12.701-7.429-18.876c-2.43-6.183-4.908-12.31-7.413-18.356
					c-2.01-6.157-3.778-12.088-5.441-17.994c-8.244-29.417-14.958-58.955-11.929-89.242c0.464-3.79,0.987-7.553,1.544-11.29
					c0.557-3.737,1.147-7.452,1.747-11.142c1.489-6.075,3.18-12.07,5.136-17.965c4.399-13.254,10.149-26.013,18-37.98
					c2.617-3.988,5.467-7.894,8.57-11.714c49.404-50.872,139.885-46.768,185.568,5.405c2.911,3.251,5.641,6.715,8.182,10.396
					c2.521,3.674,4.854,7.571,6.979,11.691c2.543,4.531,4.814,9.181,6.814,13.879c1.998,4.696,3.723,9.441,5.164,14.158
					c1.571,5.812,2.639,11.685,3.317,17.606c1.656,17.658-0.194,35.768-5.469,53.177c-1.063,6.105-2.227,12.188-3.363,18.279
					c-3.416,18.234-6.575,36.499-6.18,55.267c0.996,5.703,2.148,11.323,3.486,16.862c2.553,5.416,5.686,10.594,9.309,15.619
					c2.979,4.201,6.023,8.284,9.137,12.286c18.689,24,39.854,45.949,66.857,63.271c10.836,7.272,21.605,14.157,32.543,21.175
					c10.895,6.979,21.998,14.088,33.266,21.388c13.521,8.786,126.937,89.271,203.787,153.767
					C805.271,992.48,838.376,1025.618,828.14,1033.636z"/>
				<path fill="#F79D20" d="M426.429,774.579c-1.104,0.76-2.082,1.677-2.932,2.737c2.506-2.454,2.143-2.104-1.096,1.048
					c-2.103,2.644-2.888,5.668-3.242,8.935c-0.258,2.367-0.519,4.741-0.777,7.108c-0.59,5.398,1.303,10.68,5.621,14.105
					c5.059,4.021,13.537,4.723,18.635,0.251c1.701-1.49,3.422-3.001,4.777-4.813c2.344-3.139,3.029-5.696,4.031-9.455
					c0.903-3.375-0.152-7.113-0.156-10.557c-0.002-3.878-3.008-8.157-5.9-10.452c-3.338-2.655-7.69-3.861-11.92-3.323
					c-8.668,1.104-14.793,9.2-13.78,17.82c0.172,1.446,0.534,2.847,0.811,4.274c0.527,2.727,0.461-4.256,0.057-1.474
					c0.209-0.864,0.418-1.724,0.629-2.583c1.371-2.134,1.486-2.508,0.349-1.128c9.031,2.52,18.062,5.034,27.092,7.553
					c-0.018-2.373-0.037-4.743-0.053-7.11c-0.039-5.331-2.728-9.317-6.562-12.728C437.694,770.954,430.897,771.367,426.429,774.579
					L426.429,774.579z"/>
				<path fill="#F79D20" d="M474.938,809.049c-0.021-0.095-0.035-0.193-0.054-0.29c-4.092,0.525-8.186,1.047-12.276,1.571
					c0.123,0.653,0.241,1.307,0.362,1.962c0.568,3.065,3.179,5.359,6.398,4.952c2.961-0.381,5.516-3.338,4.949-6.401
					c-0.021-0.095-0.039-0.188-0.056-0.283c-0.461-2.49-2.213-4.51-4.805-4.881c-2.246-0.319-5.293,0.966-5.982,3.343
					c-0.024,0.087-0.053,0.175-0.075,0.264c3.495,1.525,6.993,3.046,10.487,4.564c0.174-0.609,0.354-1.223,0.529-1.833
					c0.938-3.233,0.182-6.67-3.201-8.141c-2.789-1.219-7.201-0.046-8.143,3.198c-0.029,0.088-0.053,0.183-0.08,0.269
					c-1.111,3.83,0.438,8.062,4.854,8.692C471.7,816.585,475.683,813.085,474.938,809.049L474.938,809.049z"/>
				<path fill="#F79D20" d="M435.468,821.052c-0.262,0.103-0.524,0.201-0.787,0.302c-4.028,1.561-6.944,5.44-7.551,9.68
					c-0.811,5.68,2.348,10.549,7.283,13.055c0.26,0.13,0.518,0.263,0.777,0.394c7.446,3.782,16.547-2.052,17.659-9.86
					C454.231,824.952,444.413,817.589,435.468,821.052L435.468,821.052z"/>
				<g>
					<path fill="#86592D" d="M575.765,503.423c3.109,4.565,3.894,9.668,2.356,14.974c-3.459,11.953,15.107,18.011,18.29,6.054
						c3.272-12.304,0.703-25.817-12.144-31.001C578.835,491.253,572.258,498.275,575.765,503.423L575.765,503.423z"/>
					<path fill="#AC7339" d="M704.192,710.756c-7.357,34.548-27.339,65.742-68.423,62.168c-0.229-0.015-0.461-0.048-0.688-0.061
						l-0.021-0.003c-4.077-0.408-7.985-1.179-11.745-2.3c-17.808-5.26-32.033-18.041-43.197-33.786
						c-1.838-2.591-3.613-5.271-5.299-8.018c-10.148-16.604-17.324-35.408-21.998-51.876c-0.097-0.287-0.172-0.565-0.25-0.851
						c-0.822-2.933-1.617-5.781-2.369-8.55c-5.945-21.848-9.088-38.719,1.621-53.223l0.002-0.018
						c3.754-5.094,9.213-9.884,16.838-14.504c0.256-0.156,0.512-0.313,0.764-0.451c26.521-15.686,61.599-17.2,90.09-4.008
						c7.726,3.548,14.961,8.188,21.423,13.927c2.221,1.967,4.25,3.944,6.157,6.081c0,0,0.021,0.003,0.035,0.022
						c0.961,1.01,1.877,2.072,2.773,3.152c2.596,3.127,4.873,6.362,6.881,9.717c2.646,4.435,4.781,9.049,6.453,13.811
						c1.065,2.983,1.95,6.021,2.653,9.113c1.949,8.391,2.683,17.13,2.49,26.093c-0.07,4.433-0.381,8.91-0.871,13.441
						C706.771,697.285,705.62,704.013,704.192,710.756z"/>
					<path fill="#C68C53" d="M658.364,806.774c-28.412,47.282-70.097,45.877-108.226,23.645c-3.264-1.885-6.502-3.956-9.719-6.146
						c-12.041-8.258-23.598-18.43-34.039-29.564c-3.555-3.79-7.049-7.587-10.527-11.362c-2.149-2.347-4.282-4.667-6.413-7.012
						c-12.91-14.13-25.601-28.169-39.138-41.96c-2.237-2.279-4.514-4.546-6.791-6.812c-1.586-1.546-3.151-3.089-4.754-4.64
						c-8.817-8.515-21.633-18.83-32.819-30.069c-2.531-2.537-4.976-5.137-7.273-7.773c-7.74-8.871-13.828-18.182-15.771-27.563
						c-12.393-59.745,49.187-92.2,99.101-99.342c43.098-6.171,91.248,5.01,125.26,32.826c3.445,2.803,6.765,5.797,9.881,8.962
						c8.08,8.119,15.068,17.387,20.611,27.765c0.965,1.81,1.926,3.634,2.889,5.462c1.511,2.893,2.992,5.822,4.484,8.811
						c5.217,10.529,10.186,21.522,14.516,32.798c1.187,3.119,2.33,6.254,3.418,9.396c2.982,8.618,5.515,17.385,7.461,26.198
						c1.091,4.99,1.984,10.013,2.666,15.02C676.938,753.218,673.765,781.142,658.364,806.774z"/>
					<path opacity="0.2" fill="#FFFFFF" enable-background="new    " d="M573.927,585.812
						c-27.151-17.237-73.782-18.203-96.477-4.973c-26.535,15.467-51.572,42.578-37.926,75.495
						c7.19,17.338,22.157,24.907,39.373,26.433c34.395,3.04,101.202-8.981,113.493-47.878
						C599.511,612.37,590.226,596.16,573.927,585.812z"/>
				</g>
				<path fill="#F79D20" d="M261.396,523.575c1.973,13.351,11.112,18.108,23.575,21.221c11.741,2.92,25.171-0.826,30.876-12.118
					c5.104-10.098-5.514-8.011-11.391-6.96c-5.631,0.282-13.02,0.05-19.049-0.678c-5.291-0.64-13.24-3.491-17.898-6.055
					C264.535,517.35,260.939,520.468,261.396,523.575L261.396,523.575z"/>
			</g>
			<path fill="#FFD155" d="M342.622,453.276c-11.224,3.872-28.442-4.036-30.724-16.492c-1.937-10.589,13.191-28.949,18.73-37.269
				c18.826-28.271,42.516-52.965,65.105-78.188c8.166-9.116,24.729-33.852,36.672-33.979c20.918-0.223,15.584,19.909,9.799,30.814
				c-19.887,37.497-51.805,66.387-72.496,103.239C362.505,434.238,358.027,447.962,342.622,453.276z"/>
			<path fill="#FFD155" d="M261.497,428.666c-3.813,11.24-20.615,20.014-31.856,14.186c-9.555-4.954-14.805-28.16-17.984-37.634
				c-10.814-32.193-15.825-66.049-21.925-99.354c-2.205-12.035-11.612-40.281-4.398-49.798
				c12.638-16.673,25.284-0.126,30.362,11.127c17.459,38.688,20.744,81.615,37.199,120.542
				C258.625,401.29,266.732,413.233,261.497,428.666z"/>
			<path fill="#FFD155" d="M369.438,223.516c-18.117,55.425,19.918,142.285,84.591,139.607
				c54.333-2.248,109.954-38.789,93.309-97.08C527.676,197.166,400.262,129.214,369.438,223.516z"/>
			<path fill="#FFD155" d="M90.812,268.827c33.782,49.233,128.077,72.39,166.161,18.15c32-45.573,36.922-113.539-20.831-136.3
				C167.904,123.777,33.339,185.055,90.812,268.827z"/>
			<g>
				<path fill="#FFFFFF" d="M468.859,332.323c-82.916,21.044-107.627-134.495-19.963-128.661
					C515.206,208.077,540.247,314.206,468.859,332.323z"/>
				<path fill="#264D73" d="M472.536,254.067c6.918,7.431,12.876,15.843,14.78,26.036c2.499,13.439-0.992,22.786-11.627,31.316
					c-11.748,9.422-30.442,2.999-37.761-8.657c0.865,1.393-7.224-16.585-2.188-6.057c-0.548-1.047-1.178-2.046-1.874-2.999
					c2.533,2.979,2.678,3.331,0.427,1.063c-11.084-10.423-11.656-28.379-1.227-39.472
					C442.96,244.759,462.157,242.922,472.536,254.067L472.536,254.067z"/>
			</g>
			<g>
				<path fill="#FFFFFF" d="M200.992,291.056C118.539,311.98,93.964,157.302,181.14,163.105
					C247.08,167.494,271.982,273.04,200.992,291.056z"/>
				<path fill="#264D73" d="M204.65,213.23c6.878,7.391,12.806,15.757,14.693,25.892c2.492,13.366-0.979,22.659-11.557,31.142
					c-11.683,9.369-30.274,2.982-37.557-8.609c0.868,1.383-7.175-16.492-2.171-6.024c-0.547-1.038-1.169-2.033-1.866-2.981
					c2.523,2.961,2.663,3.313,0.422,1.06c-11.021-10.366-11.586-28.222-1.221-39.254C175.236,203.977,194.327,202.146,204.65,213.23
					L204.65,213.23z"/>
			</g>
		</g>
	</g>
</g>
</svg>
