<?xml version="1.0" encoding="utf-8"?>
<!-- Generator: Adobe Illustrator 16.0.4, SVG Export Plug-In . SVG Version: 6.00 Build 0)  -->
<!DOCTYPE svg PUBLIC "-//W3C//DTD SVG 1.1//EN" "http://www.w3.org/Graphics/SVG/1.1/DTD/svg11.dtd">
<svg version="1.1" id="Layer_1" xmlns="http://www.w3.org/2000/svg" xmlns:xlink="http://www.w3.org/1999/xlink" x="0px" y="0px"
	 width="600px" height="600px" viewBox="0 0 600 600" enable-background="new 0 0 600 600" xml:space="preserve">
<g>
	<defs>
		<ellipse id="SVGID_1_" cx="302.826" cy="300.137" rx="297.953" ry="298.927"/>
	</defs>
	<clipPath id="SVGID_2_">
		<use xlink:href="#SVGID_1_"  overflow="visible"/>
	</clipPath>
	<ellipse clip-path="url(#SVGID_2_)" fill="#72AF3A" cx="301.826" cy="300.137" rx="297.953" ry="298.926"/>
	<g clip-path="url(#SVGID_2_)">
		<g>
			<path fill="#FFD155" d="M678.637,707.35c-32.587,25.573-99.017,1.78-136.79-3.854c-52.976-7.892-104.385-23.396-157.161-33.285
				c-25.396-4.75-51.804-12.757-78.894-10.445c-32.163,2.755-52.237-1.727-64.281-11.676c-3.003-2.487-5.505-5.314-7.569-8.46
				c-2.065-3.141-3.697-6.584-4.983-10.23c3.658-59.544,19.414-124.419-15.749-179.892c-1.873-4.755-3.661-9.361-5.476-13.913
				c-1.791-4.557-3.618-9.072-5.464-13.53c-1.481-4.538-2.785-8.91-4.011-13.264c-6.076-21.683-11.025-43.455-8.792-65.779
				c0.342-2.794,0.728-5.567,1.138-8.321c0.41-2.756,0.845-5.494,1.288-8.213c1.098-4.478,2.344-8.896,3.786-13.241
				c3.243-9.77,7.481-19.174,13.267-27.995c1.929-2.94,4.03-5.818,6.317-8.635c36.416-37.496,103.108-34.472,136.781,3.984
				c2.146,2.396,4.156,4.95,6.028,7.664c1.859,2.707,3.579,5.581,5.147,8.617c1.872,3.34,3.548,6.768,5.021,10.23
				c1.474,3.462,2.744,6.959,3.807,10.436c1.161,4.285,1.945,8.613,2.446,12.979c1.221,13.016-0.143,26.363-4.03,39.195
				c-0.785,4.501-1.643,8.984-2.479,13.475c-2.518,13.439-4.849,26.902-4.556,40.735c0.735,4.203,1.584,8.347,2.571,12.429
				c1.88,3.993,4.191,7.809,6.86,11.514c2.195,3.097,4.439,6.106,6.734,9.056c13.776,17.69,29.375,33.869,49.279,46.636
				c7.988,5.361,15.927,10.436,23.988,15.608c8.03,5.144,16.216,10.384,24.521,15.765c9.965,6.476,93.562,65.801,150.208,113.339
				C661.782,677.015,686.183,701.44,678.637,707.35z"/>
			<path fill="#F79D20" d="M382.542,516.401c-0.815,0.561-1.536,1.236-2.163,2.018c1.849-1.809,1.58-1.551-0.806,0.772
				c-1.549,1.949-2.128,4.179-2.391,6.586c-0.19,1.745-0.382,3.494-0.573,5.239c-0.435,3.98,0.961,7.872,4.143,10.398
				c3.729,2.964,9.979,3.479,13.737,0.185c1.253-1.099,2.521-2.212,3.521-3.549c1.728-2.312,2.232-4.198,2.972-6.969
				c0.666-2.488-0.111-5.243-0.115-7.78c-0.003-2.859-2.217-6.014-4.35-7.705c-2.459-1.958-5.669-2.847-8.786-2.45
				c-6.388,0.813-10.904,6.782-10.157,13.136c0.126,1.066,0.394,2.099,0.597,3.151c0.39,2.01,0.34-3.137,0.041-1.086
				c0.155-0.638,0.31-1.271,0.465-1.904c1.011-1.572,1.096-1.848,0.256-0.831c6.656,1.856,13.312,3.711,19.969,5.566
				c-0.013-1.749-0.026-3.496-0.039-5.241c-0.029-3.929-2.01-6.868-4.835-9.381C390.844,513.729,385.835,514.034,382.542,516.401
				L382.542,516.401z"/>
			<path fill="#F79D20" d="M418.296,541.809c-0.014-0.069-0.026-0.143-0.04-0.213c-3.016,0.387-6.032,0.771-9.048,1.158
				c0.09,0.481,0.177,0.963,0.267,1.445c0.418,2.26,2.342,3.951,4.717,3.65c2.182-0.28,4.064-2.46,3.646-4.719
				c-0.013-0.069-0.026-0.139-0.039-0.208c-0.339-1.837-1.63-3.324-3.543-3.598c-1.653-0.236-3.899,0.712-4.407,2.463
				c-0.021,0.064-0.039,0.129-0.058,0.194c2.576,1.125,5.154,2.245,7.73,3.365c0.13-0.45,0.263-0.901,0.392-1.352
				c0.691-2.384,0.135-4.916-2.359-6c-2.057-0.898-5.309-0.034-6.003,2.357c-0.021,0.064-0.038,0.135-0.059,0.198
				c-0.819,2.823,0.323,5.942,3.577,6.407C415.91,547.364,418.846,544.784,418.296,541.809L418.296,541.809z"/>
			<path fill="#F79D20" d="M389.203,550.656c-0.192,0.074-0.386,0.148-0.58,0.223c-2.97,1.149-5.119,4.01-5.565,7.134
				c-0.598,4.187,1.731,7.775,5.369,9.623c0.191,0.095,0.381,0.193,0.572,0.289c5.49,2.788,12.196-1.512,13.018-7.269
				C403.034,553.531,395.797,548.104,389.203,550.656L389.203,550.656z"/>
			<g>
				<path display="none" fill="#86592D" d="M575.765,411.479c3.109,4.565,3.893,9.668,2.356,14.973
					c-3.459,11.954,15.107,18.011,18.29,6.054c3.273-12.303,0.703-25.817-12.143-31.001
					C578.835,399.309,572.258,406.331,575.765,411.479L575.765,411.479z"/>
				<path fill="#AC7339" d="M587.277,469.358c-5.423,25.465-20.15,48.458-50.433,45.823c-0.169-0.011-0.34-0.035-0.508-0.045
					l-0.015-0.002c-3.006-0.301-5.886-0.868-8.657-1.694c-13.125-3.877-23.611-13.298-31.84-24.904
					c-1.356-1.909-2.665-3.884-3.907-5.909c-7.479-12.238-12.769-26.099-16.215-38.237c-0.07-0.211-0.126-0.417-0.183-0.626
					c-0.607-2.161-1.194-4.262-1.747-6.303c-4.382-16.103-6.699-28.538,1.193-39.229l0.003-0.014
					c2.767-3.754,6.79-7.285,12.411-10.69c0.188-0.115,0.377-0.231,0.563-0.333c19.549-11.561,45.401-12.678,66.403-2.953
					c5.693,2.614,11.028,6.036,15.789,10.265c1.638,1.45,3.134,2.907,4.539,4.482c0,0,0.016,0.002,0.027,0.018
					c0.707,0.743,1.383,1.527,2.044,2.323c1.914,2.305,3.592,4.689,5.071,7.162c1.951,3.268,3.524,6.67,4.756,10.179
					c0.787,2.2,1.439,4.439,1.958,6.718c1.437,6.185,1.976,12.627,1.835,19.232c-0.053,3.268-0.281,6.568-0.643,9.908
					C589.181,459.429,588.331,464.388,587.277,469.358z"/>
				<path fill="#C68C53" d="M553.499,540.133c-20.941,34.852-51.667,33.815-79.771,17.428c-2.406-1.389-4.793-2.916-7.165-4.529
					c-8.875-6.087-17.392-13.584-25.09-21.792c-2.619-2.794-5.195-5.592-7.76-8.375c-1.583-1.729-3.156-3.44-4.727-5.168
					c-9.516-10.415-18.869-20.764-28.848-30.929c-1.649-1.68-3.328-3.351-5.006-5.021c-1.169-1.14-2.323-2.276-3.504-3.42
					c-6.5-6.276-15.945-13.879-24.19-22.164c-1.865-1.87-3.666-3.786-5.362-5.73c-5.705-6.538-10.191-13.4-11.622-20.316
					c-9.136-44.037,36.254-67.96,73.045-73.224c31.766-4.549,67.257,3.692,92.327,24.196c2.539,2.065,4.984,4.272,7.283,6.605
					c5.955,5.984,11.105,12.815,15.191,20.465c0.712,1.333,1.42,2.678,2.13,4.025c1.112,2.132,2.207,4.292,3.307,6.494
					c3.843,7.761,7.507,15.864,10.699,24.175c0.873,2.299,1.717,4.609,2.519,6.926c2.197,6.353,4.063,12.813,5.498,19.311
					c0.805,3.678,1.464,7.38,1.968,11.07C567.188,500.656,564.85,521.238,553.499,540.133z"/>
				<path opacity="0.2" fill="#FFFFFF" d="M491.261,377.264c-20.014-12.705-54.385-13.417-71.112-3.664
					c-19.558,11.4-38.014,31.384-27.955,55.646c5.301,12.779,16.332,18.358,29.021,19.482c25.352,2.241,74.597-6.62,83.657-35.29
					C510.118,396.839,503.273,384.891,491.261,377.264z"/>
			</g>
			<path fill="#F79D20" d="M223.306,396.99c1.454,9.841,8.19,13.349,17.376,15.642c8.654,2.152,18.554-0.608,22.76-8.932
				c3.761-7.443-6.118-4.257-8.396-5.131c-4.164-1.597-9.597,0.037-14.041-0.499c-3.9-0.472-9.759-2.573-13.192-4.463
				C225.619,392.401,222.969,394.7,223.306,396.99L223.306,396.99z"/>
		</g>
		<path fill="#FFD155" d="M320.769,293.577c-8.271,2.854-20.966-2.975-22.646-12.155c-1.427-7.806,9.723-21.339,13.805-27.47
			c13.878-20.838,31.339-39.04,47.989-57.631c6.02-6.72,18.229-24.952,27.03-25.045c15.418-0.165,11.486,14.675,7.224,22.713
			c-14.658,27.639-38.187,48.934-53.436,76.097C335.424,279.545,332.123,289.66,320.769,293.577z"/>
		<path fill="#FFD155" d="M260.971,275.438c-2.811,8.285-15.195,14.752-23.481,10.456c-7.043-3.652-10.913-20.758-13.256-27.74
			c-7.971-23.729-11.665-48.683-16.16-73.233c-1.625-8.872-8.559-29.691-3.242-36.706c9.315-12.288,18.636-0.092,22.379,8.202
			c12.869,28.517,15.29,60.158,27.419,88.851C258.855,255.259,264.83,264.062,260.971,275.438z"/>
		<path fill="#FFD155" d="M342.439,127.932c-11.149,34.116,12.263,87.583,52.071,85.935c33.443-1.384,67.681-23.877,57.436-59.757
			C439.844,111.712,361.415,69.885,342.439,127.932z"/>
		<path fill="#FFD155" d="M151.454,156.236c19.46,28.361,73.779,41.701,95.718,10.455c18.434-26.252,21.269-65.405-12-78.517
			C195.863,72.68,118.346,107.979,151.454,156.236z"/>
		<g>
			<path fill="#FFFFFF" d="M404.933,191.387c-43.797,11.115-56.85-71.046-10.546-67.964
				C429.414,125.756,442.641,181.817,404.933,191.387z"/>
			<path d="M406.875,150.049c3.654,3.926,6.802,8.369,7.807,13.753c1.32,7.099-0.523,12.036-6.14,16.542
				c-6.208,4.977-16.082,1.584-19.948-4.573c0.459,0.735-3.814-8.761-1.155-3.199c-0.29-0.553-0.622-1.081-0.991-1.584
				c1.34,1.573,1.416,1.76,0.228,0.562c-5.855-5.506-6.156-14.991-0.649-20.85C391.253,145.133,401.393,144.161,406.875,150.049
				L406.875,150.049z"/>
		</g>
		<g>
			<path fill="#FFFFFF" d="M209.921,165.061c-41.97,10.651-54.479-68.083-10.105-65.128
				C233.38,102.167,246.056,155.89,209.921,165.061z"/>
			<path d="M211.783,125.447c3.501,3.762,6.518,8.02,7.479,13.179c1.269,6.803-0.499,11.535-5.882,15.852
				c-5.947,4.769-15.41,1.518-19.117-4.382c0.442,0.704-3.652-8.395-1.105-3.066c-0.278-0.529-0.595-1.035-0.95-1.518
				c1.285,1.507,1.355,1.687,0.215,0.539c-5.609-5.276-5.897-14.365-0.622-19.98C196.811,120.737,206.528,119.805,211.783,125.447
				L211.783,125.447z"/>
		</g>
	</g>
</g>
</svg>
