<?xml version="1.0" encoding="utf-8"?>
<!-- Generator: Adobe Illustrator 16.0.4, SVG Export Plug-In . SVG Version: 6.00 Build 0)  -->
<!DOCTYPE svg PUBLIC "-//W3C//DTD SVG 1.1//EN" "http://www.w3.org/Graphics/SVG/1.1/DTD/svg11.dtd">
<svg version="1.1" id="Layer_1" xmlns="http://www.w3.org/2000/svg" xmlns:xlink="http://www.w3.org/1999/xlink" x="0px" y="0px"
	 width="600px" height="600px" viewBox="0 0 600 600" enable-background="new 0 0 600 600" xml:space="preserve">
<g>
	<g>
		<g>
			<defs>
				<ellipse id="SVGID_1_" cx="302.826" cy="300.137" rx="297.953" ry="298.927"/>
			</defs>
			<clipPath id="SVGID_2_">
				<use xlink:href="#SVGID_1_"  overflow="visible"/>
			</clipPath>
			<ellipse clip-path="url(#SVGID_2_)" fill="#E5F2D9" cx="301.826" cy="300.137" rx="297.953" ry="298.926"/>
		</g>
	</g>
	<g>
		<g>
			<defs>
				<ellipse id="SVGID_3_" cx="302.826" cy="300.137" rx="297.953" ry="298.927"/>
			</defs>
			<clipPath id="SVGID_4_">
				<use xlink:href="#SVGID_3_"  overflow="visible"/>
			</clipPath>
			<g clip-path="url(#SVGID_4_)">
				<g>
					<path fill="#FFD155" d="M828.14,1033.636c-44.213,34.694-134.338,2.416-185.584-5.228
						c-71.87-10.706-141.615-31.74-213.217-45.158c-34.455-6.444-70.282-17.307-107.034-14.171
						c-43.635,3.737-70.87-2.342-87.208-15.84c-4.074-3.375-7.468-7.211-10.269-11.479c-2.802-4.261-5.016-8.933-6.76-13.88
						c4.962-80.782,26.339-168.798-21.367-244.057c-2.541-6.451-4.966-12.701-7.429-18.876c-2.43-6.184-4.908-12.311-7.413-18.356
						c-2.01-6.157-3.778-12.088-5.441-17.994c-8.244-29.417-14.958-58.955-11.929-89.242c0.464-3.79,0.987-7.553,1.544-11.29
						c0.557-3.736,1.147-7.451,1.747-11.142c1.489-6.075,3.18-12.07,5.136-17.965c4.399-13.254,10.149-26.013,18-37.98
						c2.617-3.987,5.467-7.894,8.57-11.714c49.404-50.872,139.885-46.768,185.569,5.405c2.91,3.251,5.641,6.715,8.182,10.396
						c2.521,3.675,4.854,7.571,6.979,11.691c2.543,4.531,4.814,9.181,6.814,13.879c1.998,4.696,3.723,9.441,5.164,14.158
						c1.57,5.812,2.639,11.685,3.316,17.605c1.656,17.658-0.193,35.769-5.469,53.178c-1.062,6.104-2.227,12.188-3.363,18.278
						c-3.416,18.234-6.574,36.499-6.18,55.268c0.996,5.703,2.148,11.323,3.486,16.861c2.553,5.416,5.686,10.595,9.309,15.619
						c2.979,4.201,6.023,8.284,9.137,12.286c18.689,24,39.854,45.949,66.857,63.271c10.836,7.271,21.604,14.156,32.543,21.175
						c10.895,6.979,21.998,14.088,33.266,21.388c13.521,8.786,126.938,89.271,203.787,153.768
						C805.271,992.48,838.376,1025.618,828.14,1033.636z"/>
					<g>
						<path fill="#86592D" d="M575.765,503.423c3.109,4.565,3.895,9.668,2.356,14.975c-3.459,11.952,15.107,18.011,18.29,6.054
							c3.271-12.304,0.703-25.817-12.145-31.001C578.835,491.253,572.258,498.275,575.765,503.423L575.765,503.423z"/>
						<path fill="#AC7339" d="M704.192,710.756c-7.357,34.548-27.339,65.742-68.423,62.168c-0.229-0.015-0.462-0.048-0.688-0.061
							l-0.021-0.003c-4.077-0.408-7.985-1.18-11.745-2.301c-17.809-5.26-32.033-18.041-43.197-33.785
							c-1.838-2.592-3.613-5.271-5.299-8.019c-10.148-16.604-17.324-35.408-21.998-51.876c-0.098-0.287-0.172-0.564-0.25-0.851
							c-0.822-2.934-1.617-5.781-2.369-8.551c-5.945-21.848-9.088-38.719,1.621-53.223l0.002-0.018
							c3.754-5.095,9.213-9.885,16.838-14.504c0.256-0.156,0.512-0.313,0.764-0.451c26.521-15.687,61.6-17.2,90.09-4.008
							c7.727,3.548,14.961,8.188,21.423,13.927c2.222,1.967,4.25,3.943,6.157,6.081c0,0,0.021,0.003,0.035,0.021
							c0.961,1.01,1.877,2.072,2.773,3.152c2.596,3.127,4.873,6.362,6.881,9.717c2.646,4.436,4.78,9.049,6.453,13.811
							c1.064,2.983,1.949,6.021,2.652,9.113c1.949,8.392,2.684,17.13,2.49,26.093c-0.07,4.434-0.381,8.91-0.871,13.441
							C706.771,697.285,705.62,704.013,704.192,710.756z"/>
						<path fill="#C68C53" d="M658.364,806.774c-28.412,47.281-70.098,45.877-108.227,23.645c-3.264-1.885-6.502-3.956-9.719-6.146
							c-12.041-8.259-23.598-18.431-34.039-29.564c-3.555-3.79-7.049-7.587-10.527-11.362c-2.148-2.347-4.281-4.667-6.412-7.012
							c-12.91-14.13-25.602-28.169-39.139-41.96c-2.236-2.279-4.514-4.546-6.791-6.812c-1.586-1.546-3.15-3.089-4.754-4.64
							c-8.816-8.515-21.633-18.83-32.818-30.069c-2.531-2.537-4.977-5.137-7.273-7.772c-7.74-8.871-13.828-18.183-15.771-27.563
							c-12.394-59.745,49.187-92.199,99.101-99.342c43.098-6.171,91.248,5.01,125.26,32.826c3.445,2.803,6.765,5.797,9.881,8.962
							c8.08,8.119,15.068,17.387,20.611,27.765c0.965,1.811,1.926,3.635,2.889,5.462c1.511,2.894,2.992,5.822,4.484,8.812
							c5.217,10.529,10.186,21.521,14.516,32.798c1.188,3.119,2.33,6.254,3.418,9.396c2.982,8.618,5.516,17.386,7.461,26.198
							c1.092,4.99,1.984,10.014,2.666,15.021C676.938,753.218,673.765,781.142,658.364,806.774z"/>
						<path opacity="0.2" fill="#FFFFFF" enable-background="new    " d="M573.927,585.812
							c-27.15-17.237-73.782-18.203-96.477-4.974c-26.535,15.467-51.572,42.578-37.926,75.495
							c7.189,17.338,22.156,24.907,39.373,26.433c34.395,3.04,101.201-8.98,113.492-47.878
							C599.511,612.37,590.226,596.16,573.927,585.812z"/>
					</g>
					<path fill="#F79D20" d="M261.396,523.575c1.973,13.351,11.112,18.107,23.575,21.221c11.741,2.92,25.171-0.826,30.876-12.118
						c5.104-10.098-5.515-8.011-11.392-6.96c-5.631,0.282-13.02,0.05-19.049-0.678c-5.291-0.64-13.24-3.491-17.898-6.055
						C264.535,517.35,260.939,520.468,261.396,523.575L261.396,523.575z"/>
				</g>
				<path fill="#FFD155" d="M342.622,453.276c-11.224,3.872-28.442-4.036-30.724-16.492c-1.938-10.589,13.19-28.949,18.729-37.27
					c18.826-28.271,42.517-52.965,65.104-78.188c8.167-9.116,24.729-33.852,36.673-33.979c20.918-0.223,15.584,19.909,9.799,30.814
					c-19.887,37.497-51.806,66.387-72.496,103.239C362.505,434.238,358.027,447.962,342.622,453.276z"/>
				<path fill="#FFD155" d="M261.497,428.666c-3.813,11.24-20.615,20.014-31.856,14.186c-9.555-4.953-14.805-28.159-17.984-37.634
					c-10.814-32.192-15.825-66.049-21.925-99.354c-2.205-12.034-11.612-40.28-4.398-49.797
					c12.638-16.673,25.284-0.126,30.362,11.127c17.459,38.688,20.744,81.615,37.199,120.542
					C258.625,401.29,266.732,413.233,261.497,428.666z"/>
				<path fill="#FFD155" d="M369.438,223.516c-18.117,55.425,19.918,142.285,84.592,139.607
					c54.333-2.248,109.954-38.789,93.309-97.08C527.676,197.166,400.262,129.214,369.438,223.516z"/>
				<path fill="#FFD155" d="M90.812,268.827c33.782,49.232,128.077,72.39,166.161,18.15c32-45.573,36.922-113.539-20.831-136.3
					C167.904,123.777,33.339,185.055,90.812,268.827z"/>
				<g>
					<path fill="#FFFFFF" d="M468.859,332.323c-82.916,21.044-107.627-134.495-19.963-128.661
						C515.206,208.077,540.247,314.206,468.859,332.323z"/>
					<path fill="#264D73" d="M472.536,254.067c6.918,7.431,12.876,15.843,14.78,26.036c2.499,13.439-0.992,22.786-11.627,31.316
						c-11.748,9.422-30.442,2.999-37.762-8.657c0.865,1.393-7.224-16.585-2.188-6.057c-0.548-1.047-1.179-2.046-1.874-2.999
						c2.533,2.979,2.678,3.331,0.427,1.063c-11.084-10.423-11.656-28.379-1.227-39.472
						C442.96,244.759,462.157,242.922,472.536,254.067L472.536,254.067z"/>
				</g>
				<g>
					<path fill="#FFFFFF" d="M200.992,291.056C118.539,311.98,93.964,157.302,181.14,163.105
						C247.08,167.494,271.982,273.04,200.992,291.056z"/>
					<path fill="#264D73" d="M204.65,213.23c6.878,7.391,12.806,15.757,14.693,25.892c2.492,13.366-0.979,22.659-11.557,31.142
						c-11.683,9.369-30.274,2.982-37.557-8.609c0.868,1.383-7.175-16.492-2.171-6.024c-0.547-1.038-1.169-2.033-1.866-2.981
						c2.523,2.961,2.663,3.313,0.422,1.06c-11.021-10.366-11.586-28.222-1.221-39.254
						C175.236,203.977,194.327,202.146,204.65,213.23L204.65,213.23z"/>
				</g>
			</g>
		</g>
	</g>
</g>
</svg>
