<?xml version="1.0" encoding="utf-8"?>
<!-- Generator: Adobe Illustrator 16.0.4, SVG Export Plug-In . SVG Version: 6.00 Build 0)  -->
<!DOCTYPE svg PUBLIC "-//W3C//DTD SVG 1.1//EN" "http://www.w3.org/Graphics/SVG/1.1/DTD/svg11.dtd">
<svg version="1.1" id="Layer_1" xmlns="http://www.w3.org/2000/svg" xmlns:xlink="http://www.w3.org/1999/xlink" x="0px" y="0px"
	 width="1200px" height="630px" viewBox="0 0 1200 630" enable-background="new 0 0 1200 630" xml:space="preserve">
<g id="Layer_1_1_">
	<g id="Background">
		<rect x="-31" y="-314.429" fill="#3F6020" width="1262" height="1258.853"/>
	</g>
	<g id="Objects">
		<path fill="#324D19" d="M651.778,66.186c-16.177-27.464-32.346-54.93-48.528-82.39c-0.619-1.047-2.47-1.073-3.079,0
			c-15.14,26.623-31.91,52.375-47.453,78.781c-0.31,0.526-0.208,1.013,0.082,1.375c-0.816,0.231-1.603,0.522-2.344,0.89
			c-0.125,0.063-0.122,0.235,0,0.299c5.655,2.955,14.041,1.681,20.427,1.936c8.172,0.325,16.332,1.035,24.501,1.334
			c-4.855,35.551-8.21,71.29-12.093,106.937c-0.151,1.382,2.067,2.176,3.038,1.15c7.753-8.205,15.506-16.409,23.261-24.613
			c10.904,8.398,22.188,16.346,33.87,23.826c1.396,0.892,2.859-0.578,2.611-1.834c-6.97-35.315-15.972-70.249-26.968-104.696
			l31.139-0.549C651.619,68.606,652.42,67.277,651.778,66.186z M616.239,65.985c-1.927,0.035-2.212,2.344-0.874,3.035
			c10.716,33.445,19.523,67.354,26.441,101.62c-10.725-6.996-21.119-14.366-31.166-22.165c-0.689-0.537-1.847-0.708-2.517,0
			c-6.909,7.31-13.816,14.62-20.728,21.929c3.756-34.065,7.914-68.128,10.682-102.272c0.894-0.74,0.468-2.462-1.1-2.654
			c-8.619-1.052-17.414-1.308-26.097-1.631c-4.665-0.172-10.354-1.076-15.323-0.441c17.018-24.113,31.69-49.852,46.178-75.307
			c15.181,25.782,30.37,51.558,45.559,77.333C636.944,65.617,626.594,65.802,616.239,65.985z"/>
		<path fill="#324D19" d="M249.065,609.624c-4.364-1.757-8.715-3.536-13.063-5.316c34.503-16.325,75.251-45.544,39.297-69.1
			c-18.105-11.86-54.209-12.211-62.674-28.777c-10.296-20.148,19.611-37.812,49.351-46.601c2.21-0.653,0.689-2.781-1.747-2.264
			c-39.918,8.478-80.864,41.16-42.545,61.851c9.179,4.957,21.335,7.502,32.508,10.8c18.427,5.441,29.644,13.645,29.991,25.366
			c0.596,20.049-26.354,33.263-50.747,46.054c-2.945-1.193-5.908-2.381-8.883-3.555c0.585-1.698-2.85-2.642-5.48-2.13
			c-0.666-0.257-1.324-0.521-1.995-0.775c-1.289-0.487-2.705-0.069-3.348,0.563c-1.437-0.408-3.719-0.072-4.459,0.896
			c-4.519,5.904-6.419,12.633-8.924,18.892c-1.734,4.325-3.857,8.657-4.587,13.064l-0.618,0.927
			c-0.391,0.586-0.16,1.151,0.378,1.629c-0.009,0.362-0.042,0.727-0.027,1.092c0.071,1.664,4.302,1.578,4.637,0
			c0.002-0.013,0.006-0.02,0.006-0.025c0.316-0.049,0.63-0.109,0.924-0.214c17.35-6.204,34.68-12.429,52.005-18.652
			C251.717,612.4,251.487,610.599,249.065,609.624z M211.089,599.609c-0.289,0.186-0.534,0.402-0.684,0.678
			c-0.097,0.18-0.205,0.354-0.302,0.535c0.304-1.057,0.551-2.117,0.734-3.186c0.397,0.188,0.795,0.376,1.19,0.563
			C211.713,598.671,211.402,599.139,211.089,599.609z M224.438,604.277c-0.095,0.05-0.158,0.104-0.243,0.154
			c-1.24-0.339-2.477-0.678-3.72-1.019c-0.42-0.222-0.838-0.445-1.256-0.669c-0.004-0.024,0.001-0.046-0.004-0.071
			c-0.049-0.459-0.397-0.836-0.896-1.124c0.062-0.09,0.122-0.185,0.183-0.274c2.059,0.959,4.14,1.906,6.216,2.854
			C224.626,604.18,224.531,604.229,224.438,604.277z"/>
		<path fill="#324D19" d="M146.329,206.947c25.734-11.336,49.672-32.016,59.664-61.808c8.634-25.745,2.757-61.153-23.678-84.147
			c-35.217-30.628-79.471-34.462-109-16.74c3.007-5.062,6.017-10.122,9.011-15.194c1.778-3.015-2.593-8.038-4.905-5.323
			c-2.157,2.534-4.185,5.171-6.132,7.875c1.249-3.504,2.507-7.001,3.844-10.455c0.732-1.832-0.604-3.833-2.155-4.681
			c-0.604-2.8-4.751-4.59-5.739-2.001c-6.867,17.99-13.813,35.926-20.5,54.043c-1.192,3.232,3.291,6.488,5.065,4.213
			c0.199,0.073,0.372,0.19,0.589,0.231c0.09,0.017,0.177,0.032,0.265,0.051c1.041,2.38,4.04,3.944,4.862,1.363
			c0.043-0.142,0.087-0.282,0.13-0.422c0.059,0.01,0.116,0.021,0.174,0.032c0.577,0.108,1.001-0.053,1.345-0.316
			c13.989,1.475,27.992,3.299,42.177,5.952c4.024,0.754,2.739-6.066-1.168-7.015l-15.691-3.804
			c4.348-0.113,8.696-0.227,13.042-0.341c3.622-0.093,2.846-6.4-1.15-6.901c-7.459-0.938-14.683-1.221-21.723-0.857
			c4.448-3.32,8.568-7.113,12.372-11.425c0.902-1.021,0.674-2.486-0.052-3.739c25.535-9.488,57.396-5.859,86.744,16.007
			c33.366,24.861,35.117,64.868,21.14,91.18c-11.882,22.373-30.835,37.912-52.599,47.701
			C138.97,201.913,143.06,208.391,146.329,206.947z"/>
		<path fill="#324D19" d="M1132.396,611.281c-0.723,0.379-1.425,0.773-2.113,1.181c-4.988,3.395-9.279,7.312-13.191,11.984
			c-1.281,1.53-3.998-0.525-2.795-2.156c0.093-0.122,0.188-0.236,0.281-0.358l0,0c0.004-0.009,0.01-0.015,0.016-0.021
			c2.598-3.457,5.468-6.438,8.729-9.002c-29.101,2.926-53.049-19.26-62.575-46.252c-0.379-1.08,1.281-1.493,1.69-0.468
			c10.418,26.06,35.162,47.864,64.265,42.671c-5.242-3.267-10.487-6.531-15.73-9.796c-1.954-1.217-0.22-4.202,1.806-3.09
			c6.292,3.461,12.587,6.915,18.879,10.377c0.825,0.452,1.01,1.22,0.812,1.9C1133.484,608.964,1133.596,610.651,1132.396,611.281z"
			/>
		<path fill="#324D19" d="M891.325,635.553c-14.362-29.439-30.357-57.599-47.894-84.452c-0.83-1.27-2.5-0.67-3.115,0.481
			c-6.018,11.271-11.479,22.872-16.429,34.859c-0.107-0.248-0.256-0.484-0.494-0.675c-21.397-16.974-30.401-54.791-33.593-83.674
			c-3.472-31.472,0.218-63.588,10.694-92.73c0.532-1.47,0.13-2.916-1.177-3.476c-16.032-6.872-31.743-14.652-47.145-23.359
			c-0.92-0.521-2.186-0.371-2.701,0.85c-17.557,41.543-22.182,90.714-10.124,135.326c10.803,39.962,35.635,73.38,69.367,86.007
			c-5.503,9.595-9.913,19.774-13.356,30.708c-0.481,1.533,0.738,2.923,1.906,3.006c30.767,2.129,61.562,2.363,92.346,0.705
			C891.093,639.051,892.112,637.163,891.325,635.553z M800.116,633.854c3.506-10.438,7.98-20.109,13.484-29.278
			c0.763-1.272-0.049-3.103-1.183-3.484c-75.441-25.439-91.029-138.253-60.314-213.425c14.433,8.076,29.136,15.367,44.111,21.868
			c-10.38,30.098-13.933,62.838-10.076,95.153c3.437,28.8,12.893,68.965,35.816,84.032c0.605,0.398,1.175,0.252,1.568-0.148
			c0.391,1.878,2.694,2.924,3.584,0.755c4.577-11.121,9.617-21.889,15.105-32.387c16.018,24.741,30.682,50.644,43.988,77.595
			C857.505,635.95,828.795,635.726,800.116,633.854z"/>
		<path fill="#324D19" d="M1177.833,157.736c-11.809,0.012-23.319-1.643-34.646-4.967c-1.278-0.375-2.511,0.881-2.151,2.151
			c1.102,3.896,2.395,7.731,3.836,11.51c-17.667,6.484-35.663,12.005-53.976,16.371c-16.28,3.88-35.147,9.219-51.752,4.194
			c-19.902-6.024-24.769-27.425-18.832-45.382c5.648-17.101,18.033-35.119,35.156-41.945c0.888-0.353,0.566-1.643-0.398-1.446
			c-17.351,3.526-29.841,22.662-36.252,37.836c-6.686,15.817-6.935,36.493,7.517,48.222c13.54,10.992,32.851,8.729,48.762,5.626
			c24.198-4.724,47.956-11.654,71.087-20.166c1.117,2.728,2.312,5.423,3.587,8.082c0.804,2.209,1.661,4.406,2.587,6.59
			c0.496,1.172,2.015,0.975,2.797,0.361c8.969-7.042,16.924-15,23.939-23.996C1179.993,159.624,1179.514,157.734,1177.833,157.736z
			 M1163.593,160.479c0.233,0.983,0.427,1.958,0.58,2.93c-0.502-1.004-0.985-2.018-1.458-3.041
			C1163.009,160.404,1163.299,160.446,1163.593,160.479z M1159.296,163.845c-0.692-1.435-1.403-2.863-2.139-4.279
			c0.571,0.096,1.142,0.192,1.713,0.28c-0.006,0.089-0.033,0.17-0.023,0.267C1158.995,161.356,1159.146,162.601,1159.296,163.845z
			 M1153.289,159.698c0.164,0.875,0.309,1.75,0.459,2.627c-0.419-1.13-0.837-2.259-1.255-3.387c-0.036-0.1-0.083-0.186-0.131-0.271
			c0.325,0.067,0.653,0.13,0.979,0.196C1153.27,159.125,1153.23,159.399,1153.289,159.698z M1149.112,159.87
			c0.383,1.593,0.711,3.18,0.991,4.767c-0.767-2.25-1.533-4.5-2.293-6.752c-0.038-0.117-0.107-0.19-0.16-0.289
			c0.684,0.169,1.364,0.33,2.048,0.489C1149.213,158.444,1148.92,159.061,1149.112,159.87z M1154.354,179.887
			c0.265-0.281,0.437-0.667,0.438-1.165c0.004-1.253-0.047-2.494-0.097-3.733c0.285,0.771,0.57,1.544,0.855,2.316
			c0.271,0.733,0.953,1.122,1.646,1.19c-0.842,0.718-1.691,1.428-2.551,2.129C1154.546,180.381,1154.452,180.132,1154.354,179.887z
			 M1158.436,170.444c0.736,1.678,1.449,3.367,2.125,5.078c-0.518,0.472-1.031,0.952-1.56,1.419c0-0.038,0.017-0.063,0.014-0.103
			C1158.872,174.695,1158.668,172.567,1158.436,170.444z M1163.599,169.952c0.328,0.583,0.661,1.161,1.003,1.74
			c-0.235,0.233-0.475,0.462-0.714,0.694C1163.791,171.573,1163.694,170.763,1163.599,169.952z"/>
		<path fill="#324D19" d="M811.803-118.388c0.11-0.349,0.219-0.698,0.325-1.047c0.22-0.71-0.266-1.658-1.024-1.803
			c-0.283-0.054-0.572-0.114-0.858-0.168c0.263-0.712,0.035-1.577-0.951-1.867c-18.155-5.355-36.309-10.711-54.438-16.158
			c-1.488-0.447-2.54,1.874-1.08,2.561c2.853,1.34,5.729,2.634,8.609,3.903c-5.347-1.275-10.683-2.599-16.002-3.983
			c-1.698-0.442-2.403,2.133-0.724,2.624c7.754,2.26,15.533,4.439,23.346,6.487c-6.685-1.086-13.412-1.95-20.215-2.42
			c-1.561-0.107-1.71,2.15-0.354,2.608c6.222,2.099,12.498,4.01,18.819,5.762c-0.796-0.068-1.591-0.145-2.385-0.204
			c-0.989-0.074-1.229,1.304-0.482,1.773l3.917,2.465c0.983,0.621,1.864-0.915,0.906-1.55c-0.192-0.127-0.385-0.254-0.576-0.381
			c5.402,0.601,10.769,1.356,16.104,2.267c2.271,0.501,4.546,0.974,6.826,1.429c-1.892,1.175-3.747,2.389-5.566,3.647
			c-13.54,6.63-23.27,16.953-30.426,29.35c-21.438,28.781-30.657,65.879-23.742,102.789c0.283,1.519,2.908,1.193,2.728-0.37
			c-0.179-1.55-0.326-3.101-0.449-4.65c0.104-0.14,0.183-0.307,0.218-0.518c0.633-4.021,1.229-8.211,1.834-12.511
			c0.176,4.236,0.438,8.465,0.756,12.674c0.126,1.944,0.275,3.886,0.464,5.825c0.075,0.773,0.687,1.178,1.296,1.229
			c0.013,0.201,0.019,0.404,0.028,0.603c0.091,1.772,2.858,1.782,2.765,0c-0.111-2.556-0.185-5.125-0.231-7.703
			c-0.116-9.909,0.548-19.852,2.066-29.618c-0.633,10.715,0.161,21.559,2.521,32.225c0.239,1.086,1.89,0.624,1.664-0.459
			c-6.796-32.654,1.497-67.082,20.611-93.846c7.271-9.842,16.138-18.609,26.697-25.902c-0.505,3.524-1.061,7.04-1.702,10.542
			c-2.335,8.562-4.335,17.213-5.995,25.956c-0.152,0.802,0.298,1.38,0.872,1.631c-0.681,2.427-1.377,4.848-2.029,7.281
			c-0.497,1.839,2.264,2.583,2.839,0.782c0.991-3.095,1.938-6.203,2.866-9.315c0.351,0.244,0.821,0.339,1.277,0.245
			c-0.051,0.721-0.101,1.44-0.15,2.16c-0.116,1.705,2.497,1.994,2.933,0.397c4.759-17.422,9.89-34.726,15.245-51.971
			C812.679-115.23,813.403-117.766,811.803-118.388z M799.632-114.546c0.062,0.016,0.125,0.028,0.188,0.043
			c-0.256,0.741-0.517,1.479-0.768,2.222c0.043-0.66,0.089-1.32,0.131-1.982C799.336-114.354,799.48-114.453,799.632-114.546z
			 M800.898-117.575c-0.38-0.086-0.76-0.167-1.141-0.251c0.118-0.211,0.165-0.435,0.16-0.66c0.455,0.117,0.908,0.233,1.364,0.35
			C801.129-117.992,800.995-117.812,800.898-117.575z M796.591-119.028c-0.209,0.118-0.41,0.244-0.62,0.362
			c-7.466-1.698-14.913-3.485-22.346-5.32c-1.801-0.457-3.604-0.913-5.403-1.369c9.548,1.554,18.998,3.685,28.398,6.035
			C796.609-119.223,796.601-119.126,796.591-119.028z M807.974-116.057c0,0.016-0.003,0.033-0.004,0.047
			c-1.444-0.312-2.887-0.64-4.331-0.958c0.013-0.214-0.013-0.405-0.073-0.581c1.472,0.383,2.944,0.769,4.417,1.156
			C807.981-116.281,807.979-116.177,807.974-116.057z M744.826-58.408c-1.24,2.869-2.307,5.775-3.248,8.71
			c-3.179,7.771-5.69,15.817-7.475,24.033c2.214-13.235,6.479-25.99,12.588-37.813c-0.454,1.283-0.887,2.579-1.308,3.882
			C745.204-59.196,745.003-58.815,744.826-58.408z M746.069-38.805c0.796-3.521,1.709-7.006,2.732-10.452
			c1.559-3.211,3.243-6.362,5.033-9.452C750.769-52.306,748.185-45.646,746.069-38.805z M757.477-80.844
			c3.34-4.526,7-8.833,10.937-12.911c-3.247,3.963-6.239,8.107-8.974,12.41c-1.172,1.579-2.318,3.178-3.426,4.803
			c-0.729,0.887-1.457,1.78-2.149,2.701C754.982-76.242,756.189-78.576,757.477-80.844z M771.648-86.938
			c-5.928,6.271-11.263,13.034-15.961,20.201c4.665-8.757,10.771-16.018,17.86-22.402C772.908-88.409,772.268-87.682,771.648-86.938
			z M771.863-91.849c7.171-7.643,15.221-14.501,24.062-20.342c-0.122,1.104-0.259,2.208-0.394,3.309
			C787.079-103.653,779.012-98.183,771.863-91.849z M803.194-100.493c0.72-3.279,1.403-6.573,2.029-9.878
			c0.31-1.631-1.585-2.396-2.521-1.405c0.123-0.655,0.246-1.311,0.37-1.966c1.364,0.331,2.726,0.675,4.086,1.028
			c-0.461,1.241-1.006,2.477-1.354,3.598C804.922-106.248,804.062-103.369,803.194-100.493z"/>
		<path fill="#324D19" d="M258.733,154.308c-8.839-27.085-15.548-54.76-20.068-82.843c2.208,1.471,4.414,2.947,6.623,4.418
			c2.54,2.196,5.051,4.426,7.505,6.733c1.213,1.141,3.273-0.322,2.359-1.82c-0.189-0.31-0.376-0.621-0.564-0.931
			c0.517-0.416,0.768-1.118,0.304-1.851c-1.155-1.83-2.31-3.66-3.466-5.487c0.695-0.405,1.132-1.254,0.598-2.095
			c-5.321-8.389-10.943-16.558-16.857-24.53c-0.017-0.15-0.037-0.298-0.056-0.448c-0.089-0.731-0.635-1.139-1.215-1.252
			c-0.778-1.037-1.54-2.084-2.328-3.114c-1.032-1.349-3.168-0.459-2.928,0.954c-0.306,0.102-0.557,0.332-0.711,0.701
			c-0.651,0.024-1.264,0.454-1.266,1.328c-0.001,1.479-0.04,2.953-0.08,4.426c-0.396,1.836-0.776,3.673-1.141,5.514
			c-0.481-0.754-1.846-0.321-1.538,0.653c0.291,0.928,0.588,1.854,0.879,2.781c-1.537,8.155-2.775,16.355-3.72,24.606
			c-0.526,3.037-1.049,6.077-1.575,9.115c-0.162,0.935,0.458,1.59,1.162,1.763c0.665,0.275,1.521,0.163,1.952-0.562
			c2.401-4.051,4.561-8.193,6.53-12.428c0.652-1.025,1.25-2.071,1.782-3.148c0.689,2.177,1.377,4.354,2.069,6.531
			c4.065,17.22,9.546,34.117,15.48,50.849c2.107,7.025,4.493,13.978,7.25,20.828c0.196,0.487,0.587,0.734,1.002,0.814
			C257.691,156.333,259.17,155.646,258.733,154.308z M232.975,50.534c0.087,0.721,0.167,1.442,0.257,2.163
			c-0.375-0.347-0.842-0.423-1.281-0.343c0.094-1.054,0.184-2.112,0.26-3.17C232.463,49.636,232.719,50.085,232.975,50.534z
			 M231.63,55.608c0.199,0.285,0.405,0.565,0.607,0.85c-0.112,0.442-0.047,0.947,0.353,1.424l1.569,1.873
			c0.003,0.021,0.006,0.042,0.009,0.063c0.081,0.631,0.166,1.264,0.247,1.897c-1.014-0.445-2.028-0.891-3.045-1.335
			c-0.053-0.351-0.115-0.701-0.166-1.054C231.36,58.088,231.498,56.849,231.63,55.608z M233.179,70.86
			c0.147-0.518,0.291-1.035,0.418-1.57c0.16-0.682-0.08-1.2-0.474-1.524c0.766,0.512,1.532,1.023,2.299,1.533
			c1.339,9.841,2.831,19.661,4.639,29.412c-0.345-1.066-0.694-2.129-1.041-3.194C236.769,87.371,234.787,79.157,233.179,70.86z"/>
		<path fill="#324D19" d="M946.971,701.396c-9.831,13.097-14.187,29.608-13.383,45.831c-3.4-7.852-7.286-15.504-9.974-23.709
			c-3.765-11.481-6.422-23.315-7.972-35.298c-3.013-23.357-3.699-51.702,6.332-73.488c0.269-0.582-0.526-1.073-0.874-0.511
			c-5.909,9.666-7.281,21.55-8.405,32.641c-1.312,12.941-1.261,26.014,0.105,38.945c1.285,12.191,3.709,24.259,7.273,35.99
			c2.136,7.03,4.511,14.702,7.676,21.815c-5.771-5.734-12.036-10.979-19.044-15.079c-0.717-0.416-1.581,0.617-0.911,1.181
			c9.729,8.151,19.11,16.098,26.825,26.299c1.2,1.587,3.432,0.646,3.146-1.324c-2.729-18.679,1.905-35.915,12.074-51.616
			C951.031,701.238,948.222,699.729,946.971,701.396z"/>
		<path fill="#324D19" d="M486.686,417.068c-31.275,4.878-62.611,7.763-93.739,8.668c5.034-19.666,8.685-39.284,10.839-58.84
			c0.132-1.209-2.512-1.572-3.508-0.287c-12.147,15.641-24.488,31.223-38.783,46.39c-14.023,14.878-29.657,29.268-45.913,43.454
			c-0.905,0.792,0.802,1.457,1.776,0.687c33.527-26.505,58.938-55.25,82.095-84.61c-2.272,18.09-5.758,36.236-10.559,54.42
			c-0.156,0.596,0.508,1.167,1.541,1.144c27.839-0.688,55.857-2.996,83.856-6.87c-21.211,7.184-42.42,14.37-63.624,21.563
			c-23.037,7.817-47.354,14.991-68.829,24.651c-1.972,0.888-0.359,2.304,1.576,1.926c0.562,0.455,1.116,0.914,1.702,1.356
			c-0.312,0.368-0.335,0.789,0.187,1.138c6.557,4.348,12.476,8.989,17.826,13.934c-24.475,3.94-49.021,7.045-73.602,9.311
			c1.573-14.72,3.74-29.467,6.199-44.236c5.945,1.885,11.863,3.795,17.807,5.678c1.384,0.439,3.068-0.898,1.705-1.394
			c-6.611-2.405-13.272-4.768-19.869-7.185c-1.069-0.392-2.947,0.107-3.116,1.005c-2.994,15.859-5.114,31.694-6.746,47.485
			c-0.085,0.824,0.739,1.26,2.112,1.137c26.348-2.38,52.657-5.729,78.882-10.036c1.583-0.261,2.09-1.291,1.396-1.958
			c-5.76-5.505-12.192-10.64-19.386-15.438c-0.426-0.287-0.981-0.356-1.528-0.295c-0.073-0.081-0.146-0.159-0.22-0.241
			c0.25-0.19,0.377-0.432,0.217-0.624c-0.228-0.268-0.523-0.507-0.842-0.737c21.602-9.493,46.039-16.646,69.026-24.443
			c24.137-8.191,48.267-16.388,72.394-24.586C489.616,418.527,488.923,416.72,486.686,417.068z"/>
		<path fill="#324D19" d="M300.607,386.404c-10.362,12.092-26.794,13.928-41.732,15.163c-10.198,0.84-20.522,1.391-30.784,0.986
			c-9.024-2.896-17.774-6.616-25.78-10.292c-13.645-6.265-26.68-14.061-37.851-23.876c-3.833-4.375-7.375-9.009-10.608-13.864
			c4.487,2.547,9.05,4.937,13.703,7.17c2.585,1.752,5.224,3.435,7.953,4.998c0.735,0.422,1.4,0.256,1.837-0.164
			c1.137-0.278,1.987-1.916,0.881-2.818c-0.288-0.23-0.573-0.465-0.86-0.697c-0.124-0.275-0.307-0.541-0.624-0.765
			c-0.774-0.542-1.548-1.088-2.321-1.63c-6.883-5.594-13.766-11.188-20.648-16.781c-3.034-2.992-5.988-6.07-8.86-9.236
			c-0.003-0.068-0.006-0.135-0.009-0.201c-0.046-1.074-0.966-1.527-1.775-1.4c-0.808-0.208-1.835,0.195-1.956,1.085
			c-0.205,1.506-0.37,3.015-0.562,4.521c-0.281,0.358-0.437,0.84-0.406,1.315c-0.782,0.258-1.411,1.14-0.932,2.11
			c0.241,0.486,0.487,0.977,0.728,1.466c-1.693,14.181-2.887,28.401-3.487,42.68c-0.086,2.035,2.892,1.943,3.108,0
			c0.352-3.165,0.704-6.331,1.056-9.499c0.124,1.542,0.257,3.084,0.423,4.628c0.199,1.859,2.842,1.993,3.035,0.158
			c0.048,0.715,0.082,1.427,0.135,2.138c0.132,1.744,2.826,1.783,2.748,0c-0.219-4.998-0.431-10-0.645-15
			c-0.041-4.182,0.024-8.359,0.209-12.535c5.902,10.531,12.759,20.532,21.757,28.649c10.531,9.502,23.433,15.255,37.112,18.247
			c1.909,0.914,3.841,1.786,5.798,2.605c15.434,6.462,32.922,10.6,49.695,8.31c8.716-1.191,16.753-4.32,23.936-8.875
			c3.543-1.904,6.95-4.304,10.168-7.296c0.35-0.327,0.482-0.698,0.461-1.051c2.609-2.487,5.059-5.17,7.315-8.033
			C304.044,387.07,301.94,384.848,300.607,386.404z M148.947,351.626c0.416,0.251,0.833,0.494,1.248,0.742
			c0.808,1.35,1.634,2.69,2.487,4.012C151.39,354.84,150.154,353.245,148.947,351.626z M168.78,380.914
			c-6.076-5.789-11.136-12.441-15.593-19.512c3.849,4.246,8.02,8.179,12.446,11.826c7.938,8.738,17.062,16.383,27.086,22.68
			C183.923,392.477,175.776,387.576,168.78,380.914z M211.115,400.896c-1.887-0.312-3.759-0.681-5.616-1.1
			c-8.791-4.286-17.022-9.539-24.57-15.613c8.333,5.197,17.169,9.664,26.191,13.488c3.251,1.38,6.62,2.753,10.072,4.069
			C215.16,401.51,213.134,401.231,211.115,400.896z M256.568,411.267c-13.203,0.993-26.752-1.744-39.304-6.408
			c3.741,0.423,7.499,0.691,11.265,0.841c9.964,3.113,20.311,5.287,30.364,5.325C258.123,411.112,257.352,411.208,256.568,411.267z
			 M283.952,401.855c-13.448,7.237-28.779,7.252-43.919,3.942c7.812-0.16,15.621-0.715,23.35-1.465
			c8.223-0.797,16.683-2.049,24.269-5.115C286.444,400.138,285.218,401.028,283.952,401.855z"/>
		<g>
			<path fill="#324D19" d="M874.219,174.838c-21.794,10.188-42.065,24.165-62.827,35.982c-20.985,11.948-42.275,23.454-63.325,35.31
				c-1.336,0.75-0.139,2.604,1.242,1.893c22.162-11.408,43.901-23.522,65.645-35.543c20.392-11.276,42.669-21.805,61.404-35.181
				C877.973,176.143,875.91,174.047,874.219,174.838z"/>
			<path fill="#324D19" d="M898.212,170.423c-1.063,0.562-2.131,1.125-3.197,1.688c-0.233,0.125-0.417,0.28-0.555,0.454
				c-24.897,14.165-49.082,29.477-73.229,44.606c-24.289,15.214-49.186,30.222-72.055,47.108c-0.951,0.704,0.286,2.122,1.319,1.522
				c25.362-14.753,49.558-31.222,74.469-46.584c24.966-15.395,50.517-30.01,75.544-45.307
				C902.886,172.456,900.763,169.078,898.212,170.423z"/>
			<path fill="#324D19" d="M903.456,181.825c-27.504,14.387-53.066,33.009-79.092,49.446
				c-25.174,15.896-50.856,31.341-75.233,48.204c-0.85,0.589,0.253,1.829,1.149,1.322c27.188-15.289,53.253-32.269,79.649-48.602
				c25.188-15.585,52.387-30.105,75.981-47.542C907.707,183.326,905.401,180.807,903.456,181.825z"/>
			<path fill="#324D19" d="M957.696,131.443c-0.797,2.036-1.575,4.083-2.352,6.126c0.188-1.146-0.593-2.475-2.146-2.367
				c-2.234,0.117-4.459,0.313-6.679,0.588c-0.817,0.087-1.325,0.523-1.525,1.036c-18.74,3.851-37.508,7.598-56.266,11.376
				c-21.161,4.263-43.015,7.643-63.718,13.436c-0.84,0.235-0.742,1.555,0.22,1.441c20.943-2.452,41.758-7.388,62.402-11.346
				c22.046-4.227,44.079-8.526,66.159-12.62c0.594-0.111,1.009-0.416,1.268-0.802c-0.245,0.654-0.489,1.309-0.732,1.963
				c-1.552,0.3-3.103,0.651-4.654,0.98c-0.251-0.033-0.497,0.008-0.697,0.149c-20.289,4.38-40.382,11.08-60.256,16.461
				c-22.525,6.103-45.146,12.012-67.415,18.827c-1.18,0.359-0.715,1.956,0.521,1.676c22.807-5.173,45.349-11.271,67.931-17.163
				c18.619-4.859,38.104-8.853,56.616-14.438c-14.176,30.424-24.646,62.667-33.191,94.658c-0.816-0.131-1.715,0.164-1.847,1.016
				c-0.075,0.469-0.146,0.937-0.222,1.406c-0.14,0.887,0.129,1.464,0.919,2.003c0.44,0.304,0.888,0.607,1.331,0.912
				c1.139,0.778,2.967-0.056,3.27-1.184c9.075-33.866,20.896-66.664,32.802-99.763c1.076-0.339,2.163-0.659,3.232-1.009
				c-5.83,16.048-10.994,32.304-15.98,48.557c-3.102,10.102-6.082,20.23-8.938,30.389c-1.339,4.778-6.505,13.963-2.959,18.49
				c0.701,0.891,1.723,1.079,2.827,0.657c0.25-0.095,0.504-0.191,0.753-0.286c0.657-0.251,0.935-0.954,0.982-1.528l0.074-0.796
				c0.062-0.688-0.608-1.354-1.339-1.518c-0.194-0.041-0.384-0.082-0.579-0.082h-0.011c1.604-4.489,4.083-12.816,4.373-13.878
				c1.303-4.789,2.629-9.601,3.984-14.376c2.372-8.359,4.824-16.715,7.361-25.039c4.272-14.021,8.914-27.951,13.441-41.904
				c0.256-0.089,0.52-0.169,0.772-0.257c1.81-0.637,1.68-2.596,0.345-3.214c0.854-2.641,1.712-5.282,2.55-7.929
				C960.809,130.57,958.269,129.982,957.696,131.443z"/>
		</g>
		<path fill="#324D19" d="M709.52,34.96c-0.311-1.468-2.128-1.347-2.866-0.375c-1.013,1.328-2.04,2.642-3.078,3.948
			c-0.203-0.799-1.384-0.708-1.487,0.184c-0.078,0.648-0.146,1.293-0.222,1.941c-2.4,2.976-4.831,5.924-7.215,8.908
			c-1.445,1.805-5.251,4.936-4.751,7.54c0.063,0.333,0.428,0.566,0.75,0.569c0.15,0.001,0.302,0.003,0.451,0.004
			c0.429,0.005,0.693-0.342,0.734-0.734c0.013-0.114,0.026-0.226,0.036-0.341c0.005-0.042-0.01-0.074-0.013-0.111
			c0.411-0.181,0.746-0.577,0.999-1.208c0.776-0.892,1.552-1.785,2.331-2.677c1.55-1.79,3.088-3.586,4.63-5.387
			c0.5-0.585,0.998-1.169,1.496-1.754c-2.873,25.518-4.973,50.817-9.953,76.154c-0.399,2.029,2.512,2.876,3.124,0.861
			c0.224-0.744,0.45-1.486,0.674-2.229c0.093-0.307,0.051-0.583-0.047-0.833c5.081-24.85,9.243-51.37,8.627-76.793
			c1.072-1.252,2.165-2.487,3.254-3.725c1.02,6.719,1.743,13.629,3.35,20.167c0.396,1.608,2.928,1.275,2.895-0.392
			C713.075,50.839,711.136,42.611,709.52,34.96z"/>
		<g>
			<path fill="#324D19" d="M898.622,299.411c-1.179,4.123-2.312,8.575-5.253,12.341c-6.579,8.422-17.988,5.805-24.065,0.378
				c-5.29-4.723-8.731-12.34-17.188-14.28c-22.794-5.231-21.222,28.378-39.568,30.151c-21.303,2.056-22.022-26.432-44.933-23.092
				c-19.899,2.902-20.479,26.237-18.336,36.993c0.161,0.808,1.628,0.381,1.566-0.397c-0.724-9.375-0.862-29.493,14.999-33.616
				c14.559-3.783,21.358,10.132,28.478,16.47c10.628,9.457,26.703,8.57,34.927-4.76c5.029-8.148,13.491-26.667,26.996-15.774
				c6.652,5.367,9.813,13.356,19.55,16.048c16.041,4.434,24.163-9.717,26.472-20.224
				C902.638,297.976,899.106,297.726,898.622,299.411z"/>
			<path fill="#324D19" d="M913.67,292.346c-1.264-2.469-2.189-6.74-6.053-7.328c-3.334-0.507-6.188,1.838-8.387,3.761
				c-4.058,3.548-8.182,7.146-11.858,10.937c-0.948,0.971,0.802,1.874,1.849,1.099c3.062-2.264,5.885-4.73,8.753-7.148
				c2.173-1.833,6.648-6.944,9.727-4.408c1.96,1.615,2.818,5.609,3.893,7.756c1.444,2.896,2.654,5.997,4.67,8.633
				c0.913,1.197,3.647,0.326,3.219-1.186C918.276,300.229,915.691,296.297,913.67,292.346z"/>
		</g>
		<path fill="#324D19" d="M475.314,327.355c-8.089,2.357-14.624,9.313-22.787,10.688c-18.83,3.166-11.403-13.892-9.121-18.86
			c1.994-4.341,4.575-8.54,6.659-12.861c2.918-6.041,10.525-22.526-5.699-20.637c-15.061,1.754-31.822,15.303-41.451,23.271
			c-14.054,11.633-25.333,24.809-37.382,37.484c-5.126,5.396-12.385,15.703-20.748,18.686c-17.182,6.126-16.73-5.893-15.938-10.918
			c0.302-1.906,0.85-3.866,1.524-5.745c2.015-5.604,5.423-10.952,9.062-16.146c11.467-16.369,26.128-30.997,39.899-46.367
			c7.693-8.588,11.741-20.128-3.418-24.715c-14.457-4.375-33.68,1.045-46.79,6.546c-11.094,4.652-19.198,11.832-29.773,16.918
			c-16.651,8.001-32.112,1.232-40.775-9.343c-13.4-16.357-12.11-35.732-3.933-53.76c0.074-0.056,0.148-0.114,0.223-0.171
			c-0.13,5.636,1.399,11.342,5.542,15.835c1.499,1.625,5.325,0.139,4.368-1.736c-3.45-6.773-5.77-12.671-3.964-20.164
			c0.268-1.112-0.709-1.871-1.896-2.068c0.01-0.022,0.024-0.044,0.036-0.064c0.412-0.714-0.947-1.47-1.621-0.736
			c-1.343,1.466-2.566,2.979-3.705,4.52c-4.97,4.797-11.858,6.284-20.054,7.965c0.015,0.016,0.031,0.034,0.046,0.049
			c-1.481,0.455-1.737,2.094,0.156,2.409c5.084,0.84,10.334-0.285,14.959-2.395c-5.113,10.417-6.281,21.779-3.945,32.375
			c2.906,13.179,11.616,28.884,30.05,33.787c20.661,5.497,34.81-9.014,50.184-16.972c11.199-5.795,25.94-10.662,39.599-10.481
			c13.025,0.172,17.895,5.771,14.306,15.292c-2.017,5.345-11.108,11.976-15.526,16.667c-13.93,14.786-28.747,30.957-36.657,47.882
			c-3.923,8.392-8.634,31.896,13.424,27.634c7.916-1.527,13.812-6.662,18.614-11.191c7.66-7.223,14.512-14.885,21.557-22.413
			c13.596-14.532,27.762-29.542,47.318-40.284c5.109-2.807,17.588-11.205,20.899-2.81c1.601,4.056-5.179,13.18-7.064,16.675
			c-3.923,7.264-8.896,15.742-7.05,23.521c1.219,5.137,5.942,8.42,13.315,8.297c11.775-0.196,19.129-8.752,29.433-11.752
			C480.715,330.243,478.857,326.324,475.314,327.355z"/>
		<path fill="#324D19" d="M592.153,479.499c-0.011-0.025-0.007-0.048-0.02-0.073c-3.068-6.645-7.257-12.855-10.984-19.157
			c-3.721-6.291-7.201-12.872-11.593-18.723c0.755-0.588,0.223-1.989-0.897-1.753c-22.5,4.724-34.217,28.369-39.633,48.591
			c-6.714,25.062-5.406,51.407-3.854,77.05c-10.199-0.675-20.396-1.353-30.597-2.027c-1.212-0.08-2.146,1.488-1.438,2.496
			c17.12,24.433,32.474,49.986,45.99,76.565c0.526,1.033,2.379,1.131,2.872,0c10.744-24.575,23.129-48.345,37.122-71.237
			c0.646-1.059-0.184-2.508-1.43-2.479c-9.997,0.212-19.993,0.407-29.99,0.63c0.644-34.008,17.067-66.441,44.427-86.939
			C593.22,481.621,592.945,480.146,592.153,479.499z M544.276,571.105c-0.003,0.897,0.778,1.712,1.696,1.691
			c9.586-0.216,19.172-0.454,28.761-0.681c-12.805,21.179-24.238,43.101-34.276,65.709c-12.636-24.537-26.84-48.193-42.575-70.886
			c9.688,0.64,19.372,1.279,29.06,1.92c0.858,0.058,1.713-0.805,1.66-1.653c-1.432-23.457-2.869-47.449,1.901-70.639
			c4.426-21.515,15-47.072,37.702-54.509c0.012,0.057,0.014,0.11,0.04,0.169c2.896,6.741,6.896,13.058,10.518,19.432
			c3.507,6.174,6.733,12.675,10.795,18.505C561.294,501.839,544.388,535.507,544.276,571.105z"/>
		<path fill="#324D19" d="M348.117,74.384c-11.673-19.334-23.986-38.259-36.908-56.771c-0.1-0.155-0.198-0.31-0.299-0.464
			c8.798,4.583,17.6,9.161,26.391,13.758c1.968,1.029,3.687-1.864,1.749-2.993c-0.498-0.29-0.996-0.58-1.495-0.871
			c0.116-0.07,0.221-0.157,0.315-0.254c0.397,0.148,0.79,0.306,1.188,0.453c1.847,0.684,2.926-2.147,1.312-3.11
			c-0.504-0.3-1.007-0.603-1.51-0.903c-0.128-0.223-0.285-0.428-0.511-0.57c-1.822-1.155-3.645-2.314-5.468-3.47
			c0.396-0.78,0.321-1.827-0.588-2.326C318.779,9.436,306.01,0.936,293.996-8.731c-0.572-0.461-1.263-0.528-1.843-0.333
			c-0.963-0.342-2.315,0.205-2.48,1.554c-0.24,1.958-0.459,3.917-0.684,5.876c-0.135,0.226-0.236,0.487-0.255,0.811
			c-0.047,0.791-0.073,1.579-0.112,2.368c-2.271,20.691-3.655,41.454-4.149,62.27c-0.053,2.222,3.389,2.219,3.452,0
			c0.019-0.721,0.059-1.44,0.083-2.163c0.601,0.387,1.447,0.375,2.052-0.046c0.329,0.315,0.759,0.49,1.196,0.501
			c0.007,0.723,0.023,1.447,0.029,2.17c0.017,1.976,3.054,1.979,3.072,0c0.012-1.24,0.033-2.48,0.047-3.72
			c0.64-0.201,1.167-0.728,1.185-1.59c0.002-0.111,0.006-0.222,0.01-0.333c0.977,0.827,2.938,0.4,2.988-1.292
			c0.305-10.57,0.609-21.139,0.913-31.708c11.941,19.724,23.906,39.434,35.843,59.164c0.858,1.42,3.049,0.148,2.229-1.304
			c-1.091-1.928-2.188-3.853-3.279-5.781c0.287-0.391,0.379-0.92,0.046-1.495c-8.559-14.705-17.079-29.432-25.608-44.154
			c-1.734-3.461-3.436-6.939-5.114-10.432c1.837,2.889,3.671,5.78,5.508,8.669c8.482,15.508,17.954,30.451,28.433,44.75
			c0.916,1.249,2.762,0.526,2.792-0.692c0.426-0.466,0.618-1.122,0.193-1.723c-2.612-3.708-5.161-7.456-7.678-11.224
			c-3.253-5.354-6.164-10.906-8.949-16.532c6.47,10.991,13.226,21.786,21.748,31.393C346.848,77.612,349.025,75.889,348.117,74.384z
			 M299.603,22.033c1.527,2.687,3.06,5.37,4.587,8.058c-1.535-2.458-3.071-4.915-4.608-7.369
			C299.59,22.49,299.596,22.261,299.603,22.033z M304.374,13.741c0.003,0.002,0.006,0.003,0.009,0.004
			c3.107,5.045,5.904,10.268,8.57,15.567C310.006,24.171,307.154,18.978,304.374,13.741z"/>
		<path fill="#324D19" d="M995.58,12.261c-6.508,3.624-13.322,6.635-20.246,9.638c-1.93,0.838-1.3,2.356,0.662,1.625
			c4.071-1.518,8.049-3.233,11.979-5.041c-16.662,13.416-1.295,25.467,3.016,34.75c7.6,16.38-5.275,43.078-39.896,56.562
			c-33.722,13.134-64.694,2.484-55.082-20.229c4.6-10.863,18.615-21.609,35.437-26.34c15.616-4.393,27.924-0.901,30.336,7.496
			c2.786,9.686-12.377,26.896-31.943,28.246c-9.807,0.677-16.831-3.983-14.292-10.839c1.891-5.097,8.333-10.273,16.35-10.461
			c6.18-0.144,7.377,2.798,8.66,6.162c0.272,0.715,2.204-0.094,2.023-0.824c-0.909-3.686-2.311-7.831-8.859-7.987
			c-5.76-0.136-12.868,2.954-17.25,6.815c-10.753,9.479-4.467,18.672,7.271,19.725c13.98,1.254,31.775-8.493,38.87-18.646
			c6.781-9.702,3.812-19.19-6.159-22.816c-11.405-4.146-30.562,0.504-44.708,9.136c-15.437,9.423-23.1,22.535-21.411,32.362
			c3.722,21.658,47.944,22.023,79.822,0.979c18.354-12.117,27.658-27.738,27.341-40.427c-0.18-7.232-3.511-13.058-7.685-18.689
			c-4.789-6.465-10.096-16.074,2.917-25.414c-0.391,1.342-0.616,2.646-0.521,3.82c0.097,1.167,3.216,0.903,3.749-0.619
			c0.978-2.8,1.374-5.47,2.571-8.312C999.038,11.727,997.236,11.34,995.58,12.261z"/>
		<path fill="#324D19" d="M1174.887-42.347c-0.065-0.949-0.949-1.841-1.967-1.5c-3.23,1.082-6.561,1.84-9.785,2.938
			c-1.464,0.498-0.87,2.579,0.635,2.3c1.838-0.343,3.651-0.789,5.47-1.227c-0.061,0.046-0.12,0.088-0.18,0.146
			c-4.503,4.473-6.799,13.521-15.063,6.316c-3.173-2.768-5.388-6.202-8.996-8.537c-0.783-0.505-1.923-0.163-2.375,0.625
			c-2.632,4.585-2.679,9.285-2.782,14.469c-0.069,3.423,0.877,8.364-0.201,11.554c-0.939,2.788-4.775,5.031-7.712,4.354
			c-1.592-0.368-3.197-1.719-4.46-2.673c-7.67-5.784-12.657-15.534-22.106-18.864c-9.588-3.379-12.09,4.872-12.989,12.914
			c-0.419,3.757-2.271,25.096,4.682,24.578c1.044-0.079,1.05-1.555,0-1.626c-3.634-0.253-2.648-16.977-2.338-20.223
			c0.239-2.48,0.579-9.087,2.554-11.4c3.542-4.148,8.622-1.034,11.778,1.227c6.813,4.881,11.097,12.563,18.117,17.225
			c3.896,2.587,11.088,5.575,14.601,0.744c1.963-2.701,1.299-7.062,1.368-10.105c0.132-6.014-0.698-13.011,1.651-18.68
			c4.763,3.867,8.201,10.522,14.927,10.833c6.728,0.311,7.811-5.971,11.544-10.095c-0.02,0.321-0.037,0.645-0.062,0.966
			c-0.161,2.207-0.573,4.477-0.143,6.66c0.307,1.566,2.479,1.309,2.922,0c0.654-1.939,0.53-4.146,0.648-6.178
			C1174.749-37.839,1175.041-40.118,1174.887-42.347z"/>
		<path fill="#324D19" d="M1053.533,233.847c-1.521-2.736-2.894-5.545-4.328-8.323c-0.424-0.825-1.771-1.081-2.402-0.342
			c-2.447,2.855-4.891,5.714-6.967,8.852c-0.608,0.916,0.779,2.047,1.526,1.207c1.931-2.172,3.854-4.322,5.938-6.331
			c0.148,0.361,0.306,0.729,0.458,1.098c0.673,7.988-1.785,15.527-9.506,19.22c-7.686,3.677-16.402,0.936-23.663-2.515
			c-9.183-4.366-17.518-10.89-27.705-12.855c-18.283-3.526-30.082,12.1-31.309,28.864c-0.093,1.275,1.787,1.259,1.95,0.043
			c1.967-14.691,11.798-29.151,28.48-25.895c11.232,2.192,20.271,10.158,30.665,14.43c8.615,3.542,18.953,5.055,26.832-1.062
			c4.132-3.207,6.866-7.959,7.673-13.028c1.147,2.055,2.428,3.978,3.88,5.573c0.957,1.054,3.126,0.003,2.564-1.435
			C1056.587,238.695,1054.913,236.334,1053.533,233.847z"/>
		<path fill="#324D19" d="M871.297,735.396c0.699-4.827,0.607-9.757,1.366-14.609c0.146-0.943-0.755-1.789-1.63-1.861
			c-5.889-0.478-12.099,1.887-15.449,6.889c-0.702,1.044,0.704,2.255,1.653,1.442c3.502-2.983,7.198-4.807,11.646-4.901
			c-0.033,0.205-0.063,0.412-0.097,0.616c-0.569-0.083-1.179,0.095-1.621,0.688c-12.455,16.706-30.69,30.764-52.688,28.022
			c-20.435-2.544-37.222-23.651-27.037-43.826c0.879-1.745-0.944-3.407-2.577-2.244c-9.062,6.457-22.403,5.584-29.832-3.101
			c-7.43-8.688-5.585-22.286,2.192-29.968c1.098-1.087,0.287-3.229-1.391-2.85c-13.948,3.159-29.485-4.777-33.685-18.828
			c-4.266-14.273,4.604-29.208,17.886-34.678c0.971-0.397,0.433-2.103-0.586-1.771c-15.01,4.901-24.656,21.746-20.257,37.221
			c4.046,14.239,18.661,22.971,32.926,21.888c-6.549,9.133-7.228,22.216,0.369,31.21c7.475,8.848,20.032,10.562,30.105,6.042
			c-5.831,18.29,6.292,37.777,24.919,43.045c23.924,6.762,46.424-7.196,60.588-25.688c-0.242,2.519-0.324,5.043-0.041,7.463
			C868.29,737.547,871.047,737.127,871.297,735.396z"/>
		<path fill="#324D19" d="M1146.095,35.049c3.616,0.238,7.297,0.984,10.882,1.454c0.985,0.128,1.729-0.919,1.773-1.773
			c0.081-1.531-0.115-2.686-0.72-4.089c-0.658-1.524-3.035-0.424-2.627,1.107c0.143,0.35,0.202,0.694,0.215,1.038
			c-2.8-0.354-5.6-0.706-8.398-1.058c-1.838-0.232-4.56-1.063-6.016,0.607c-1.039,1.189-0.642,2.659-0.115,3.965
			c1.398,3.471,3.197,6.839,4.821,10.204c-0.303-0.635-1.324-0.187-1.127,0.476c0.29,0.983,1.207,1.646,2.227,1.282
			c2.187-0.776,0.835-3.845,0.306-5.2c-0.634-1.613-1.273-3.222-1.905-4.832c-0.023-0.06-0.057-0.136-0.098-0.227
			c16.604,10.586,20.727,33.772,9.845,50.479c-5.017,7.704-14.976,12.001-22.9,8.885c4.706-7.508,7.672-16.919,5.14-23.976
			c-4.306-11.973-16.165-4.105-17.896,4.869c-1.548,8.023,2.118,15.717,8.316,20.017c-3.785,5.444-9.043,9.673-15.938,11.022
			c-4.906,0.961-10.15-0.057-14.054-3.131c1.926-1.135,3.762-2.79,5.418-5.125c4.113-5.799,6.919-20.593-4.718-18.755
			c-11.003,1.736-11.289,15.477-5.936,22.738c0.014,0.018,0.03,0.033,0.042,0.051c-4.844,0.703-10.051-1.651-13.603-4.895
			c-8.051-7.346-10.533-20.546-3.17-29.158c0.597-0.698-0.345-1.673-1.024-1.021c-15.349,14.767,4.096,42.172,19.981,37.498
			c7.83,7.403,20.399,6.109,28.838-0.276c2.35-1.777,4.74-4.347,6.902-7.337c2.735,1.308,5.812,2.016,9.072,1.898
			c14.808-0.525,22.807-16.402,24.368-29.281C1165.785,57.753,1160.068,41.503,1146.095,35.049z M1095.726,104.161
			c-3.758-4.417-5.868-12.414-0.775-16.559c4.237-3.454,9.657,1.944,8.571,6.762c-0.729,3.219-3.798,7.375-6.559,9.128
			C1096.558,103.747,1096.145,103.965,1095.726,104.161z M1129.366,95.83c-1.853-1.281-3.521-3.069-4.882-5.436
			c-2.517-4.365-3.924-14.827,1.229-18.253c9.945-6.61,9.398,6.814,8.642,10.536c-0.377,1.852-0.898,3.691-1.511,5.477
			C1131.941,90.807,1130.781,93.402,1129.366,95.83z"/>
		<path fill="#324D19" d="M987.592,558.956c0.043-7.534-1.78-15.396-2.775-22.857c-0.188-1.397-1.864-1.758-2.859-1.007
			c-4.646,3.517-9.668,6.27-14.856,8.882c-1.411,0.714-0.403,2.786,1.048,2.205c3.511-1.402,6.859-3.109,10.145-4.946
			c-13.412,21.927-40.98,26.646-64.461,18.911c-12.702-4.185-27.163-11.503-33.61-23.834c-5.763-11.019-4.256-25.191,2.995-35.151
			c14.104-19.378,50.058-20.136,59.938,4.028c6.001,14.672-7.422,30.8-22.575,30.787c-8.54-0.008-16.832-5.443-17.592-14.466
			c-1.059-12.568,13.214-19.01,21.78-9.521c0.471,0.521,1.48-0.055,1.084-0.705c-5.124-8.388-17.323-8.473-22.994-0.426
			c-6.124,8.691-1.991,20.381,6.724,25.377c11.093,6.356,24.688,1.38,32.408-7.9c7.101-8.536,7.666-19.536,1.728-28.83
			c-13.296-20.815-45.36-20.599-61.05-2.744c-7.712,8.773-10.814,21.324-8.325,32.715c3.109,14.253,15.145,23.455,27.658,29.473
			c27.044,13.006,64.326,11.533,79.915-17.455c0.6,5.922,1.083,12.026,2.621,17.634
			C984.967,560.697,987.582,560.831,987.592,558.956z"/>
		<path fill="#324D19" d="M858.712,82.396C853.07,55.07,849.23,27.229,847.23-1.056c-0.081-1.11-1.066-2.276-2.273-1.678
			c-31.343,15.594-63.193,29.417-95.477,41.876c-1.895,0.731-1.652,3.221-0.06,3.748c12.157,4.012,23.394,10.084,33.375,18.114
			c-9.75,18.298-18.993,36.794-29.507,54.689c-5.234,8.908-10.65,17.702-16.264,26.366c-6.145,9.477-13.518,18.54-18.932,28.434
			c-0.848,1.551,1.017,2.918,2.187,1.639c6.56-7.165,11.819-16.165,17.155-24.331c6.236-9.549,12.243-19.256,18.001-29.113
			c10.779-18.452,21.195-37.537,29.341-57.313c0.608-0.377,1.014-1.136,0.744-1.781c0.069-0.169,0.421-0.188,0.49-0.358
			c0.443-1.11-0.621-1.775-1.223-0.652c-0.007,0.014-0.013,0.027-0.021,0.041c-9.402-7.795-18.562-13.38-29.15-17.593
			c29.904-11.455,59.267-24.619,88.294-38.99c1.962,26.219,5.397,52.028,10.457,77.433c-5.806-2.984-11.646-5.986-17.448-8.971
			c-3.15-1.621-8.646-6.478-12.726-5.094c-4.05,1.375-5.909,9.032-7.449,12.49c-3.732,8.378-7.31,16.821-10.714,25.327
			c-13.039,32.559-24.285,66.291-31.775,100.289c-0.529,2.397,2.771,3.057,3.393,0.647c7.541-29.118,15.776-57.869,26.453-86.199
			c2.978-7.896,6.098-15.744,9.363-23.535c2.834-6.759,5.29-14.501,9.08-20.756c2.568-4.232,2.129-4.126,6.267-2.807
			c3.398,1.083,6.714,3.452,9.881,5.079l17.291,8.884C857.373,85.553,859.048,84.015,858.712,82.396z"/>
		<path fill="#324D19" d="M1001.346,415.05c-9.474-27.62-18.847-55.278-28.436-82.86c-0.457-1.315-1.899-1.648-2.944-0.778
			c-9.152,7.632-17.69,15.817-25.75,24.565c-0.035-0.05-0.063-0.103-0.107-0.152c-23.345-27.243-62.013-12.86-82.615,9.615
			c-24.984,27.264-36.394,65.433-32.373,101.968c0.163,1.487,1.852,2.415,3.046,1.261c3.861-3.739,7.835-7.344,12.012-10.73
			c3.325-2.7,9.883-9.515,14.244-10.257c6.334-1.077,12.939,7.421,17.135,11.204c4.25,3.832,8.5,7.668,12.75,11.502
			c1.22,1.104,3.619,0.057,2.978-1.731c-7.748-21.587-15.929-44.573-13.606-67.888c0.993-9.972,4.588-21.271,14.268-25.924
			c11.169-5.371,23.493,1.01,33.138,7.188c-9.136,9.489-17.645,19.501-25.525,30.062c-0.851,1.141,0.314,2.646,1.533,2.678
			c32.85,0.842,65.694,1.684,98.54,2.525C1000.734,417.326,1001.719,416.132,1001.346,415.05z M896.237,369.698
			c-9.91,1.786-16.354,9.557-19.55,18.679c-8.356,23.854,0.502,51.389,8.812,74.688c-4.244-3.83-8.49-7.66-12.737-11.492
			c-3.363-3.036-7.493-8.431-12.604-8.073c-5.093,0.354-10.08,5.416-13.918,8.321c-4.847,3.666-9.447,7.62-13.883,11.762
			c-2.558-31.814,6.523-64.165,26.377-89.368c10.211-12.961,23.63-24.475,40.004-28.429c15.415-3.721,32.359,0.337,42.839,12.566
			c0.088,0.103,0.181,0.188,0.271,0.263c-0.724,1.294,0.981,2.894,2.138,1.679c8.301-8.744,17.116-16.939,26.391-24.639
			c8.822,26.039,17.824,52.021,26.748,78.024c-30.833-0.792-61.664-1.585-92.498-2.374c7.587-9.943,15.729-19.39,24.472-28.346
			c0.835-0.854,0.6-2.164-0.358-2.794C919.341,373.984,907.924,367.592,896.237,369.698z"/>
		<path fill="#324D19" d="M495.925,585.146c-10.207-5.584-21.631-9.854-34.186-12.823c17.188-12.909,23.647-31.116,15.603-47.415
			c-4.629-9.379-14.102-17.358-19.449-26.541c-6.492-11.154-3.041-22.947,11.059-31.01c1.712-0.979-0.815-2.583-2.521-1.608
			c-10.113,5.783-16.165,14.112-15.498,22.859c0.688,9.045,8.082,17.051,14.54,24.852c7.745,9.357,12.726,18.8,11.521,29.512
			c-1.215,10.805-8.161,21.048-19.574,29.035c-0.938,0.657-0.506,1.622,0.788,1.907c12.159,2.667,23.158,6.584,33.076,11.744
			c-18.214,5.082-36.43,10.167-54.645,15.25c-3.104-13.337-6.212-26.676-9.315-40.014c6.717,1.826,13.434,3.653,20.148,5.479
			c0.66,0.182,1.63,0.244,2.15-0.176c16.977-13.776,16.519-31.892,8.662-47.949c-4.519-9.232-11.971-17.718-16.616-26.897
			c-5.305-10.479-3.11-20.907,6.153-30.176c0.658-0.658-0.897-1.181-1.6-0.595c-8.444,7.037-12.059,15.904-10.074,24.697
			c2.271,10.063,10.74,19.113,16.102,28.562c5.844,10.298,9.657,21.327,7.06,32.289c-1.209,5.105-3.604,10.79-8.367,15.043
			c-1.627,1.454-2.681,2.36-5.551,2.193c-1.813-0.104-4.878-1.327-6.458-1.759c-4.306-1.171-8.609-2.344-12.917-3.515
			c-1.495-0.406-2.847,0.255-2.607,1.28c3.368,14.487,6.737,28.974,10.106,43.462c0.188,0.807,1.698,0.938,2.617,0.68
			c19.812-5.524,39.621-11.051,59.435-16.577C496.581,586.653,496.732,585.587,495.925,585.146z"/>
		<g>
			<path fill="#324D19" d="M212.813,283.242c-19.007-14.42-46.956-17.734-71.688-10.848c-15.35,4.271-28.818,12.467-43.768,17.611
				c-3.869,1.333-7.848,2.474-11.91,3.186c-1.811,0.316-4.484,0.918-6.32,0.791c-3.155-0.222-3.197-1.356-3.707-3.716
				c-1.623-7.54-2.882-15.141-3.861-22.785c-0.146-1.138-1.89-1.417-2.704-0.529c-15.289,16.703-31.614,32.677-48.957,47.853
				c-0.834,0.73-0.756,1.768,0.325,2.207c20.143,8.193,39.14,17.924,57.26,28.924c1.114,0.676,2.382-0.199,2.377-1.254
				c-0.036-9.191-1.195-18.242-3.879-27.047c-0.336-1.103-2.404-0.869-2.139,0.313c1.818,8.092,2.93,16.179,3.061,24.456
				c-16.861-10.321-34.848-19.293-53.581-27.023c16.091-14.164,31.32-28.992,45.646-44.47c1.154,8.296,2.653,16.53,4.546,24.704
				c0.118,0.507,0.602,1.08,1.287,1.072c25.738-0.27,45.74-16.65,69.832-22.545c23.212-5.68,48.684-2.162,66.323,11.22
				C212.382,286.441,214.228,284.314,212.813,283.242z"/>
			<path fill="#324D19" d="M212.292,316.055c-7.2-18.059-33.19-26.361-54.084-24.86c-13.331,0.958-25.43,5.444-37.038,11.287
				c-6.399,3.222-12.717,6.638-19.534,9.138c-8.541,3.133-15.797,3.223-24.698,3.415c-0.973,0.021-1.432,1.105-0.476,1.47
				c9.515,3.62,22.486-0.694,31.413-4.596c12.655-5.526,24.075-12.96,37.883-16.189c12.708-2.972,26.292-3.003,38.303,1.059
				c12.081,4.084,19.323,11.334,25.981,20.48C210.852,318.369,212.739,317.172,212.292,316.055z"/>
		</g>
		<path fill="#324D19" d="M723.562,539.092c-0.035,0.064-0.07,0.125-0.106,0.189c0.244-1.414-0.23-3.049-1.521-2.983
			c-12.846,0.642-25.693,1.083-38.549,1.353c6.662-31.324,13.363-62.634,19.944-93.994c0.62-2.965-2.485-4.227-3.114-1.28
			c-0.8,3.755-1.623,7.502-2.425,11.258c0.863-5.016,1.731-10.023,2.598-15.038c0.393-2.259-1.631-4.316-2.759-2.395
			c-2.869,4.895-5.771,9.745-8.686,14.575c-3.866,5.279-7.73,10.56-11.596,15.84c-2.599,3.552-5.199,7.104-7.799,10.653
			c-1.643,2.243-3.965,6.865-6.228,7.836c-7.8-6.824-15.439-14.01-22.948-21.496c-3.731-3.822-7.463-7.643-11.191-11.466
			c-0.965-0.983-1.878-0.17-2.235,1.071c-0.113-0.1-0.225-0.198-0.336-0.297c-0.692-0.608-1.444-0.234-1.94,0.501
			c-0.053-0.139-0.101-0.277-0.154-0.412c-0.365-0.939-0.978-1.214-1.549-1.058c-1.128-0.867-2.51,0.833-2.156,2.668
			c2.151,11.212,4.75,22.145,7.744,32.817c-0.016,0.247-0.023,0.498,0.013,0.768c2.182,15.74,6.517,30.176,12.792,42.808
			c1.179,3.664,2.43,7.286,3.757,10.854c-9.374,1.097-18.707,0.716-28.086-1.158c-0.649-0.129-1.114,0.403-1.355,1.146
			c-0.388-0.099-0.774-0.178-1.161-0.283c-1.911-0.522-2.732,3.841-0.809,4.369c0.382,0.104,0.762,0.188,1.144,0.286
			c-0.32,0.292-0.573-0.009-0.691,0.489c-0.519,0.786-0.312,1.703,0.643,1.703c0.066,0,0.129,0,0.194,0
			c1.413,1.495,2.82,4.07,4.23,5.73c0.077,0.283,0.201,0.937,0.389,1.204c15.847,22.708,33.219,43.164,51.688,60.925
			c0.453,0.435,0.935,0.473,1.354,0.188c1.73,1.43,3.545,2.512,5.324,2.507c3.799-0.009,6.268-5.306,8.735-9.016
			c1.41-2.124,2.791-4.283,4.185-6.438c-1.161,3.552-2.293,7.132-3.371,10.749c-0.841,2.827,1.733,5.266,2.842,2.482
			c6.752-16.92,14.092-33.225,22.002-48.922c4.621-8.26,9.018-16.664,13.399-25.217c0.006-0.014-0.084-0.024-0.084-0.036
			c0-0.002,0-0.002,0-0.002c0-0.165,0.276-0.331,0.361-0.496C727.176,539.863,724.771,536.967,723.562,539.092z M716.266,551.521
			c0.312-0.231,0.601-0.479,0.85-0.757c-2.37,4.396-4.698,8.841-6.974,13.341C712.108,559.844,714.161,555.661,716.266,551.521z
			 M667.577,606.154c-0.096-0.109-0.19-0.22-0.285-0.334c-2.025-2.369-3.962-4.931-5.798-7.044c-2.771-3.193-5.535-6.405-8.301-9.61
			c6.662,7.171,13.251,14.492,19.723,22.045C671.075,609.932,669.292,608.138,667.577,606.154z M689.829,598.156
			c-3.131,4.891-6.622,12.594-11.187,14.262c-17.386-24.296-37.106-45.22-57.916-62.583c5.107-0.062,10.215-0.128,15.321-0.161
			c5.028,0.326,10.075,0.315,15.152-0.07c1.452-0.11,1.753-2.744,0.916-3.823c0.005-0.309-0.022-0.612-0.087-0.896
			c0.516-0.862,0.644-2.15-0.052-3.149c-0.593-0.854-1.167-1.716-1.735-2.589c1.184,0.752,2.656-1.555,1.96-3.522
			c-6.506-18.372-12.533-37.095-18.118-56.114c-0.529-4.828-1.153-9.63-2.379-13.984c1.201,1.126,2.4,2.246,3.602,3.375
			c8.407,9.084,17.189,17.344,26.369,24.717c1.287,1.035,2.439-0.601,2.422-2.249c1.04-1.42,2.078-2.838,3.119-4.258
			c0.28,1.59,1.688,2.72,2.767,1.245c8.999-12.321,17.387-25.45,25.214-39.435c-4.783,27.666-9.565,55.33-14.351,82.995
			c-0.55,2.536-1.103,5.071-1.651,7.605c-0.33,1.514,0.552,3.117,1.587,3.101c1.169-0.021,2.338-0.065,3.511-0.088
			c0.251,0.307,0.579,0.509,0.987,0.534c8.786,0.562,17.538,0.383,26.29-0.482c0.254,0.272,0.588,0.409,1.013,0.331
			c1.915-0.371,3.831-0.74,5.745-1.108c0.148-0.029,0.285-0.086,0.413-0.157c1.063-0.142,2.13-0.236,3.193-0.396
			c0.211-0.03,0.389-0.137,0.56-0.249c-1.398,2.473-2.783,4.949-4.15,7.456c0.193-0.625,0.348-1.344,0.473-2.196
			c0.312-2.144-1.636-4.427-2.731-2.37c-0.687,1.281-1.34,2.595-2.01,3.894c-0.432,0.354-0.688,0.916-0.789,1.531
			c-6.202,12.144-11.802,24.871-16.773,38.153C694.307,591.068,692.085,594.638,689.829,598.156z M646.032,531.479
			c0.905,1.814,1.835,3.611,2.78,5.392c-0.848-1.374-1.67-2.773-2.462-4.202C646.248,532.27,646.139,531.874,646.032,531.479z"/>
		<path fill="#324D19" d="M451.148,60.451c-0.233-0.016-0.465-0.048-0.697-0.062c-0.04-0.002-0.072,0.017-0.108,0.025
			c0-0.003-0.003-0.006-0.005-0.008c-0.138-0.204-0.271-0.411-0.409-0.615c-0.729-1.076-1.807,0.509-1.143,1.618
			c0.201,0.335,0.331,0.556,0.437,0.724c0.842,1.396,1.684,2.795,2.526,4.193c-0.008,0.398,0.068,0.814,0.289,1.197
			c10.521,18.223,21.959,35.186,32.292,53.67c5.219,9.335,10.52,18.568,16.202,27.353c2.6,4.021,5.101,8.583,8.018,12.327
			c3.043,4.753,6.099,9.414,9.699,13.364c0.006,0.01,0.014,0.022,0.021,0.033l0.003-0.006c0.096,0.103,0.186,0.215,0.28,0.318
			c1.349,1.451,2.668-1.525,1.706-3.126c-1.298-2.159-2.59-4.323-3.885-6.484c0.053-0.4-0.001-0.846-0.214-1.304
			c-5.656-12.251-12.883-22.521-20.188-32.718c-13.621-22.527-27.479-44.755-42.221-65.851c-0.196-0.282-0.404-0.406-0.612-0.469
			c-0.377-0.572-0.759-1.144-1.139-1.714c1.074,0.37,2.152,0.716,3.239,1.023c5.451,2.994,11.152,4.489,17.09,4.025
			c1.096-0.085,1.421-1.495,1.065-2.523c1.032-0.167,1.434-2.066,0.923-3.185c0.007-0.488-0.091-0.994-0.346-1.459
			c-15.392-27.9-32.428-53.791-49.479-79.649c-0.688-1.042-2.27-0.64-2.433,0.908c-2.366,22.414-4.548,44.866-6.59,67.342
			c-0.436,4.192-0.839,8.391-1.213,12.596c-0.992,10.256-1.854,20.543-2.55,30.863c-0.042,0.6,0.089,1.042,0.294,1.368
			c-0.027,0.536-0.063,1.068-0.091,1.604c-0.093,1.911,1.311,2.362,2.216,1.564c0.421,0.238,0.921,0.18,1.364-0.435
			c0.446-0.618,0.888-1.24,1.333-1.857c0.511,0.573,1.263,0.691,1.837-0.151c3.062-4.492,5.994-9.145,8.865-13.875
			c2.782,13.978,5.573,27.951,8.361,41.927c5.334,29.965,9.658,60.295,13.746,90.66c0.235,1.741,1.492,1.815,2.254,0.943
			c0.115,0.134,0.221,0.271,0.356,0.405c0.55,0.542,1.252,0.225,1.715-0.312c0.72-0.834,0.855-1.416,0.767-2.71
			c-0.081-1.168-0.579-1.819-1.392-1.97c-0.129-0.023-0.259-0.047-0.388-0.07c-0.014-0.001-0.022,0.008-0.036,0.005
			c-0.039-0.728-0.097-1.524-0.165-2.352c10.063-4.168,20.111-8.435,30.229-12.27c-2.801,1.961-5.605,3.911-8.39,5.918
			c-4.304,2.568-8.471,5.557-12.426,9.151c-0.287,0.26-0.441,0.6-0.537,0.952c-0.195,0.113-0.393,0.221-0.587,0.335
			c-2.868,1.662-5.864,2.848-8.647,4.147c-0.179,0.086-1.042-0.25-1.383-0.131c-0.396,0.14-0.719,0.842-0.564,1.413
			c0.047,0.178,0.095,0.355,0.142,0.534c0.141,0.525,0.557,1.041,0.991,0.794c0.091-0.052,0.183-0.103,0.271-0.154
			c0.105-0.06,0.188-0.145,0.263-0.24c0.248,0.317,0.483,0.576,0.602,0.649c1.439,0.89,5.154-2.312,6.541-3.055
			c1.089-0.585,2.178-1.174,3.267-1.761c0.304,0.124,0.652,0.104,1.016-0.171c0.641-0.479,1.288-0.938,1.927-1.414
			c4.495-2.429,8.987-4.865,13.488-7.27c6.173-3.299,12.361-6.544,18.559-9.749c5.518-1.895,11.072-3.619,16.562-5.56
			c0.896-0.317,1.373-2.234,0.585-3.131l0,0c1.308-0.652,2.606-1.333,3.916-1.978c1.336-0.661,1.178-4.049-0.434-3.763
			c-0.119,0.023-0.432,0.05-0.432,0.072v-0.003l0.066,0.003c-3.554,0.647-7.053,1.451-10.566,2.366
			c1.092-0.707,2.207-1.403,3.301-2.103c1.902-1.115,3.793-2.288,5.631-3.599c1.589-1.133,0.2-4.302-1.369-3.325
			c-2.028,1.265-4.035,2.582-6.055,3.869c-8.321,4.839-17.163,8.167-25.68,12.002c-10.21,4.604-20.415,9.229-30.634,13.787
			c-0.392-3.711-0.845-7.139-0.893-7.519c-0.731-5.87-1.463-11.738-2.195-17.608c-1.465-11.736-2.927-23.473-4.389-35.21
			c-0.153-1.215-0.819-1.604-1.472-1.45c-3.468-22.314-7.688-44.41-13.016-65.873c0.161-0.275,0.332-0.538,0.491-0.814
			c1.109-1.912-0.616-4.556-1.921-2.899c-0.24-1.08-1.174-1.816-1.871-0.734c-3.672,5.727-7.174,11.688-10.688,17.621
			c3.143-14.722,3.758-30.331,4.856-45.587c0.858-11.895,1.71-23.79,2.565-35.686c0.335-2.205,0.671-4.409,1.019-6.611
			c14.45,19.639,28.959,39.184,43.467,58.731c-5.248-1.102-10.524-1.804-15.846-2.085C451.64,58.151,451.085,59.364,451.148,60.451z
			 M503.795,188.28c-1.269,0.668-2.538,1.323-3.805,1.994c-2.316,0.758-4.631,1.55-6.936,2.397c0.975-0.662,1.953-1.311,2.931-1.967
			C498.58,189.848,501.184,189.039,503.795,188.28z M426.142-2.258c-0.071-0.229-0.186-0.453-0.351-0.66
			c-0.048-0.062-0.099-0.127-0.149-0.19c0.262-1.611,0.509-3.227,0.778-4.837c0.007-0.041,0.006-0.078,0.011-0.117
			c7.583,12.211,15.148,24.445,22.707,36.687C441.486,18.31,433.821,8.016,426.142-2.258z"/>
		<path fill="#324D19" d="M1102.176,272.095c-5.053,11.139-4.709,25.354,5.066,33.907c23.503,20.568,55.355-21.393,63.04-40.353
			c0.296,4.281-0.196,8.547-1.09,12.832c0.014,0,0.028,0,0.043,0c-0.075,1.106,1.538,1.737,1.961,0.538
			c2.171-6.145,2.312-12.578,1.6-18.993c-0.143-1.27-1.651-1.844-2.649-1.114c-4.549,3.341-9.988,6.451-13.86,10.561
			c-0.996,1.056,0.462,2.897,1.731,2.27c2.972-1.471,5.771-3.573,8.498-5.739c-5.901,11.051-12.516,21.042-21.945,29.564
			c-8.52,7.697-22.341,17.199-33.643,9.085c-11.337-8.138-10.265-23.526-4.306-34.538c6.501-12.006,17.632-21.014,29.688-27.015
			c1.135-0.563,0.448-2.359-0.743-1.848C1121.5,247.295,1108.609,257.917,1102.176,272.095z"/>
		<path fill="#324D19" d="M1169.533,344.234c-15.28,4.271-30.897,5.354-46.605,3.111c-1.502-0.215-2.733,1.115-1.98,2.576
			c2.247,4.355,5.024,7.903,8.647,11.039c-21.131,15.468-52.273,15.794-72.776-1.157c-19.308-15.963-25.625-42.743-18.075-66.138
			c0.562-1.743-2.075-2.405-2.705-0.747c-9.361,24.632-0.488,54.815,20.335,70.853c22.461,17.301,55.279,15.797,77.151-1.551
			c0.661-0.525,0.661-1.881,0-2.402c-3.188-2.508-5.741-5.334-7.839-8.656c13.105,1.469,26.106,0.82,38.931-2.074
			c-9.121,9.686-18.24,19.371-27.362,29.057c0.788-3.554,1.579-7.104,2.366-10.658c0.296-1.33-1.254-2.959-2.568-1.974
			c-23.126,17.288-56.446,19.302-80.841,3.231c-24.324-16.026-35.729-47.194-29.684-75.322c0.282-1.306-1.671-1.866-2.018-0.555
			c-7.504,28.575,3.959,60.536,28.194,77.626c24.246,17.099,58.062,16.569,82.558,0.513c-0.927,4.166-1.853,8.331-2.778,12.498
			c-0.361,1.628,1.667,3.034,2.923,1.701c11.944-12.682,23.888-25.36,35.834-38.04
			C1172.415,345.913,1171.256,343.755,1169.533,344.234z"/>
		<path fill="#324D19" d="M163.373,236.061c-35.253-4.621-70.588-7.855-106.015-10.746c-1.474-0.119-2.57,1.542-1.619,2.787
			c0.244,0.319,0.49,0.639,0.734,0.96c-6.87-4.129-13.535-8.564-20.041-13.253c9.554-1.777,19.17-2.825,28.875-3.122
			c-2.273,1.28-4.547,2.561-6.82,3.843c-1.392,0.784-1.502,3.26,0.451,3.417c17.433,1.425,34.858,2.944,52.268,4.617
			c17.32,1.666,34.871,4.458,52.267,4.872c1.427,0.032,1.737-1.931,0.3-2.224c-17.01-3.472-34.835-4.417-52.101-6.111
			c-15.523-1.524-31.059-2.918-46.604-4.211c2.617-1.474,5.232-2.95,7.848-4.425c1.314-0.742,1.549-3.403-0.45-3.412
			c-13.708-0.066-27.222,1.246-40.645,4.044c-1.424,0.297-2.15,2.198-0.852,3.159c10.094,7.479,20.615,14.249,31.579,20.374
			c1.589,0.888,3.082-1.38,2.083-2.682c-1.253-1.632-2.509-3.265-3.764-4.896c34.103,2.303,68.15,6.115,102.033,10.526
			C165.164,239.874,165.64,236.357,163.373,236.061z"/>
		<path fill="#324D19" d="M1168.18,543.924c-3.44,2.899-6.881,5.805-10.311,8.719c0.543-5.671,0.179-12.23-4.372-15.867
			c-5.682-4.54-12.347-0.657-16.606,3.854c-6.071,6.429-12.742,16.299-20.404,2.399c-2.811-5.097-4.062-11.298-6.419-16.615
			c-3.073-6.935-7.781-11.655-15.893-10.36c-10.588,1.691-15.299,11.448-22.353,18.206c-4.021,3.856-9.493,7.582-15.468,6.002
			c-3.923-1.034-6.786-4.389-8.971-7.534c-3.233-4.658-5.421-9.963-8.32-14.822c-11.354-19.035-30.406-16.746-48.793-9.561
			c-1.302,0.506-0.758,2.613,0.585,2.122c10.648-3.895,24.059-8.56,34.859-2.639c9.049,4.96,12.459,15.336,17.424,23.719
			c3.348,5.656,7.994,11.622,15.112,12.09c8.289,0.548,14.812-5.798,19.763-11.587c3.886-4.54,7.938-10.205,13.925-12.092
			c9.436-2.975,13.661,4.338,16.613,11.895c2.433,6.226,4.361,19.173,11.397,22.154c5.329,2.256,10.984-1.605,14.571-5.268
			c1.483-1.514,2.659-3.297,4.097-4.854c3.523-3.813,5.692-6.208,10.765-4.087c4.03,1.687,4.559,3.13,4.98,7.242
			c0.194,1.889,0.145,3.74-0.029,5.599c-2.221-1.663-4.444-3.328-6.666-4.989c-1.221-0.914-3.022,0.608-2.562,1.966
			c2.644,7.762,5.271,15.525,7.898,23.289c0.498,1.469,2.32,1.67,3.189,0.418c6.019-8.698,10.934-17.893,14.906-27.695
			C1171.831,543.84,1169.359,542.932,1168.18,543.924z M1157.995,557.058c2.295-1.911,4.575-3.844,6.854-5.771
			c-2.799,5.981-6.01,11.722-9.638,17.262c-1.657-4.875-3.312-9.754-4.965-14.628c1.525,1.147,3.048,2.294,4.571,3.442
			c0.442,0.334,1.085,0.312,1.618,0.07C1156.939,557.552,1157.5,557.471,1157.995,557.058z"/>
		<path fill="#324D19" d="M163.147,529.503c-8.599-16.74-28.192-22.954-44.91-17.616c-17.984,5.743-30.436,22.287-38.72,37.229
			c-5.016,9.041-8.69,18.795-10.943,28.996c-0.692,3.127-1.887,7.035-2.028,10.837c-2.954-5.645-6.415-11.145-9.691-16.601
			c-0.984-1.636-4.1-1.502-4.231,0.346c-1.069,15.104,0.26,30.309,3.698,45.636c0.339,1.514,2.152,2.969,3.723,2.049
			c15.586-9.161,30.563-19.018,44.981-29.578c1.572-1.148-0.081-3.831-2.024-3.86c-8.407-0.121-16.132,0.935-23.693,3.148
			c2.95-18.143,9.083-36.083,22.495-48.949c7.362-7.059,21.734-17.478,34.132-10.802c14.864,8.003,10.567,26.019,7.613,36.937
			c-0.733,2.707,4.073,4.034,4.804,1.327c3.184-11.788,6.222-26.149-4.444-37.366c-7.721-8.119-18.271-8.707-27.481-5.276
			c-27.888,10.395-38.843,40.454-42.469,66.84c-0.274,1.994,1.909,3.28,3.729,2.636c5.8-2.061,11.712-3.291,17.916-3.796
			c-11.409,8.121-23.175,15.802-35.318,23.042c-2.276-11.371-3.283-22.586-3.214-33.832c3.79,6.158,7.589,12.376,12.138,18.051
			c0.597,0.747,1.839,0.444,1.64-0.435c0.84-0.124,1.495-0.983,0.861-1.844c-4.03-5.455,0.625-17.214,2.159-22.357
			c2.221-7.446,5.209-14.634,8.934-21.405c6.842-12.439,16.36-25.162,29.193-32.742c16.093-9.51,39.604-6.443,47.891,13.828
			c6.674,16.322-0.561,31.932-6.78,45.745c-1.189,2.643,3.371,5.19,4.607,2.533C165.104,566.328,172.643,547.998,163.147,529.503z"
			/>
		<path fill="#324D19" d="M996.803,612.542c4.046,0.784,8.359,1.099,12.527,1.558c1.981,0.22,6.622,1.394,8.451,0.19
			c1.533-1.005,0.083-2.874-0.378-3.938c-1.242-2.888-2.396-5.794-3.779-8.655c-0.304-0.628-1.981-0.36-1.778,0.287
			c0.614,1.959,1.334,3.902,2.01,5.854c0.139,0.397,1.25,2.927,1.573,4.19c-12.2-9.001-24.797-20.727-21.838-33.294
			c3.144-13.331,31.868-21.146,50.09-15.11c0.894,0.296,1.775-0.638,0.904-0.974c-17.565-6.753-43.763-0.364-52.094,11.157
			c-4.574,6.324-2.275,13.557,1.037,19.889c3.511,6.708,9.327,14.148,18.226,18.801c-1.829-0.284-3.763-0.659-4.414-0.738
			c-3.221-0.391-6.479-0.902-9.755-1.038C995.983,610.652,995.06,612.203,996.803,612.542z"/>
		<path fill="#324D19" d="M71.135,121.703c-11,9.309-14.752,33.79,4.644,35.276c1.067,0.082,1.257-1.522,0.188-1.659
			c-14.508-1.872-13.663-19.238-6.405-28.072c5.448-6.631,14.556-10.282,23.061-9.343c19.981,2.21,29.538,25.067,21.009,42.038
			c-8.287,16.485-29.145,21.799-45.277,14.034c-16.808-8.09-25.001-26.036-31.781-42.503c2.909,1.583,5.415,3.521,7.84,6.015
			c1.535,1.577,4.275-0.5,2.736-2.128c-3.581-3.787-7.498-6.486-12.286-8.538c-0.858-0.368-1.692,0.059-2.109,0.771
			c-0.527,0.326-0.89,0.903-0.776,1.658c0.064,0.423,0.098,0.84,0.156,1.263c-0.797,5.587-0.654,11.036,0.421,16.658
			c0.357,1.865,3.25,1.959,3.428-0.062c0.224-2.55,0.292-5.061,0.269-7.57c6.706,15.219,15.347,30.259,30.812,37.659
			c14.622,6.994,33.424,4.297,44.392-8.017c11.27-12.654,12.14-32.157,0.353-44.737C101.007,112.927,83.315,111.396,71.135,121.703z
			"/>
		<path fill="#324D19" d="M1092.868,431.439c-2.411-2.816-4.771-4.982-8.085-6.571c-1.42-0.679-3.244,1.219-1.818,2.356
			c1.463,1.172,2.861,2.311,4.199,3.522c-12.059,0.063-24.121,0.092-36.178,0.328c-0.213-1.171-0.731-2.298-1.502-3.211
			c-1.859-2.207-5.094-3.122-7.296-0.854c-1.872,1.925-2.296,5.203-0.89,7.501c0.407,1.404,1.523,2.533,3.057,2.931
			c2.198,0.566,4.758-0.451,5.951-2.382c0.238-0.387,0.4-0.798,0.528-1.218c11.375,0.236,22.755,0.29,34.136,0.36
			c-2.367,1.59-4.734,3.177-7.103,4.765c-1.876,1.257-0.185,4.25,1.787,3.06l12.848-7.777
			C1093.551,433.617,1093.616,432.314,1092.868,431.439z"/>
		<path fill="#324D19" d="M1128.405,437.674c1.02,1.372,2.394,1.926,3.732,1.895c2.827,0.612,6.74-2.415,7.671-5.538
			c11.274-4.683,22.438-9.67,33.299-15.236c-0.344,0.381-0.674,0.774-1.021,1.149c-1.916,2.082-4.182,3.929-5.869,6.195
			c-1.117,1.495,0.783,3.168,2.242,2.202c4.656-3.086,8.584-8.425,12.021-12.764c0.807-1.021,0.131-2.679-1.178-2.812
			c-1.19-0.117-2.388-0.234-3.579-0.355c-0.126-0.101-0.271-0.174-0.468-0.177c-0.545-0.004-1.098-0.021-1.656-0.035
			c-2.146-0.212-4.291-0.416-6.44-0.598c-2.088-0.369-2.546,3-0.436,3.27c2.422,0.308,4.85,0.586,7.274,0.855
			c-11.542,5.025-23.057,10.075-34.721,14.799c-0.736-0.948-2.065-1.729-4.183-2.175c-0.7-0.146-1.399-0.155-2.075-0.072
			c-1.286-0.558-2.803-0.141-3.783,1.787C1127.212,431.944,1126.391,434.961,1128.405,437.674z"/>
		<path fill="#324D19" d="M1009.53,466.491c-0.646,7.188,6.262,6.005,9.35,2.778c13.749,2.025,27.57,3.688,41.437,4.66
			c-2.35,1.066-4.578,2.313-6.277,3.885c-0.971,0.896-0.388,3.044,1.163,2.614c2.406-0.666,4.546-2.062,6.801-3.135
			c2.503-1.188,5.056-2.259,7.634-3.27c0.223-0.089,0.39-0.218,0.536-0.362c0.33,0.188,0.646,0.396,0.98,0.579
			c1.099,0.597,2.085-1.217,1.06-1.909c-0.62-0.458-1.249-0.907-1.874-1.358c-0.36-0.282-0.724-0.56-1.085-0.857
			c-0.074-0.062-0.154-0.089-0.233-0.104c-0.825-0.595-1.646-1.198-2.464-1.808c-2.162-1.789-4.322-3.585-6.496-5.359
			c-1.52-1.458-3.631,1.267-1.979,2.675c2.461,2.109,4.938,4.201,7.414,6.294c-15.085-1.873-30.161-3.723-45.195-5.943
			c-0.122-1.192-0.95-2.385-2.798-3.401c-0.033-0.438-0.094-0.888-0.204-1.371c-0.237-1.02-1.406-1.935-2.478-1.338
			c-1.272,0.712-2.549,1.833-3.446,3.112C1010.229,463.728,1009.467,465,1009.53,466.491z"/>
		<path fill="#324D19" d="M1160.934,471.572c-3.045-1.958-6.008-3.983-9.255-5.595c-1.411-0.7-3.193,1.203-1.802,2.335
			c1.021,0.827,2.078,1.594,3.146,2.338c-12.318-1.579-25.033-2.67-37.361-1.528c-0.018-0.574-0.121-1.156-0.332-1.733
			c-1.596-4.343-8.17-4.143-9.34-0.153c-0.29,0.346-0.518,0.738-0.627,1.136c-0.616,2.243,0.757,4.604,2.676,5.729
			c3.031,1.777,6.113,0.024,7.212-2.683c12.479,0.889,24.828,1.151,37.247,2.661c-1.298,0.938-2.505,2.005-3.734,3.271
			c-1.296,1.338,0.034,3.3,1.729,2.972c4.483-0.866,7.667-2.645,10.801-5.947C1162.107,473.516,1161.912,472.204,1160.934,471.572z"
			/>
		<path fill="#324D19" d="M517.388-17.733c-8.095-10.592-16.343-21.071-24.544-31.582c-0.188-0.99-0.379-1.979-0.566-2.969
			c-0.28-1.465-1.939-1.597-2.771-0.735c-0.911-0.181-2.007,0.439-2.019,1.464c-0.051,5.138-0.403,10.212-1.034,15.233
			c-1.7,8.958-3.778,17.836-6.243,26.641c-0.557,1.988,2.361,3.042,3.05,1.062c3.085-8.891,5.212-17.958,6.396-27.193
			c0.413-2.166,0.797-4.339,1.167-6.516c10.743,57.202,21.4,114.433,33.229,171.42c0.24,1.158,2.003,0.812,1.804-0.353
			C516.06,71.654,505.101,14.772,494.22-42.116c6.838,8.906,13.667,17.819,20.603,26.647
			C516.184-13.731,518.718-15.99,517.388-17.733z"/>
		<path fill="#324D19" d="M408.138,182.813c-1.371-3.835-5.668-3.379-7.792-0.936c-0.868-1.293-1.583-2.911-2.359-4.197
			c-1.255-2.077-2.584-4.104-3.948-6.104c-8.292-20.102-20.428-39.925-40.826-44.333c-0.204-0.123-0.402-0.25-0.606-0.373
			c4.386-2.08,8.49-4.685,12.36-7.86c0.86-0.707,0.355-1.89-0.47-2.279c0.884-0.885,1.754-1.794,2.599-2.744
			c0.739-0.828,0.309-2.245-0.834-2.347c-1.919-0.17-3.839-0.322-5.76-0.453c0.097-0.444-0.003-0.955-0.267-1.318
			c0.227-0.063,0.451-0.123,0.679-0.187c1.463-0.427,0.918-2.505-0.532-2.388c-9.939,0.797-19.851,1.848-29.74,3.07
			c-7.255,0.241-14.51,0.497-21.764,0.725c-1.163,0.036-1.497,1.351-0.913,2.071c-0.202,0.258-0.292,0.612-0.139,1.06
			c0.464,1.363,0.925,2.726,1.388,4.087c2.874,10.853,6.238,21.541,10.097,32.036c2.573,10.13,5.155,20.258,7.746,30.383
			c0.255,0.999,1.724,0.681,1.48-0.331c-1.339-5.593-2.689-11.184-4.033-16.774c0.198,0.48,0.385,0.966,0.586,1.446
			c0.873,2.574,1.748,5.147,2.622,7.721c0.204,0.605,0.679,0.908,1.163,0.966c1.06,2.352,2.139,4.695,3.25,7.024
			c0.675,1.415,2.608,0.563,2.36-0.892c-0.966-5.633-1.637-11.269-2.05-16.913c0.01-5.514-0.128-11.031-0.42-16.55
			c0.016-0.67,0.017-1.34,0.037-2.009c9.585,10.898,15.293,25.151,21.294,38.368c6.508,14.336,12.362,28.924,18.42,43.459
			c0.534,1.281,2.44,0.765,2.557-0.414c0.25-0.292,0.38-0.699,0.24-1.229c-8.702-33.045-23.193-63.998-42.794-91.607
			c-0.719-1.015-2.203-0.246-2.262,0.844c-0.188,3.571-0.324,7.14-0.412,10.713c-1.037,5.547-1.754,11.11-2.098,16.743
			c-4.807-15.665-9.623-31.33-14.44-46.993c0.354-0.051,0.709-0.1,1.064-0.15c0.445,0.042,0.892,0.089,1.339,0.126
			c-0.015,0.689,0.403,1.453,1.166,1.506c15.708,1.098,31.361,0.63,46.91-1.354c-1.544,1.554-3.15,3.003-4.82,4.357
			c-5.29,2.919-10.58,5.837-15.869,8.755c-1.534,0.846-0.25,3.354,1.307,2.547c0.213-0.108,0.425-0.218,0.638-0.328
			c0.234,0.12,0.502,0.176,0.802,0.08c0.523-0.166,1.035-0.353,1.549-0.533c1.664,0.091,3.275,0.281,4.836,0.566
			c9.234,8.457,18.441,16.988,26.864,26.359c4.223,4.7,8.243,9.613,11.927,14.792c1.726,3.341,3.269,6.795,4.646,10.331
			c0.968,2.672,1.882,5.304,2.747,7.855c0.589,1.74,3.238,1.221,2.686-0.598c-0.191-0.631-0.413-1.248-0.616-1.873
			c0.3,0.417,0.619,0.797,0.98,1.094C403.884,190.443,409.695,187.174,408.138,182.813z M362.375,196.334
			c-2.521-5.71-5.104-11.385-7.705-17.036c-1.819-3.948-3.617-7.96-5.506-11.93C354.41,176.517,358.665,186.3,362.375,196.334z
			 M331.934,138.222c0.006-0.122,0.013-0.243,0.019-0.364c1.963,2.848,3.874,5.729,5.727,8.648
			c-1.593-1.813-3.246-3.584-4.979-5.298c-0.153-0.15-0.313-0.253-0.479-0.317c0.029-0.541,0.043-1.081,0.078-1.622
			C332.327,138.807,332.175,138.458,331.934,138.222z M380.141,150.664c-4.91-6.006-10.432-11.464-16.503-16.238
			C370.17,138.274,375.581,143.988,380.141,150.664z"/>
		<path fill="#324D19" d="M402.748,631.818c-0.199-0.145-0.392-0.291-0.59-0.437c0.693-0.196,1.208-0.646,1.015-1.246
			c-0.147-0.463-0.296-0.926-0.444-1.387c0.594-0.218,0.955-0.622,0.646-1.149c-0.62-1.01-1.184-2.025-1.773-3.041l-4.453-13.562
			c0.742-0.484,0.323-1.221-0.514-1.56c-1.136-3.465-2.274-6.93-3.412-10.395c-0.45-1.371-3.864-0.766-3.43,0.593
			c0.388,1.208,0.773,2.418,1.16,3.626c-0.913,0.338-1.83,0.669-2.753,0.987c-0.104-0.21-0.226-0.418-0.327-0.629
			c-0.439-0.92-2.484-1.025-3.271-0.229c-1.156,1.172-2.459,2.229-3.88,3.188c-0.47,0.132-0.952,0.246-1.424,0.376
			c-5.767-7.748-10.104-15.862-12.856-24.192c25.698-8.659,46.099-22.856,55.782-40.409c1.246-1.591,2.439-3.189,3.536-4.799
			c4.206-6.167,7.172-14.32-1.399-19.732c-7.957-5.027-21.882-4.297-31.521-1.726c-5.04,1.347-9.344,3.124-13.019,5.232
			c-17.406,8.098-22.296,22.915-23.525,36.16c-1.547,6.945-1.471,14.031,0.046,20.852c0.078,0.356,0.19,0.705,0.277,1.06
			c-15.185,5.979-32.037,10.137-49.998,10.467c-2.724-0.018-5.449-0.075-8.174-0.203c-0.26-0.014-0.485,0.007-0.685,0.049
			c-2.073-0.111-4.155-0.257-6.254-0.479c-1.208-0.125-1.678,0.988-0.454,1.134c0.47,0.058,0.935,0.093,1.403,0.143
			c-0.437,0.329-0.388,0.876,0.497,0.974c19.196,2.077,37.428,0.568,54.071-3.462c3.876-0.812,7.671-1.747,11.38-2.788
			c2.981,8.145,7.895,15.936,14.198,23.325c-2.581,0.518-5.165,1.033-7.746,1.55c-1.644-0.529-3.46,0.767-2.08,1.729
			c0.876,0.61,1.776,1.206,2.673,1.804c-1.705-0.416-3.409-0.831-5.102-1.272c-0.448-0.109-0.881-0.106-1.264-0.033
			c-1.658-0.331-3.455,0.917-1.895,1.74c1.973,1.041,3.968,2.062,5.978,3.071c0.25,0.348,0.748,0.63,1.367,0.68
			c11.458,5.707,23.485,10.95,36.096,15.708C402.454,634.22,403.958,632.695,402.748,631.818z M364.987,544.709
			c4.254-7.336,10.907-15.109,20.821-20.213c10.615-5.465,33.99-6.923,36.034,4.479c1.337,7.455-8.657,15.326-15.324,21.044
			c-8.207,7.037-17.756,13.509-28.335,19.261c-4.333,2.355-8.871,4.629-13.594,6.753c-0.302-1.349-0.577-2.701-0.797-4.058
			c-1.299-8.041-1.846-17.258,0.479-25.965C364.506,545.578,364.735,545.143,364.987,544.709z M374.326,573.824
			c12.687-6.231,23.957-13.479,33.588-21.477c2.136-1.771,4.493-3.696,6.771-5.728c-10.979,12.4-25.837,23.682-44.888,31.79
			c-1.374,0.585-2.769,1.149-4.178,1.697c-0.193-0.671-0.368-1.344-0.54-2.019C368.226,576.73,371.312,575.306,374.326,573.824z
			 M362.391,581.304c-0.24,0.088-0.478,0.181-0.72,0.268c-0.173-0.613-0.337-1.228-0.489-1.841c0.229-0.094,0.456-0.189,0.686-0.283
			C362.036,580.066,362.204,580.686,362.391,581.304z M390.791,519.924c-6.022,1.892-11.215,4.938-15.333,8.219
			c-0.922,0.735-1.803,1.486-2.657,2.246c1.646-1.766,3.529-3.442,5.69-5.002c1.278-0.926,2.695-1.812,4.208-2.65
			C385.21,521.604,387.929,520.651,390.791,519.924z M359.368,559.698c-0.129,5.953,0.535,11.888,1.964,17.747
			c-0.201,0.086-0.398,0.176-0.599,0.261c-0.251-1.213-0.477-2.427-0.646-3.646c-0.624-4.461-0.972-9.279-0.749-14.175
			C359.349,559.823,359.356,559.762,359.368,559.698z M385.619,610.062c0.172,0.375,0.345,0.75,0.517,1.125
			c-0.999,0.209-1.998,0.413-2.996,0.62c-0.12-0.143-0.246-0.282-0.363-0.426C383.733,610.953,384.686,610.516,385.619,610.062z
			 M370.824,600.027c-3.805-5.091-6.551-10.466-8.39-15.978c0.255-0.078,0.509-0.159,0.763-0.237
			C365.077,589.32,367.637,594.739,370.824,600.027z M425.686,524.284c-1.375-2.406-4.104-4.513-8.953-6.11
			c-3.291-1.081-6.826-1.682-10.43-1.892c1.869-0.047,3.75,0.005,5.631,0.194C420.857,517.387,424.688,520.457,425.686,524.284z
			 M357.124,581.327c0.155,0.538,0.346,1.071,0.518,1.606c-3.062,0.991-6.19,1.899-9.375,2.714
			c-4.388,0.953-8.865,1.742-13.404,2.374C342.572,586.319,350,584.029,357.124,581.327z M388.542,620.398
			c0.207-0.055,0.388-0.125,0.539-0.224c0.417,0.056,0.828,0.116,1.251,0.166c0.413,0.9,0.825,1.803,1.24,2.704
			C390.546,622.17,389.535,621.289,388.542,620.398z M398.636,628.747c-0.071-0.28-0.313-0.554-0.8-0.759
			c-0.123-0.053-0.239-0.104-0.36-0.157c-1.012-2.209-2.024-4.417-3.04-6.628c0.113,0.076,0.229,0.151,0.343,0.227
			c0.325,0.449,0.665,0.896,0.998,1.343c0.964,2.038,1.972,4.071,3.021,6.101C398.744,628.83,398.69,628.789,398.636,628.747z"/>
		<path fill="#324D19" d="M144.045,467.594c0.058-0.093,0.106-0.188,0.164-0.281c2.241-2.176,4.334-4.407,6.257-6.682
			c16.217-19.148,11.349-44.456-7.161-56.617c-15.387-10.104-40.52-11-62.057-3.068c-1.52,0.438-3.04,0.929-4.56,1.476
			c-19.041,6.854-32.554,20.438-36.862,34.801c-2.247,0.131-4.494,0.261-6.741,0.392c-0.001,0-0.005,0.003-0.007,0.002
			c-1.086-0.054-2.171-0.118-3.259-0.215c-1.02-0.811-3.502-0.057-3.266,1.414c0.69,4.305,1.968,8.334,3.85,12.174
			c1.06,2.771,2.21,5.515,3.52,8.21c0.242,0.499,0.84,0.689,1.484,0.642c0.877,0.891,3.446,0.071,3.372-1.417
			c-0.017-0.348,0.001-0.702-0.004-1.05c0.334-0.337,0.662-0.677,0.991-1.017c0.719,0.418,1.965,0.382,2.726-0.45
			c5.21-5.702,9.46-11.567,12.903-17.813c0.819-1.486-1.979-2.476-3.108-0.961c-0.119,0.158-0.246,0.311-0.365,0.467
			c-0.085-0.568-0.58-1.041-1.492-0.987c-1.654,0.095-3.309,0.189-4.963,0.286c5.056-12.05,16.528-23.362,31.867-29.736
			c11.729-4.873,24.704-6.521,36.25-5.08c5.297,1.062,10.334,2.682,15.11,4.619c1.871,0.756,3.685,1.577,5.437,2.452
			c1.146,0.755,2.239,1.559,3.26,2.428c12.65,10.758,14.963,27.762,8.973,43.913c-6.988,13.222-19.969,25.269-37.314,31.362
			c-29.81,10.473-58.552,1.989-74.033-14.453c-0.579-0.615-1.891-0.419-2.686,0.156c-0.054-0.196-0.124-0.387-0.173-0.586
			c-0.277-1.113-2.704-0.587-2.441,0.548c0.479,2.054,1.208,3.996,2.14,5.835c3.019,15.723,30.11,23.756,49.458,23.192
			C107.625,500.781,132.156,486.919,144.045,467.594z M152.661,452.267c-1.039,1.801-2.264,3.582-3.583,5.348
			c0.51-1.278,0.981-2.562,1.398-3.851c7.732-16.954,7.833-33.97-8.909-44.322c-2.113-1.307-4.347-2.533-6.679-3.661
			c-5.419-3.131-11.843-5.247-18.825-6.28c-2.328-0.457-4.708-0.788-7.121-1.027c8.888-0.155,17.436,1.199,24.688,4.179
			C153.178,410.668,163.303,433.839,152.661,452.267z M34.111,440.922c1.29,0.306,2.588,0.541,3.901,0.703
			c-0.219,0.598-0.429,1.196-0.625,1.796c-0.636,0.302-1.275,0.624-1.917,0.973C35.059,443.226,34.591,442.072,34.111,440.922z
			 M45.084,443.547c0.355-0.082,0.71-0.166,1.073-0.237c-0.823,1.413-1.645,2.826-2.466,4.236
			C44.228,446.226,44.676,444.893,45.084,443.547z M87.76,494.077c-19.864,3.495-40.307-0.735-50.215-11.979
			c-0.849-1.298-1.48-2.675-1.862-4.126C48.062,488.92,66.533,495.741,87.76,494.077z M97.601,496.615
			c-9.27,2.21-18.63,2.644-27.304,1.51c3.744,0.164,7.552-0.048,11.459-0.493c15.655-1.783,31.061-8.001,44.326-16.378
			c0.004-0.003,0.01-0.007,0.014-0.009c2.088-1.318,4.168-2.614,6.134-4.038C123.538,486.049,111.86,493.214,97.601,496.615z"/>
		<g>
			<path fill="#324D19" d="M458.852,196.419c0.097,0.144,0.191,0.291,0.289,0.437c-0.665,0.914-1.353,1.806-2.034,2.705
				c0.569-1.068,1.143-2.135,1.715-3.202C458.831,196.376,458.837,196.399,458.852,196.419z M466.492,207.958
				c0.388,0.583,0.774,1.169,1.161,1.753c-1.821,0.346-3.644,0.691-5.464,1.037C463.615,209.805,465.048,208.873,466.492,207.958z
				 M464.186,186.756c0.104,0.75,0.218,1.498,0.321,2.248c-0.429,0.666-0.855,1.333-1.293,1.993
				c-0.474-0.16-0.968-0.199-1.459-0.122c0.804-1.501,1.607-3.003,2.412-4.505C464.174,186.499,464.167,186.621,464.186,186.756z"/>
		</g>
		<g display="none">
			<path display="inline" fill="#324D19" d="M691.958,225.583c-36.506,1.24-73.091,3.647-109.608,5.551
				c-18.059,0.94-43.705,2.532-54.698,17.059c-0.061-0.193-0.105-0.39-0.169-0.583c-0.325-1.04-2.181-0.734-2.055,0.374
				c0.115,1.033,0.228,2.059,0.339,3.088c-0.187,0.336-0.381,0.665-0.556,1.013c-0.304,0.607,0.19,1.118,0.811,1.277
				c0.381,3.532,0.741,7.054,1.074,10.57c-5.639,0.437-10.853,3.246-12.892,9.049c-2.503,7.114,6.969,14.453,14.472,11.081
				c0.232,3.968,0.413,7.941,0.531,11.917c-3.674,0.715-7.167,2.623-9.453,5.889c-2.638,3.77-2.705,9.383,1.465,12.058
				c2.78,1.779,5.707,1.563,8.061,0.162c-0.089,3.741-0.265,7.502-0.498,11.27c-1.329,0.408-2.601,0.933-3.749,1.557
				c-4.248,2.304-7.717,6.561-6.209,10.665c1.099,2.991,4.674,5.147,8.44,4.644c-0.365,3.276-0.762,6.559-1.184,9.836
				c-0.634,0.318-1.258,0.662-1.858,1.084c-3.565,2.5-5.956,6.541-4.892,10.226c0.624,2.169,2.287,3.827,4.517,4.419
				c-0.684,4.477-1.409,8.951-2.159,13.434c-0.716,0.235-1.435,0.514-2.153,0.871c-4.029,1.989-6.437,5.646-5.785,9.363
				c0.438,2.494,2.269,5.084,5.099,6.014c-1.247,6.911-2.523,13.819-3.82,20.729c-0.134,0.718,0.408,1.459,1.184,1.785
				c0.504,3.712,7.2,2.989,10.932,2.511c15.008-1.934,30.03-4.665,44.948-7.237c28.155-4.856,56.264-10.032,84.331-15.354
				c1.638-0.028,3.274-0.064,4.914-0.076c0.015,0,0.03-0.003,0.048-0.008c0.782,0.9,3.015,0.676,3.252-0.819
				c0.054-0.337,0.113-0.676,0.158-1.024c1.107,0.314,2.481,0.023,3.054-0.871c-0.025,0.42-0.071,0.849-0.084,1.265
				c-0.022,1.577,2.679,2.185,3.411,0.475c2.704-6.188,2.965-12.912,4.111-19.334c1.313-7.391,2.672-14.781,3.987-22.173
				c2.53-14.263,4.746-28.545,6.634-42.832c3.648-27.674,7.347-56.018,6.257-83.605c0.053-0.763,0.125-1.53,0.165-2.293
				C694.048,227.912,694.17,225.505,691.958,225.583z M691.433,228.784c-3.874,12.46-5.467,25.292-7.734,37.905
				c-2.67,14.866-5.263,29.737-7.815,44.607c-0.864,5.015-1.73,10.021-2.586,15.04c3.646-31.934,8.839-63.883,14.701-95.523
				c0.201-1.056-0.608-1.64-1.575-1.752C688.094,228.963,689.766,228.888,691.433,228.784z M520.253,271.561
				c1.902-2.34,4.505-3.422,7.199-3.608c0.367,4.112,0.696,8.221,0.968,12.328C521.914,281.686,515.5,277.41,520.253,271.561z
				 M523.632,309.696c-1.547-2.432-0.232-5.56,2.157-7.514c1.104-0.901,2.301-1.484,3.518-1.821
				c0.069,3.914,0.072,7.839,0.006,11.776C527.036,312.297,524.557,311.145,523.632,309.696z M524.674,336.908
				c-2.169-2.322,1.034-5.244,3.602-6.512c0.042-0.02,0.09-0.033,0.132-0.061c-0.097,1.216-0.159,2.415-0.272,3.622
				c-0.135,1.415-0.3,2.825-0.447,4.235C526.533,337.986,525.427,337.713,524.674,336.908z M524.477,359.261
				c0.204-0.409,0.481-0.79,0.78-1.17c-0.248,1.771-0.494,3.539-0.753,5.304C523.74,362.223,523.948,360.32,524.477,359.261z
				 M520.747,386.669c-0.313,1.812-0.617,3.616-0.938,5.431C518.7,390.279,518.735,388.198,520.747,386.669z M590.908,408.139
				c-11.699,2.024-23.412,3.988-35.12,5.976c-3.297,0.562-27.383,5.265-34.812,5.084c36.458-9.688,73.5-16.001,110.895-18.349
				C618.226,403.341,604.576,405.781,590.908,408.139z M661.697,395.307c-0.062,0.014-0.128,0.022-0.19,0.039
				c-47.604,0.242-95.497,6.774-141.461,20.187c1.896-10.185,3.753-20.384,5.479-30.584c5.113-0.438,8.191,3.79,8.669,7.827
				c0.29,2.447,5.358,2.139,5.338-0.412c-0.054-6.437-5.967-11.956-13.248-11.91c0.712-4.307,1.398-8.629,2.044-12.944
				c1.263-0.565,1.163-1.719,0.37-2.463c0.484-3.338,0.94-6.676,1.375-10.021c4.701-1.219,9.276,1.838,9.278,5.77
				c-0.002,3.273,5.563,2.887,5.478-0.418c-0.166-6.465-7.178-10.648-14.204-9.706c0.796-6.579,1.486-13.166,2.007-19.754
				c0.045-0.61,0.088-1.228,0.132-1.844c1.601-0.208,3.211-0.128,4.556,0.352c3.322,1.19,2.679,3.38,3.422,5.798
				c0.349,1.131,2.239,2.069,3.508,0.922c3.833-3.459,0.8-8.442-3.196-10.41c-2.328-1.146-5.141-1.483-7.953-1.229
				c0.553-7.985,0.945-16.087,0.999-24.201c2.663,0.695,4.877,2.56,5.639,5.109c0.843,2.83,6.233,1.945,5.604-1.024
				c-1.094-5.171-5.913-8.177-11.271-8.666c-0.093-9.157-0.637-18.296-1.95-27.243c2.301,0.674,4.404,1.901,5.874,3.466
				c2.078,2.214,6.532-0.978,4.271-3.086c-2.801-2.612-6.764-4.279-10.862-4.804c-0.758-4.291-1.684-8.539-2.843-12.713
				c14.85-19.209,47.75-17.291,71.048-18.343c28.584-1.291,57.201-2.212,85.802-3.878c-0.803,0.191-1.521,0.708-1.683,1.568
				c-9.02,47.747-14.202,95.283-18.493,143.063C664.038,380.932,662.858,388.118,661.697,395.307z M682.862,314.41
				c-1.796,13.763-3.897,27.52-6.314,41.247c-1.215,6.874-2.486,13.735-4.005,20.59c-1.267,5.679-3.408,11.657-4.326,17.468
				c0.268-8.384,0.68-16.779,1.239-25.188c2.931-18.502,5.897-37.002,9.035-55.494c2.428-14.32,4.902-28.641,7.389-42.958
				c0.726-4.198,1.544-8.418,2.348-12.64C686.595,276.422,685.336,295.42,682.862,314.41z"/>
			<path display="inline" fill="#324D19" d="M625.113,256.886c-17.404,2.57-34.787,5.182-52.15,8.021
				c-0.334,0.055-0.25,0.46,0.076,0.42c17.477-2.126,34.911-4.481,52.356-6.879C626.639,258.277,626.355,256.701,625.113,256.886z"
				/>
			<path display="inline" fill="#324D19" d="M634.834,271.283c-11.198-0.037-22.779,2.215-33.955,3.585
				c-12.544,1.542-25,3.358-37.502,5.22c-0.587,0.086-0.431,0.776,0.132,0.725c11.946-1.083,23.852-2.164,35.78-3.55
				c11.726-1.367,24.104-1.904,35.568-4.708C635.681,272.354,635.763,271.284,634.834,271.283z"/>
			<path display="inline" fill="#324D19" d="M637.339,284.816c-13.105,1.091-26.17,2.724-39.142,5.12
				c-12.911,2.389-25.66,6.502-38.83,6.801c-0.125,0.005-0.139,0.142-0.021,0.159c11.946,1.531,23.669-1.999,35.529-4.208
				c14.219-2.648,28.494-4.516,42.866-5.663C639.5,286.885,639.083,284.671,637.339,284.816z"/>
			<path display="inline" fill="#324D19" d="M639.146,303.198c-24.957,4.236-51.437,6.93-75.718,14.026
				c-0.229,0.065-0.285,0.4,0.011,0.387c25.26-1.346,51.175-7.606,76.166-11.899C641.594,305.371,641.137,302.862,639.146,303.198z"
				/>
			<path display="inline" fill="#324D19" d="M638.932,316.852c-12.64,1.316-25.34,4.604-37.921,6.637
				c-12.655,2.045-25.372,3.563-38.006,5.713c-0.391,0.062-0.396,0.589,0.013,0.578c12.856-0.407,25.633-2.055,38.405-3.99
				c12.539-1.9,25.963-3.591,37.992-7.553C640.449,317.896,639.867,316.759,638.932,316.852z"/>
			<path display="inline" fill="#324D19" d="M636.737,330.411c-21.453,7.78-42.902,11.44-65.41,15.014
				c-0.734,0.119-0.73,1.093,0.023,1.08c22.532-0.343,45.493-6.381,66.549-13.946C639.672,331.918,638.502,329.77,636.737,330.411z"
				/>
			<path display="inline" fill="#324D19" d="M643.408,348.618c-11.935,1.521-23.869,4.646-35.711,6.878
				c-10.619,1.997-21.665,3.295-31.997,6.396c-0.345,0.105-0.236,0.561,0.101,0.557c10.756-0.219,21.719-2.604,32.361-4.402
				c11.821-2.01,24.194-3.568,35.732-6.796C645.892,350.688,645.537,348.348,643.408,348.618z"/>
			<path display="inline" fill="#324D19" d="M607.646,369.468c-10.475,0.207-22.301,2.746-32.269,6.005
				c-0.726,0.237-0.539,1.252,0.224,1.217c10.475-0.522,22.424-2.379,32.291-5.929C608.652,370.479,608.467,369.451,607.646,369.468
				z"/>
		</g>
	</g>
</g>
<g>
	<g>
		<g>
			<defs>
				<ellipse id="SVGID_1_" cx="610.184" cy="315.487" rx="100.149" ry="100.477"/>
			</defs>
			<clipPath id="SVGID_2_">
				<use xlink:href="#SVGID_1_"  overflow="visible"/>
			</clipPath>
			<ellipse clip-path="url(#SVGID_2_)" fill="#72AF3A" cx="609.848" cy="315.488" rx="100.149" ry="100.476"/>
		</g>
	</g>
	<g>
		<g>
			<defs>
				<ellipse id="SVGID_3_" cx="610.184" cy="315.487" rx="100.149" ry="100.477"/>
			</defs>
			<clipPath id="SVGID_4_">
				<use xlink:href="#SVGID_3_"  overflow="visible"/>
			</clipPath>
			<g clip-path="url(#SVGID_4_)">
				<g>
					<path fill="#FFD155" d="M786.754,562.036c-14.86,11.66-45.153,0.811-62.379-1.758c-24.157-3.6-47.601-10.67-71.668-15.179
						c-11.581-2.166-23.623-5.817-35.976-4.762c-14.667,1.255-23.821-0.788-29.313-5.325c-1.369-1.136-2.51-2.424-3.451-3.859
						c-0.942-1.433-1.686-3.003-2.272-4.664c1.668-27.153,8.853-56.738-7.182-82.036c-0.854-2.168-1.669-4.269-2.497-6.342
						c-0.816-2.079-1.649-4.14-2.492-6.171c-0.675-2.07-1.27-4.063-1.829-6.05c-2.771-9.887-5.028-19.815-4.01-29.997
						c0.156-1.272,0.333-2.538,0.519-3.794c0.188-1.256,0.386-2.504,0.588-3.744c0.5-2.043,1.069-4.057,1.726-6.04
						c1.479-4.454,3.412-8.743,6.051-12.765c0.879-1.341,1.837-2.654,2.88-3.937c16.605-17.1,47.02-15.722,62.374,1.815
						c0.978,1.093,1.896,2.258,2.75,3.494c0.848,1.235,1.632,2.546,2.346,3.932c0.855,1.522,1.618,3.083,2.291,4.664
						c0.672,1.578,1.251,3.174,1.736,4.76c0.527,1.953,0.886,3.926,1.113,5.917c0.557,5.935-0.064,12.022-1.838,17.875
						c-0.356,2.051-0.748,4.094-1.131,6.143c-1.147,6.13-2.209,12.268-2.076,18.577c0.335,1.916,0.723,3.807,1.171,5.668
						c0.859,1.82,1.912,3.561,3.129,5.249c1.002,1.413,2.024,2.784,3.071,4.129c6.283,8.068,13.396,15.446,22.473,21.27
						c3.644,2.443,7.262,4.757,10.938,7.115c3.663,2.346,7.395,4.736,11.183,7.19c4.544,2.953,42.666,30.005,68.497,51.684
						C779.068,548.203,790.195,559.34,786.754,562.036z"/>
					<path fill="#F79D20" d="M651.729,474.961c-0.37,0.255-0.699,0.562-0.985,0.918c0.843-0.823,0.72-0.705-0.368,0.353
						c-0.708,0.891-0.972,1.905-1.09,3.004c-0.087,0.795-0.174,1.593-0.262,2.389c-0.197,1.815,0.438,3.591,1.89,4.741
						c1.7,1.351,4.551,1.589,6.264,0.085c0.571-0.502,1.15-1.01,1.605-1.618c0.788-1.055,1.019-1.915,1.355-3.179
						c0.303-1.133-0.051-2.391-0.053-3.549c-0.001-1.303-1.011-2.741-1.982-3.512c-1.122-0.893-2.585-1.298-4.007-1.117
						c-2.914,0.37-4.973,3.094-4.632,5.989c0.058,0.485,0.179,0.958,0.272,1.436c0.178,0.918,0.155-1.431,0.019-0.495
						c0.07-0.29,0.141-0.577,0.211-0.867c0.462-0.718,0.501-0.843,0.118-0.378c3.036,0.846,6.071,1.69,9.106,2.538
						c-0.007-0.798-0.013-1.596-0.018-2.391c-0.014-1.791-0.917-3.131-2.206-4.276C655.516,473.74,653.231,473.881,651.729,474.961
						L651.729,474.961z"/>
					<path fill="#F79D20" d="M668.035,486.546c-0.008-0.033-0.012-0.065-0.02-0.098c-1.374,0.178-2.751,0.353-4.125,0.527
						c0.041,0.221,0.081,0.44,0.121,0.66c0.191,1.03,1.069,1.801,2.151,1.666c0.995-0.13,1.853-1.123,1.663-2.153
						c-0.008-0.03-0.013-0.062-0.02-0.095c-0.154-0.836-0.743-1.516-1.614-1.641c-0.755-0.108-1.779,0.324-2.011,1.125
						c-0.009,0.027-0.019,0.058-0.024,0.088c1.174,0.513,2.35,1.022,3.523,1.533c0.059-0.203,0.12-0.41,0.178-0.615
						c0.315-1.086,0.062-2.241-1.075-2.736c-0.938-0.41-2.421-0.016-2.737,1.075c-0.009,0.03-0.018,0.06-0.026,0.09
						c-0.374,1.288,0.146,2.709,1.631,2.922C666.946,489.079,668.285,487.903,668.035,486.546L668.035,486.546z"/>
					<path fill="#F79D20" d="M654.768,490.58c-0.088,0.035-0.176,0.067-0.265,0.103c-1.354,0.524-2.333,1.828-2.537,3.254
						c-0.272,1.908,0.789,3.546,2.447,4.387c0.087,0.045,0.174,0.09,0.261,0.132c2.503,1.273,5.562-0.688,5.937-3.313
						C661.074,491.893,657.774,489.417,654.768,490.58L654.768,490.58z"/>
					<g>
						<path fill="#86592D" d="M701.925,383.816c1.045,1.535,1.31,3.251,0.793,5.034c-1.163,4.017,5.077,6.056,6.147,2.036
							c1.099-4.137,0.236-8.679-4.082-10.422C702.958,379.728,700.747,382.088,701.925,383.816L701.925,383.816z"/>
						<path fill="#AC7339" d="M745.093,453.507c-2.473,11.612-9.189,22.097-22.999,20.896c-0.077-0.005-0.154-0.016-0.23-0.021
							h-0.008c-1.369-0.138-2.684-0.397-3.946-0.775c-5.986-1.766-10.769-6.062-14.521-11.354c-0.617-0.873-1.214-1.773-1.78-2.696
							c-3.412-5.579-5.822-11.902-7.395-17.437c-0.032-0.095-0.058-0.19-0.084-0.285c-0.276-0.985-0.544-1.943-0.797-2.874
							c-1.998-7.343-3.054-13.015,0.546-17.89l0.001-0.005c1.262-1.713,3.097-3.324,5.658-4.877c0.087-0.053,0.173-0.105,0.258-0.15
							c8.914-5.274,20.705-5.782,30.281-1.348c2.598,1.193,5.028,2.751,7.2,4.682c0.748,0.66,1.43,1.326,2.07,2.044
							c0,0,0.007,0,0.012,0.007c0.323,0.341,0.631,0.695,0.932,1.061c0.873,1.051,1.639,2.139,2.313,3.264
							c0.89,1.493,1.607,3.044,2.169,4.643c0.357,1.003,0.655,2.025,0.892,3.063c0.655,2.821,0.902,5.757,0.838,8.771
							c-0.024,1.491-0.129,2.994-0.294,4.518C745.96,448.98,745.572,451.241,745.093,453.507z"/>
						<path fill="#C68C53" d="M729.688,485.78c-9.55,15.894-23.561,15.421-36.377,7.948c-1.097-0.633-2.187-1.328-3.267-2.065
							c-4.048-2.776-7.932-6.195-11.442-9.937c-1.194-1.273-2.368-2.552-3.537-3.819c-0.724-0.788-1.439-1.568-2.156-2.356
							c-4.339-4.749-8.604-9.469-13.155-14.105c-0.752-0.766-1.517-1.528-2.282-2.288c-0.534-0.521-1.06-1.038-1.599-1.561
							c-2.963-2.861-7.271-6.328-11.03-10.107c-0.852-0.853-1.673-1.726-2.444-2.613c-2.603-2.981-4.648-6.11-5.303-9.264
							c-4.165-20.081,16.534-30.99,33.312-33.391c14.485-2.074,30.671,1.683,42.104,11.034c1.157,0.94,2.272,1.948,3.319,3.011
							c2.717,2.729,5.066,5.846,6.93,9.334c0.323,0.608,0.646,1.221,0.97,1.836c0.508,0.971,1.006,1.956,1.507,2.961
							c1.755,3.539,3.424,7.233,4.88,11.024c0.398,1.048,0.783,2.102,1.149,3.156c1.001,2.899,1.854,5.846,2.507,8.807
							c0.368,1.678,0.668,3.366,0.896,5.05C735.933,467.78,734.865,477.167,729.688,485.78z"/>
						<path opacity="0.2" fill="#FFFFFF" enable-background="new    " d="M701.307,411.51c-9.125-5.792-24.8-6.117-32.428-1.671
							c-8.919,5.197-17.335,14.312-12.748,25.376c2.417,5.827,7.448,8.371,13.234,8.884c11.561,1.022,34.017-3.02,38.148-16.092
							C709.906,420.437,706.785,414.989,701.307,411.51z"/>
					</g>
					<path fill="#F79D20" d="M596.258,390.592c0.663,4.486,3.735,6.085,7.925,7.133c3.946,0.98,8.46-0.277,10.378-4.074
						c1.716-3.395-1.854-2.691-3.829-2.339c-1.892,0.096-4.377,0.016-6.403-0.228c-1.777-0.215-4.45-1.175-6.016-2.035
						C597.313,388.498,596.104,389.546,596.258,390.592L596.258,390.592z"/>
				</g>
				<path fill="#FFD155" d="M623.561,366.962c-3.773,1.301-9.561-1.355-10.327-5.542c-0.651-3.562,4.434-9.731,6.295-12.528
					c6.328-9.504,14.291-17.803,21.884-26.28c2.745-3.065,8.312-11.38,12.327-11.422c7.03-0.075,5.236,6.693,3.292,10.357
					c-6.684,12.605-17.412,22.314-24.367,34.701C630.243,360.562,628.738,365.176,623.561,366.962z"/>
				<path fill="#FFD155" d="M596.292,358.688c-1.282,3.779-6.929,6.728-10.707,4.77c-3.213-1.666-4.977-9.467-6.045-12.65
					c-3.635-10.819-5.32-22.2-7.371-33.396c-0.74-4.044-3.903-13.539-1.478-16.738c4.248-5.604,8.499-0.042,10.205,3.74
					c5.869,13.004,6.973,27.433,12.504,40.517C595.326,349.487,598.051,353.501,596.292,358.688z"/>
				<path fill="#FFD155" d="M632.572,289.733c-6.088,18.63,6.697,47.826,28.435,46.926c18.263-0.755,36.959-13.037,31.362-32.631
					C685.761,280.877,642.935,258.036,632.572,289.733z"/>
				<path fill="#FFD155" d="M538.921,304.963c11.354,16.55,43.049,24.333,55.85,6.102c10.756-15.319,12.411-38.164-7.001-45.814
					C564.833,256.208,519.602,276.806,538.921,304.963z"/>
				<g>
					<path fill="#FFFFFF" d="M665.991,326.307c-27.87,7.074-36.176-45.207-6.71-43.247
						C681.57,284.544,689.987,320.217,665.991,326.307z"/>
					<path fill="#264D73" d="M667.227,300.003c2.326,2.498,4.328,5.325,4.969,8.751c0.84,4.518-0.333,7.658-3.908,10.526
						c-3.949,3.166-10.232,1.008-12.692-2.91c0.291,0.469-2.429-5.575-0.735-2.036c-0.184-0.352-0.396-0.688-0.63-1.008
						c0.852,1.001,0.899,1.12,0.144,0.357c-3.726-3.503-3.918-9.539-0.413-13.267C657.286,296.874,663.739,296.256,667.227,300.003
						L667.227,300.003z"/>
				</g>
				<g>
					<path fill="#FFFFFF" d="M575.955,312.436c-27.715,7.033-35.975-44.958-6.673-43.008
						C591.446,270.903,599.815,306.38,575.955,312.436z"/>
					<path fill="#264D73" d="M577.184,286.276c2.312,2.485,4.304,5.296,4.938,8.704c0.838,4.492-0.329,7.616-3.884,10.467
						c-3.927,3.149-10.176,1.002-12.624-2.894c0.292,0.464-2.411-5.543-0.729-2.025c-0.185-0.349-0.394-0.683-0.628-1.001
						c0.848,0.995,0.896,1.113,0.142,0.356c-3.704-3.485-3.895-9.486-0.411-13.194C567.297,283.166,573.714,282.551,577.184,286.276
						L577.184,286.276z"/>
				</g>
			</g>
		</g>
	</g>
</g>
</svg>
